SplineFontDB: 3.2
FontName: AltiumMono-Bold
FullName: Altium Mono Bold
FamilyName: Altium Mono Bold
Weight: Regular
Copyright: Copyright 2020 The JetBrains Mono NL Project Authors (https://github.com/JetBrains/JetBrainsMonoNL)\nCopyright 2022 Dian Song
Version: 0.4; ttfautohint (v1.8.3)
ItalicAngle: 0
UnderlinePosition: -180
UnderlineWidth: 50
Ascent: 800
Descent: 200
InvalidEm: 0
sfntRevision: 0x00006666
LayerCount: 2
Layer: 0 1 "Back" 1
Layer: 1 1 "Fore" 0
XUID: [1021 25 786891604 9169]
StyleMap: 0x0020
FSType: 0
OS2Version: 4
OS2_WeightWidthSlopeOnly: 0
OS2_UseTypoMetrics: 1
CreationTime: 1627653265
ModificationTime: 1662483897
PfmFamily: 49
TTFWeight: 700
TTFWidth: 5
LineGap: 0
VLineGap: 0
Panose: 2 0 0 9 0 0 0 0 0 0
OS2TypoAscent: 1020
OS2TypoAOffset: 0
OS2TypoDescent: -300
OS2TypoDOffset: 0
OS2TypoLinegap: 0
OS2WinAscent: 1020
OS2WinAOffset: 0
OS2WinDescent: 300
OS2WinDOffset: 0
HheadAscent: 1020
HheadAOffset: 0
HheadDescent: -300
HheadDOffset: 0
OS2SubXSize: 650
OS2SubYSize: 600
OS2SubXOff: 0
OS2SubYOff: 75
OS2SupXSize: 650
OS2SupYSize: 600
OS2SupXOff: 0
OS2SupYOff: 350
OS2StrikeYSize: 50
OS2StrikeYPos: 320
OS2CapHeight: 730
OS2XHeight: 550
OS2Vendor: 'DS  '
OS2CodePages: 2000019f.dfd70000
OS2UnicodeRanges: a00402ff.1200f9fb.02000028.00000000
MarkAttachClasses: 1
MarkAttachSets: 2
"MarkSet-0" 131 dotbelowcomb uni0325 uni0326 uni0327 uni0326.alt dotbelowcomb.case uni0324.case uni0326.case uni0327.case uni032E.case uni0331.case

StartChar: .notdef
Encoding: 1114112 -1 0
Width: 600
GlyphClass: 1
Flags: W
LayerCount: 2
Fore
SplineSet
23.5130399491 3.5527136788e-15 m 2,0,-1
 23.5130399491 730 l 2,1,2
 23.5130399491 757.558241847 23.5130399491 757.558241847 42.9773990511 777.022600949 c 128,-1,3
 62.4417581531 796.486960051 62.4417581531 796.486960051 90 796.486960051 c 2,4,-1
 510 796.486960051 l 2,5,6
 537.558241847 796.486960051 537.558241847 796.486960051 557.022600949 777.022600949 c 128,-1,7
 576.486960051 757.558241847 576.486960051 757.558241847 576.486960051 730 c 2,8,-1
 576.486960051 -3.5527136788e-15 l 2,9,10
 576.486960051 -27.5582418469 576.486960051 -27.5582418469 557.243480025 -46.7791209234 c 128,-1,11
 538 -66 538 -66 510 -66.4869600509 c 2,12,-1
 90 -66.4869600509 l 2,13,14
 62.4417581531 -66.4869600509 62.4417581531 -66.4869600509 42.9773990511 -47.0226009489 c 128,-1,15
 23.5130399491 -27.5582418469 23.5130399491 -27.5582418469 23.5130399491 3.5527136788e-15 c 2,0,-1
393.513039949 351.447410659 m 1,16,-1
 270.066218263 116.486960051 l 1,17,-1
 393.513039949 116.486960051 l 1,18,-1
 393.513039949 351.447410659 l 1,16,-1
206.486960051 613.513039949 m 1,19,-1
 206.486960051 378.552589341 l 1,20,-1
 329.933781737 613.513039949 l 1,21,-1
 206.486960051 613.513039949 l 1,19,-1
EndSplineSet
EndChar

StartChar: exclam
Encoding: 33 33 34
Width: 600
GlyphClass: 1
Flags: W
LayerCount: 2
Fore
SplineSet
188.619993813 156.156688936 m 0,0,1
 201.79562192 168.985589988 201.79562192 168.985589988 217.298046372 177.40571775 c 1,2,3
 211.880886191 181.073911911 211.880886191 181.073911911 206.977399051 185.977399051 c 0,4,5
 189.178218912 203.77657919 189.178218912 203.77657919 187.63845475 228.902730746 c 2,6,-1
 165.63845475 587.902730746 l 2,7,8
 165.792507963 588.796370109 165.792507963 588.796370109 165.792507963 589.824281685 c 128,-1,9
 165.792507963 590.852193262 165.792507963 590.852193262 165.513039949 592 c 2,10,-1
 165.513039949 730 l 2,11,12
 165.513039949 757.558241847 165.513039949 757.558241847 184.977399051 777.022600949 c 128,-1,13
 204.441758153 796.486960051 204.441758153 796.486960051 232 796.486960051 c 2,14,-1
 368 796.486960051 l 2,15,16
 395.558241847 796.486960051 395.558241847 796.486960051 415.022600949 777.022600949 c 128,-1,17
 434.486960051 757.558241847 434.486960051 757.558241847 434.486960051 730 c 2,18,-1
 434.486960051 592 l 2,19,20
 434.486960051 589.949272273 434.486960051 589.949272273 412.36154525 228.902730746 c 0,21,22
 410.821781088 203.77657919 410.821781088 203.77657919 393.022600949 185.977399051 c 0,23,24
 388.254777207 181.209575309 388.254777207 181.209575309 383.001310533 177.609637098 c 1,25,26
 399.109665223 168.935536666 399.109665223 168.935536666 412.522600949 155.522600949 c 0,27,28
 450.486960051 117.558241847 450.486960051 117.558241847 450.486960051 61 c 0,29,30
 450.486960051 31.1450195621 450.486960051 31.1450195621 440.031468437 7.82123057689 c 0,31,32
 428.851008099 -17.1197963315 428.851008099 -17.1197963315 410.248207099 -34.7639291527 c 0,33,34
 371.540147503 -71.4869600509 371.540147503 -71.4869600509 314 -71.4869600509 c 2,35,-1
 285 -71.4869600509 l 2,36,37
 225.935812825 -71.4869600509 225.935812825 -71.4869600509 187.338789456 -32.8924659302 c 0,38,39
 149.513039949 4.93328357686 149.513039949 4.93328357686 149.513039949 61.507319263 c 128,-1,40
 149.513039949 118.081354949 149.513039949 118.081354949 188.619993813 156.156688936 c 0,0,1
EndSplineSet
EndChar

StartChar: quotedbl
Encoding: 34 34 35
Width: 600
GlyphClass: 1
Flags: W
LayerCount: 2
Fore
SplineSet
60.7103012644 593.862948091 m 2,0,1
 60.8183607609 594.660082234 60.8183607609 594.660082234 60.8183607609 595.88955079 c 128,-1,2
 60.8183607609 597.119019345 60.8183607609 597.119019345 60.5130399491 599 c 2,3,-1
 60.5130399491 730 l 2,4,5
 60.5130399491 757.558241847 60.5130399491 757.558241847 79.9773990511 777.022600949 c 128,-1,6
 99.4417581531 796.486960051 99.4417581531 796.486960051 127 796.486960051 c 2,7,-1
 253 796.486960051 l 2,8,9
 280.542244218 796.486960051 280.542244218 796.486960051 300.000001176 777.045193784 c 1,10,11
 319.457756273 796.486958876 319.457756273 796.486958876 347 796.486960051 c 2,12,-1
 473 796.486960051 l 2,13,14
 500.558241847 796.486960051 500.558241847 796.486960051 520.022600949 777.022600949 c 128,-1,15
 539.486960051 757.558241847 539.486960051 757.558241847 539.486960051 730 c 2,16,-1
 539.486960051 599 l 2,17,18
 539.486960051 596.624677619 539.486960051 596.624677619 527.318759776 425.255857086 c 0,19,20
 525.56215092 400.516949022 525.56215092 400.516949022 507.060196383 382.014994486 c 128,-1,21
 488.558241847 363.513039949 488.558241847 363.513039949 461 363.513039949 c 2,22,-1
 360 363.513039949 l 2,23,24
 332.441758153 363.513039949 332.441758153 363.513039949 312.977399051 382.977399051 c 0,25,26
 305.180906621 390.773891481 305.180906621 390.773891481 300.502193017 400.003015414 c 1,27,28
 295.823372956 390.778171059 295.823372956 390.778171059 288.022600949 382.977399051 c 0,29,30
 268.558241847 363.513039949 268.558241847 363.513039949 241 363.513039949 c 2,31,-1
 140 363.513039949 l 2,32,33
 112.441758153 363.513039949 112.441758153 363.513039949 94.0184651777 381.936332925 c 128,-1,34
 75.5951722022 400.3596259 75.5951722022 400.3596259 73.7103012644 424.862948091 c 2,35,-1
 60.7103012644 593.862948091 l 2,0,1
EndSplineSet
EndChar

StartChar: numbersign
Encoding: 35 35 36
Width: 600
GlyphClass: 1
Flags: W
LayerCount: 2
Fore
SplineSet
10.3335071147 -1.51811172353 m 0,0,1
 10.3335071147 4.93982093051 10.3335071147 4.93982093051 11.5585109745 11.7854307351 c 2,2,-1
 31.5656495047 123.590028404 l 1,3,4
 6.21761317276 124.737184929 6.21761317276 124.737184929 -12.6346734391 143.589471541 c 128,-1,5
 -31.4869600509 162.441758153 -31.4869600509 162.441758153 -31.4869600509 190 c 2,6,-1
 -31.4869600509 275 l 2,7,8
 -31.4869600509 302.558241847 -31.4869600509 302.558241847 -12.0226009489 322.022600949 c 128,-1,9
 7.44175815313 341.486960051 7.44175815313 341.486960051 35 341.486960051 c 2,10,-1
 68.9778887464 341.486960051 l 1,11,-1
 77.0768247288 388.513039949 l 1,12,-1
 70 388.513039949 l 2,13,14
 42.4417581531 388.513039949 42.4417581531 388.513039949 22.9773990511 407.977399051 c 128,-1,15
 3.51303994906 427.441758153 3.51303994906 427.441758153 3.51303994906 455 c 2,16,-1
 3.51303994906 540 l 2,17,18
 3.51303994906 567.558241847 3.51303994906 567.558241847 22.9773990511 587.022600949 c 128,-1,19
 42.4417581531 606.486960051 42.4417581531 606.486960051 70 606.486960051 c 2,20,-1
 115.347205694 606.486960051 l 1,21,-1
 139.558510974 741.785430735 l 2,22,23
 143.224034004 762.269235902 143.224034004 762.269235902 157.977399051 777.022600949 c 0,24,25
 177.441758153 796.486960051 177.441758153 796.486960051 205 796.486960051 c 2,26,-1
 293 796.486960051 l 2,27,28
 320.558241847 796.486960051 320.558241847 796.486960051 340.022600949 777.022600949 c 128,-1,29
 359.666492885 757.378709013 359.666492885 757.378709013 359.666492885 731.518111724 c 0,30,31
 359.666492885 725.060179069 359.666492885 725.060179069 358.441489026 718.214569265 c 2,32,-1
 338.448127377 606.486960051 l 1,33,-1
 345.347205694 606.486960051 l 1,34,-1
 369.558510974 741.785430735 l 2,35,36
 373.224034004 762.269235902 373.224034004 762.269235902 387.977399051 777.022600949 c 0,37,38
 407.441758153 796.486960051 407.441758153 796.486960051 435 796.486960051 c 2,39,-1
 523 796.486960051 l 2,40,41
 550.558241847 796.486960051 550.558241847 796.486960051 570.022600949 777.022600949 c 128,-1,42
 589.666492885 757.378709013 589.666492885 757.378709013 589.666492885 731.518111724 c 0,43,44
 589.666492885 725.060179069 589.666492885 725.060179069 588.441489026 718.214569265 c 2,45,-1
 568.434350495 606.409971596 l 1,46,47
 593.782386827 605.262815071 593.782386827 605.262815071 612.634673439 586.410528459 c 128,-1,48
 631.486960051 567.558241847 631.486960051 567.558241847 631.486960051 540 c 2,49,-1
 631.486960051 455 l 2,50,51
 631.486960051 427.441758153 631.486960051 427.441758153 612.022600949 407.977399051 c 128,-1,52
 592.558241847 388.513039949 592.558241847 388.513039949 565 388.513039949 c 2,53,-1
 530.022111254 388.513039949 l 1,54,-1
 521.923175271 341.486960051 l 1,55,-1
 530 341.486960051 l 2,56,57
 557.558241847 341.486960051 557.558241847 341.486960051 577.022600949 322.022600949 c 128,-1,58
 596.486960051 302.558241847 596.486960051 302.558241847 596.486960051 275 c 2,59,-1
 596.486960051 190 l 2,60,61
 596.486960051 162.441758153 596.486960051 162.441758153 577.022600949 142.977399051 c 128,-1,62
 557.558241847 123.513039949 557.558241847 123.513039949 530 123.513039949 c 2,63,-1
 483.941579534 123.513039949 l 1,64,-1
 460.500640929 -11.4499399016 l 2,65,66
 456.907504016 -32.1376978813 456.907504016 -32.1376978813 442.022600949 -47.0226009489 c 0,67,68
 423 -66 423 -66 395 -66.4869600509 c 2,69,-1
 307 -66.4869600509 l 2,70,71
 279.441758153 -66.4869600509 279.441758153 -66.4869600509 259.977399051 -47.0226009489 c 128,-1,72
 240.333507115 -27.3787090125 240.333507115 -27.3787090125 240.333507115 -1.51811172353 c 0,73,74
 240.333507115 4.93982093051 240.333507115 4.93982093051 241.558510974 11.7854307351 c 2,75,-1
 261.551872623 123.513039949 l 1,76,-1
 253.941579534 123.513039949 l 1,77,-1
 230.500640929 -11.4499399016 l 2,78,79
 226.907504016 -32.1376978813 226.907504016 -32.1376978813 212.022600949 -47.0226009489 c 0,80,81
 193 -66 193 -66 165 -66.4869600509 c 2,82,-1
 77 -66.4869600509 l 2,83,84
 49.4417581531 -66.4869600509 49.4417581531 -66.4869600509 29.9773990511 -47.0226009489 c 128,-1,85
 10.3335071147 -27.3787090125 10.3335071147 -27.3787090125 10.3335071147 -1.51811172353 c 0,0,1
EndSplineSet
EndChar

StartChar: dollar
Encoding: 36 36 37
Width: 600
GlyphClass: 1
Flags: W
LayerCount: 2
Fore
SplineSet
397.486960051 -140 m 2,0,1
 397.486960051 -167.558241847 397.486960051 -167.558241847 378.022600949 -187.022600949 c 128,-1,2
 358.558241847 -206.486960051 358.558241847 -206.486960051 331 -206.486960051 c 2,3,-1
 269 -206.486960051 l 2,4,5
 241.441758153 -206.486960051 241.441758153 -206.486960051 221.977399051 -187.022600949 c 128,-1,6
 202.513039949 -167.558241847 202.513039949 -167.558241847 202.513039949 -140 c 2,7,-1
 202.513039949 -64.7657264981 l 1,8,9
 119.336389159 -44.9466750422 119.336389159 -44.9466750422 64.364278362 10.020687338 c 0,10,11
 -8.20250689895 82.5874725989 -8.20250689895 82.5874725989 -9.48263478714 195.238726759 c 0,12,13
 -9.4876744711 195.682218947 -9.4876744711 195.682218947 -9.4876744711 196.12364794 c 0,14,15
 -9.4876744711 223.557527427 -9.4876744711 223.557527427 9.97739905109 243.022600949 c 128,-1,16
 29.4417581531 262.486960051 29.4417581531 262.486960051 57 262.486960051 c 2,17,-1
 182 262.486960051 l 2,18,19
 192.888264066 262.486960051 192.888264066 262.486960051 202.513039949 259.448494029 c 1,20,-1
 202.513039949 264.160278839 l 1,21,22
 117.952743188 293.463426451 117.952743188 293.463426451 66.9253360622 356.013151315 c 0,23,24
 5.51303994906 431.292740099 5.51303994906 431.292740099 5.51303994906 536 c 0,25,26
 5.51303994906 650.085460455 5.51303994906 650.085460455 79.8710302265 724.442859343 c 0,27,28
 129.960335285 774.532164402 129.960335285 774.532164402 202.513039949 793.817742432 c 1,29,-1
 202.513039949 870 l 2,30,31
 202.513039949 897.558241847 202.513039949 897.558241847 221.977399051 917.022600949 c 128,-1,32
 241.441758153 936.486960051 241.441758153 936.486960051 269 936.486960051 c 2,33,-1
 331 936.486960051 l 2,34,35
 358.558241847 936.486960051 358.558241847 936.486960051 378.022600949 917.022600949 c 128,-1,36
 397.486960051 897.558241847 397.486960051 897.558241847 397.486960051 870 c 2,37,-1
 397.486960051 795.160227563 l 1,38,39
 473.252080921 775.793120977 473.252080921 775.793120977 524.522600949 724.522600949 c 0,40,41
 597.163577216 651.881624682 597.163577216 651.881624682 598.482324122 539.788137721 c 0,42,43
 598.487725852 539.328990657 598.487725852 539.328990657 598.487725852 538.872053781 c 0,44,45
 598.487725852 511.442523954 598.487725852 511.442523954 579.022600949 491.977399051 c 128,-1,46
 559.558241847 472.513039949 559.558241847 472.513039949 532 472.513039949 c 2,47,-1
 410.825655107 472.513039949 l 1,48,49
 497.413550994 443.326092398 497.413550994 443.326092398 548.615902871 380.436247157 c 0,50,51
 609.486960051 305.670709534 609.486960051 305.670709534 609.486960051 199 c 0,52,53
 609.486960051 84.098492558 609.486960051 84.098492558 532.100570867 8.05905358495 c 0,54,55
 477.282912931 -45.8052537784 477.282912931 -45.8052537784 397.486960051 -65.4915538074 c 1,56,-1
 397.486960051 -140 l 2,0,1
EndSplineSet
EndChar

StartChar: percent
Encoding: 37 37 38
Width: 600
GlyphClass: 1
Flags: W
LayerCount: 2
Fore
SplineSet
599.383729334 -10.4659838422 m 0,0,1
 538.362753125 -71.4869600509 538.362753125 -71.4869600509 441.884129344 -71.4869600509 c 0,2,3
 346.199333911 -71.4869600509 346.199333911 -71.4869600509 285.717068473 -11.0046946128 c 0,4,5
 243.577055644 31.1353182153 243.577055644 31.1353182153 233.522974962 92.0653145715 c 1,6,-1
 141.345742583 -38.3404599185 l 2,7,8
 138.068902916 -42.9762989817 138.068902916 -42.9762989817 134.022600949 -47.0226009489 c 0,9,10
 114.558241847 -66.4869600509 114.558241847 -66.4869600509 87 -66.4869600509 c 2,11,-1
 -3 -66.4869600509 l 2,12,13
 -30.5582418469 -66.4869600509 -30.5582418469 -66.4869600509 -48.9363628136 -48.1088390842 c 0,14,15
 -69.513811964 -27.5313899338 -69.513811964 -27.5313899338 -69.513811964 0.582311564566 c 0,16,17
 -69.513811964 21.3940096599 -69.513811964 21.3940096599 -57.3457425827 38.3404599185 c 2,18,-1
 151.350306076 333.588745811 l 1,19,20
 67.8651921001 335.501210675 67.8651921001 335.501210675 9.96723663677 385.725943125 c 0,21,22
 -54.4869600509 441.638017361 -54.4869600509 441.638017361 -54.4869600509 535 c 2,23,-1
 -54.4869600509 600 l 2,24,25
 -54.4869600509 693.361982639 -54.4869600509 693.361982639 9.96723663677 749.274056875 c 0,26,27
 70.1571111317 801.486960051 70.1571111317 801.486960051 158.113504236 801.486960051 c 0,28,29
 253.925888906 801.486960051 253.925888906 801.486960051 314.830343163 740.582505793 c 0,30,31
 356.850634056 698.562214901 356.850634056 698.562214901 366.565507101 638.05986354 c 1,32,-1
 458.654257417 768.340459919 l 2,33,34
 461.931097084 772.976298982 461.931097084 772.976298982 465.977399051 777.022600949 c 0,35,36
 485.441758153 796.486960051 485.441758153 796.486960051 513 796.486960051 c 2,37,-1
 603 796.486960051 l 2,38,39
 630.558241847 796.486960051 630.558241847 796.486960051 648.936362814 778.108839084 c 0,40,41
 669.513811964 757.531389934 669.513811964 757.531389934 669.513811964 729.417688435 c 0,42,43
 669.513811964 708.60599034 669.513811964 708.60599034 657.345742583 691.659540081 c 2,44,-1
 448.650370726 396.41221168 l 1,45,46
 540.51550251 394.334210666 540.51550251 394.334210666 599.383729334 335.465983842 c 0,47,48
 654.486960051 280.362753125 654.486960051 280.362753125 654.486960051 195 c 2,49,-1
 654.486960051 130 l 2,50,51
 654.486960051 44.6372468749 654.486960051 44.6372468749 599.383729334 -10.4659838422 c 0,0,1
432.264078529 125.829841764 m 129,-1,52
 432.29045292 125.846841087 432.29045292 125.846841087 432.264078529 125.829841764 c 129,-1,52
EndSplineSet
EndChar

StartChar: ampersand
Encoding: 38 38 39
Width: 600
GlyphClass: 1
Flags: W
LayerCount: 2
Fore
SplineSet
640.512652506 0.574329326453 m 0,0,1
 640.512652506 21.482443855 640.512652506 21.482443855 628.246749694 38.4815519256 c 2,2,-1
 557.828720593 137.191286954 l 2,3,4
 547.92034153 151.080711176 547.92034153 151.080711176 547.92034153 164.221968914 c 128,-1,5
 547.92034153 177.363226652 547.92034153 177.363226652 554.326111794 189.51623005 c 2,6,-1
 627.723432506 328.765352522 l 2,7,8
 635.552143603 343.316087683 635.552143603 343.316087683 635.552143603 359.324101757 c 0,9,10
 635.552143603 387.493058294 635.552143603 387.493058294 616.022600949 407.022600949 c 128,-1,11
 596.558241847 426.486960051 596.558241847 426.486960051 569 426.486960051 c 2,12,-1
 568.224216974 426.486960051 l 2,13,14
 547.503734382 426.486960051 547.503734382 426.486960051 532.868877915 441.121816519 c 128,-1,15
 518.233924657 455.756769777 518.233924657 455.756769777 518.233924657 476.33312902 c 128,-1,16
 518.233924657 496.909488264 518.233924657 496.909488264 532.497509886 511.457258208 c 0,17,18
 551.486960051 530.844552773 551.486960051 530.844552773 551.486960051 558 c 0,19,20
 551.486960051 664.289670418 551.486960051 664.289670418 483.434062173 732.342568296 c 0,21,22
 409.289670418 806.486960051 409.289670418 806.486960051 288.824967893 806.486960051 c 0,23,24
 165.972786274 806.486960051 165.972786274 806.486960051 92.5935703122 733.107744089 c 0,25,26
 28.5130399491 669.027213726 28.5130399491 669.027213726 28.5130399491 568.581955589 c 0,27,28
 28.5130399491 526.223175016 28.5130399491 526.223175016 43.5744752445 481.858818885 c 0,29,30
 46.6462863616 472.810615996 46.6462863616 472.810615996 46.6462863616 464.405823567 c 0,31,32
 46.6462863616 446.91930969 46.6462863616 446.91930969 34.6648056706 433.672154183 c 0,33,34
 -22.8763951442 370.052535298 -22.8763951442 370.052535298 -23.4869600509 271 c 2,35,-1
 -23.4869600509 178 l 2,36,37
 -23.4869600509 62.4417581531 -23.4869600509 62.4417581531 45.9773990511 -7.02260094891 c 128,-1,38
 115.441758153 -76.4869600509 115.441758153 -76.4869600509 233 -76.4869600509 c 0,39,40
 300.377527471 -76.4869600509 300.377527471 -76.4869600509 358.313564668 -48.7269001009 c 0,41,42
 369.746329377 -43.2488893655 369.746329377 -43.2488893655 382.663374988 -43.2488893655 c 128,-1,43
 395.580420598 -43.2488893655 395.580420598 -43.2488893655 411.38112386 -54.8679247082 c 128,-1,44
 427.181827122 -66.4869600509 427.181827122 -66.4869600509 449 -66.4869600509 c 2,45,-1
 569.56091 -66.4869600509 l 2,46,47
 571.959579349 -66.2464629072 571.959579349 -66.2464629072 574.007055225 -66.2464629072 c 128,-1,48
 576.0545311 -66.2464629072 576.0545311 -66.2464629072 577.778483959 -66.3512366443 c 0,49,50
 603.039351321 -64.952835414 603.039351321 -64.952835414 621.776001914 -46.2215604667 c 128,-1,51
 640.512652506 -27.4902855195 640.512652506 -27.4902855195 640.512652506 0.574329326453 c 0,0,1
EndSplineSet
EndChar

StartChar: quotesingle
Encoding: 39 39 40
Width: 600
GlyphClass: 1
Flags: W
LayerCount: 2
Fore
SplineSet
234 796.486960051 m 2,0,-1
 361 796.486960051 l 2,1,2
 388.558241847 796.486960051 388.558241847 796.486960051 408.022600949 777.022600949 c 128,-1,3
 427.486960051 757.558241847 427.486960051 757.558241847 427.486960051 730 c 2,4,-1
 427.486960051 574 l 2,5,6
 427.486960051 571.213733354 427.486960051 571.213733354 415.255644983 424.437952533 c 0,7,8
 413.234962305 400.189760408 413.234962305 400.189760408 394.896602076 381.851400178 c 128,-1,9
 376.558241847 363.513039949 376.558241847 363.513039949 349 363.513039949 c 2,10,-1
 247 363.513039949 l 2,11,12
 219.441758153 363.513039949 219.441758153 363.513039949 201.195070928 381.759727174 c 128,-1,13
 182.948383703 400.0064144 182.948383703 400.0064144 180.784248649 423.97837192 c 0,14,15
 167.513039949 570.982529824 167.513039949 570.982529824 167.513039949 574 c 2,16,-1
 167.513039949 730 l 2,17,18
 167.513039949 757.558241847 167.513039949 757.558241847 186.977399051 777.022600949 c 128,-1,19
 206.441758153 796.486960051 206.441758153 796.486960051 234 796.486960051 c 2,0,-1
EndSplineSet
EndChar

StartChar: parenleft
Encoding: 40 40 41
Width: 600
GlyphClass: 1
Flags: W
LayerCount: 2
Fore
SplineSet
100.513039949 269 m 2,0,-1
 100.513039949 450 l 2,1,2
 100.513039949 561.484805024 100.513039949 561.484805024 145.791667034 653.806161549 c 128,-1,3
 190.999933014 745.98405452 190.999933014 745.98405452 273.417064279 810.408713467 c 128,-1,4
 355.834195545 874.833372414 355.834195545 874.833372414 468.027808239 904.298361606 c 0,5,6
 477.822289005 906.870649484 477.822289005 906.870649484 486.915510232 906.870649484 c 0,7,8
 512.174552413 906.870649484 512.174552413 906.870649484 531.830756232 887.214445666 c 128,-1,9
 551.486960051 867.558241847 551.486960051 867.558241847 551.486960051 840 c 2,10,-1
 551.486960051 717 l 2,11,12
 551.486960051 689.441758153 551.486960051 689.441758153 532.022600949 669.977399051 c 0,13,14
 518.931943637 656.886741739 518.931943637 656.886741739 501.038091936 652.463542442 c 0,15,16
 435.569783777 636.280365144 435.569783777 636.280365144 397.528371914 583.834923547 c 128,-1,17
 359.486960051 531.38948195 359.486960051 531.38948195 359.486960051 450 c 2,18,-1
 359.486960051 269 l 2,19,20
 359.486960051 190.61051805 359.486960051 190.61051805 398.374139485 136.999066791 c 0,21,22
 435.335026241 86.043281167 435.335026241 86.043281167 500.351309876 70.7023603092 c 0,23,24
 518.663755794 66.3814461039 518.663755794 66.3814461039 532.022600949 53.0226009489 c 0,25,26
 551.486960051 33.5582418469 551.486960051 33.5582418469 551.486960051 6 c 2,27,-1
 551.486960051 -120 l 2,28,29
 551.486960051 -147.558241847 551.486960051 -147.558241847 531.829993779 -167.215208119 c 128,-1,30
 512.173027506 -186.872174392 512.173027506 -186.872174392 486.917429895 -186.872174392 c 0,31,32
 477.808264522 -186.872174392 477.808264522 -186.872174392 467.995832768 -184.289955509 c 0,33,34
 295.184920064 -138.813399534 295.184920064 -138.813399534 197.848980007 -19.7820993433 c 128,-1,35
 100.513039949 99.2492008476 100.513039949 99.2492008476 100.513039949 269 c 2,0,-1
EndSplineSet
EndChar

StartChar: parenright
Encoding: 41 41 42
Width: 600
GlyphClass: 1
Flags: W
LayerCount: 2
Fore
SplineSet
48.5130399491 -120 m 2,0,-1
 48.5130399491 6 l 2,1,2
 48.5130399491 33.5582418469 48.5130399491 33.5582418469 67.9773990511 53.0226009489 c 0,3,4
 81.3362442061 66.3814461039 81.3362442061 66.3814461039 99.6486901241 70.7023603092 c 0,5,6
 164.664973759 86.043281167 164.664973759 86.043281167 202.589006854 138.326899609 c 128,-1,7
 240.513039949 190.61051805 240.513039949 190.61051805 240.513039949 269 c 2,8,-1
 240.513039949 450 l 2,9,10
 240.513039949 549.33771191 240.513039949 549.33771191 183.351985573 606.498766287 c 0,11,12
 150.004472548 639.846279311 150.004472548 639.846279311 98.9619080638 652.463542442 c 0,13,14
 81.0680563631 656.886741739 81.0680563631 656.886741739 67.9773990511 669.977399051 c 0,15,16
 48.5130399491 689.441758153 48.5130399491 689.441758153 48.5130399491 717 c 2,17,-1
 48.5130399491 840 l 2,18,19
 48.5130399491 867.558241847 48.5130399491 867.558241847 68.1692437678 887.214445666 c 128,-1,20
 87.8254475865 906.870649484 87.8254475865 906.870649484 113.084489768 906.870649484 c 0,21,22
 122.177710995 906.870649484 122.177710995 906.870649484 131.972191761 904.298361606 c 0,23,24
 275.187866536 866.686164191 275.187866536 866.686164191 369.145358842 772.728671885 c 0,25,26
 421.618529362 720.255501365 421.618529362 720.255501365 454.208332966 653.806161549 c 0,27,28
 499.486960051 561.484805024 499.486960051 561.484805024 499.486960051 450 c 2,29,-1
 499.486960051 269 l 2,30,31
 499.486960051 74.3191527891 499.486960051 74.3191527891 372.103368994 -53.0644382678 c 0,32,33
 279.76131051 -145.406496751 279.76131051 -145.406496751 132.004167232 -184.289955509 c 0,34,35
 122.191735478 -186.872174392 122.191735478 -186.872174392 113.082570105 -186.872174392 c 0,36,37
 87.8269724938 -186.872174392 87.8269724938 -186.872174392 68.1700062214 -167.215208119 c 128,-1,38
 48.5130399491 -147.558241847 48.5130399491 -147.558241847 48.5130399491 -120 c 2,0,-1
EndSplineSet
EndChar

StartChar: asterisk
Encoding: 42 42 43
Width: 600
GlyphClass: 1
Flags: W
LayerCount: 2
Fore
SplineSet
31.4840115506 151.596166865 m 0,0,1
 31.4840115506 172.10895366 31.4840115506 172.10895366 43.3502761822 188.906737641 c 0,2,3
 84.5945033054 248.258186428 84.5945033054 248.258186428 89.959048057 255.768553295 c 128,-1,4
 95.3235928086 263.278920161 95.3235928086 263.278920161 108.330347989 277.901125548 c 1,5,6
 89.9739698475 282.408547746 89.9739698475 282.408547746 73.6713184756 288.710980653 c 2,7,-1
 7.50670394568 312.411738097 l 2,8,9
 -6.45990405406 317.414702156 -6.45990405406 317.414702156 -17.0226009489 327.977399051 c 0,10,11
 -36.584636026 347.539434128 -36.584636026 347.539434128 -36.584636026 375.513546902 c 0,12,13
 -36.584636026 387.122328038 -36.584636026 387.122328038 -32.3943400908 398.027429307 c 2,14,-1
 6.60565990925 504.027429307 l 2,15,16
 11.6252698721 517.67047177 11.6252698721 517.67047177 21.9773990511 528.022600949 c 0,17,18
 42.1622586024 548.2074605 42.1622586024 548.2074605 66.8469757001 548.2074605 c 0,19,20
 78.7927334442 548.2074605 78.7927334442 548.2074605 91.7923195028 543.480338297 c 2,21,-1
 157.792319503 519.480338297 l 2,22,23
 167.849302224 515.708969777 167.849302224 515.708969777 178.705149022 510.845061072 c 1,24,25
 177.513039949 524.824974256 177.513039949 524.824974256 177.513039949 538 c 2,26,-1
 177.513039949 610 l 2,27,28
 177.513039949 637.558241847 177.513039949 637.558241847 196.977399051 657.022600949 c 128,-1,29
 216.441758153 676.486960051 216.441758153 676.486960051 244 676.486960051 c 2,30,-1
 356 676.486960051 l 2,31,32
 383.558241847 676.486960051 383.558241847 676.486960051 403.022600949 657.022600949 c 128,-1,33
 422.486960051 637.558241847 422.486960051 637.558241847 422.486960051 610 c 2,34,-1
 422.486960051 538 l 2,35,36
 422.486960051 525.045965484 422.486960051 525.045965484 421.334507249 511.313818623 c 1,37,38
 432.893558449 516.503048265 432.893558449 516.503048265 441.506703946 519.588261903 c 2,39,-1
 508.506703946 543.588261903 l 2,40,41
 521.345107726 548.187093108 521.345107726 548.187093108 533.146460717 548.187093108 c 0,42,43
 557.85810879 548.187093108 557.85810879 548.187093108 578.022600949 528.022600949 c 0,44,45
 588.374730128 517.67047177 588.374730128 517.67047177 593.394340091 504.027429307 c 2,46,-1
 632.394340091 398.027429307 l 2,47,48
 636.584636026 387.122328038 636.584636026 387.122328038 636.584636026 377.817128999 c 0,49,50
 636.584636026 347.539434128 636.584636026 347.539434128 617.022600949 327.977399051 c 0,51,52
 606.345013678 317.29981178 606.345013678 317.29981178 592.201523527 312.307991727 c 2,53,-1
 524.679767055 288.47678356 l 2,54,55
 508.420662861 282.473299317 508.420662861 282.473299317 490.45619325 277.982891034 c 1,56,57
 504.864082006 261.988852588 504.864082006 261.988852588 514.649723818 247.906737641 c 2,58,-1
 555.649723818 188.906737641 l 2,59,60
 567.515988449 172.10895366 567.515988449 172.10895366 567.515988449 151.596166865 c 0,61,62
 567.515988449 123.470786552 567.515988449 123.470786552 548.022600949 103.977399051 c 0,63,64
 543.798280691 99.7530787932 543.798280691 99.7530787932 538.933724697 96.3690398411 c 2,65,-1
 446.933724697 32.3690398411 l 2,66,67
 430.126639205 20.4841480165 430.126639205 20.4841480165 409.595339408 20.4841480165 c 0,68,69
 381.470650086 20.4841480165 381.470650086 20.4841480165 361.977399051 39.9773990511 c 0,70,71
 357.74129607 44.2135020319 357.74129607 44.2135020319 354.350276182 49.0932623587 c 2,72,-1
 313.577824643 107.765814573 l 2,73,74
 306.428817438 117.809895301 306.428817438 117.809895301 299.810672319 129.019097095 c 1,75,76
 292.714803797 117.399738435 292.714803797 117.399738435 284.884166428 106.991606602 c 2,77,-1
 244.649723818 49.0932623587 l 2,78,79
 241.25870393 44.2135020319 241.25870393 44.2135020319 237.022600949 39.9773990511 c 0,80,81
 217.529349914 20.4841480165 217.529349914 20.4841480165 189.404660592 20.4841480165 c 0,82,83
 168.873360795 20.4841480165 168.873360795 20.4841480165 152.066275303 32.3690398411 c 2,84,-1
 60.0662753026 96.3690398411 l 2,85,86
 55.201719309 99.7530787932 55.201719309 99.7530787932 50.9773990511 103.977399051 c 0,87,88
 31.4840115506 123.470786552 31.4840115506 123.470786552 31.4840115506 151.596166865 c 0,0,1
EndSplineSet
EndChar

StartChar: plus
Encoding: 43 43 44
Width: 600
GlyphClass: 1
Flags: W
LayerCount: 2
Fore
SplineSet
428.486960051 92 m 2,0,1
 428.486960051 64.4417581531 428.486960051 64.4417581531 409.022600949 44.9773990511 c 128,-1,2
 389.558241847 25.5130399491 389.558241847 25.5130399491 362 25.5130399491 c 2,3,-1
 238 25.5130399491 l 2,4,5
 210.441758153 25.5130399491 210.441758153 25.5130399491 190.977399051 44.9773990511 c 128,-1,6
 171.513039949 64.4417581531 171.513039949 64.4417581531 171.513039949 92 c 2,7,-1
 171.513039949 205.513039949 l 1,8,-1
 59 205.513039949 l 2,9,10
 31.4417581531 205.513039949 31.4417581531 205.513039949 11.9773990511 224.977399051 c 128,-1,11
 -7.48696005094 244.441758153 -7.48696005094 244.441758153 -7.48696005094 272 c 2,12,-1
 -7.48696005094 388 l 2,13,14
 -7.48696005094 415.558241847 -7.48696005094 415.558241847 11.9773990511 435.022600949 c 128,-1,15
 31.4417581531 454.486960051 31.4417581531 454.486960051 59 454.486960051 c 2,16,-1
 171.513039949 454.486960051 l 1,17,-1
 171.513039949 568 l 2,18,19
 171.513039949 595.558241847 171.513039949 595.558241847 190.977399051 615.022600949 c 128,-1,20
 210.441758153 634.486960051 210.441758153 634.486960051 238 634.486960051 c 2,21,-1
 362 634.486960051 l 2,22,23
 389.558241847 634.486960051 389.558241847 634.486960051 409.022600949 615.022600949 c 128,-1,24
 428.486960051 595.558241847 428.486960051 595.558241847 428.486960051 568 c 2,25,-1
 428.486960051 454.486960051 l 1,26,-1
 541 454.486960051 l 2,27,28
 568.558241847 454.486960051 568.558241847 454.486960051 588.022600949 435.022600949 c 128,-1,29
 607.486960051 415.558241847 607.486960051 415.558241847 607.486960051 388 c 2,30,-1
 607.486960051 272 l 2,31,32
 607.486960051 244.441758153 607.486960051 244.441758153 588.022600949 224.977399051 c 128,-1,33
 568.558241847 205.513039949 568.558241847 205.513039949 541 205.513039949 c 2,34,-1
 428.486960051 205.513039949 l 1,35,-1
 428.486960051 92 l 2,0,1
EndSplineSet
EndChar

StartChar: comma
Encoding: 44 44 45
Width: 600
GlyphClass: 1
Flags: W
LayerCount: 2
Fore
SplineSet
437.022600949 198.022600949 m 128,-1,1
 456.575943898 178.469258 456.575943898 178.469258 456.575943898 147.056376803 c 0,2,3
 456.575943898 137.35155217 456.575943898 137.35155217 451.345797708 125.302791278 c 2,4,-1
 321.345797708 -185.697208722 l 2,5,6
 316.316596543 -197.728605354 316.316596543 -197.728605354 307.022600949 -207.022600949 c 0,7,8
 288 -226 288 -226 260 -226.486960051 c 2,9,-1
 150 -226.486960051 l 2,10,11
 122.441758153 -226.486960051 122.441758153 -226.486960051 102.793208251 -206.838410149 c 128,-1,12
 83.1446583491 -187.189860247 83.1446583491 -187.189860247 83.1446583491 -161.895622182 c 0,13,14
 83.1446583491 -152.964664314 83.1446583491 -152.964664314 85.6171544277 -143.352835809 c 2,15,-1
 165.617154428 167.647164191 l 2,16,17
 170.124580275 185.169782173 170.124580275 185.169782173 182.977399051 198.022600949 c 0,18,19
 202 217 202 217 230 217.486960051 c 2,20,-1
 390 217.486960051 l 2,21,0
 417.558241847 217.486960051 417.558241847 217.486960051 437.022600949 198.022600949 c 128,-1,1
EndSplineSet
EndChar

StartChar: hyphen
Encoding: 45 45 46
Width: 600
GlyphClass: 1
Flags: W
LayerCount: 2
Fore
SplineSet
73.5130399491 272 m 2,0,-1
 73.5130399491 388 l 2,1,2
 73.5130399491 415.558241847 73.5130399491 415.558241847 92.9773990511 435.022600949 c 128,-1,3
 112.441758153 454.486960051 112.441758153 454.486960051 140 454.486960051 c 2,4,-1
 460 454.486960051 l 2,5,6
 487.558241847 454.486960051 487.558241847 454.486960051 507.022600949 435.022600949 c 128,-1,7
 526.486960051 415.558241847 526.486960051 415.558241847 526.486960051 388 c 2,8,-1
 526.486960051 272 l 2,9,10
 526.486960051 244.441758153 526.486960051 244.441758153 507.022600949 224.977399051 c 128,-1,11
 487.558241847 205.513039949 487.558241847 205.513039949 460 205.513039949 c 2,12,-1
 140 205.513039949 l 2,13,14
 112.441758153 205.513039949 112.441758153 205.513039949 92.9773990511 224.977399051 c 128,-1,15
 73.5130399491 244.441758153 73.5130399491 244.441758153 73.5130399491 272 c 2,0,-1
EndSplineSet
EndChar

StartChar: period
Encoding: 46 46 47
Width: 600
GlyphClass: 1
Flags: W
LayerCount: 2
Fore
SplineSet
184.22502361 -31.7754745121 m 128,-1,1
 139.513039949 12.9360110267 139.513039949 12.9360110267 139.513039949 83.2471264368 c 128,-1,2
 139.513039949 153.558241847 139.513039949 153.558241847 184.477399051 198.522600949 c 128,-1,3
 229.441758153 243.486960051 229.441758153 243.486960051 300 243.486960051 c 128,-1,4
 370.558241847 243.486960051 370.558241847 243.486960051 415.522600949 198.522600949 c 128,-1,5
 460.486960051 153.558241847 460.486960051 153.558241847 460.486960051 83.2471264368 c 0,6,7
 460.486960051 12.0544756974 460.486960051 12.0544756974 415.330329308 -32.2162421768 c 128,-1,8
 370.173698564 -76.4869600509 370.173698564 -76.4869600509 299.555352918 -76.4869600509 c 128,-1,0
 228.937007271 -76.4869600509 228.937007271 -76.4869600509 184.22502361 -31.7754745121 c 128,-1,1
EndSplineSet
EndChar

StartChar: slash
Encoding: 47 47 48
Width: 600
GlyphClass: 1
Flags: W
LayerCount: 2
Fore
SplineSet
410 896.486960051 m 2,0,-1
 540 896.486960051 l 2,1,2
 567.558241847 896.486960051 567.558241847 896.486960051 587.022600949 877.022600949 c 128,-1,3
 606.583962843 857.461239055 606.583962843 857.461239055 606.583962843 829.478430801 c 0,4,5
 606.583962843 817.74098037 606.583962843 817.74098037 602.305119827 806.731520079 c 2,6,-1
 252.305119827 -133.268479921 l 2,7,8
 247.279593128 -146.765608769 247.279593128 -146.765608769 237.022600949 -157.022600949 c 0,9,10
 217.558241847 -176.486960051 217.558241847 -176.486960051 190 -176.486960051 c 2,11,-1
 60 -176.486960051 l 2,12,13
 32.4417581531 -176.486960051 32.4417581531 -176.486960051 12.9773990511 -157.022600949 c 128,-1,14
 -6.58396284308 -137.461239055 -6.58396284308 -137.461239055 -6.58396284308 -109.478430801 c 0,15,16
 -6.58396284308 -97.7409803703 -6.58396284308 -97.7409803703 -2.3051198273 -86.7315200791 c 2,17,-1
 347.694880173 853.268479921 l 2,18,19
 352.720406872 866.765608769 352.720406872 866.765608769 362.977399051 877.022600949 c 0,20,21
 382.441758153 896.486960051 382.441758153 896.486960051 410 896.486960051 c 2,0,-1
EndSplineSet
EndChar

StartChar: zero
Encoding: 48 48 49
Width: 600
GlyphClass: 1
Flags: W
LayerCount: 2
Fore
SplineSet
300 -76.4869600509 m 128,-1,1
 212.71131629 -76.4869600509 212.71131629 -76.4869600509 146.343227889 -42.0266064582 c 0,2,3
 108.699206794 -22.4806724278 108.699206794 -22.4806724278 82.4340915293 3.78444283664 c 0,4,5
 1.51303994906 84.7054944169 1.51303994906 84.7054944169 1.51303994906 208 c 2,6,-1
 1.51303994906 522 l 2,7,8
 1.51303994906 605.980586479 1.51303994906 605.980586479 38.9953386757 670.423836921 c 0,9,10
 56.1689762648 699.950441899 56.1689762648 699.950441899 82.4340915293 726.215557163 c 128,-1,11
 108.699206794 752.480672428 108.699206794 752.480672428 146.343227889 772.026606458 c 0,12,13
 212.71131629 806.486960051 212.71131629 806.486960051 300 806.486960051 c 128,-1,14
 387.28868371 806.486960051 387.28868371 806.486960051 453.656772111 772.026606458 c 0,15,16
 491.300793206 752.480672428 491.300793206 752.480672428 517.565908471 726.215557163 c 0,17,18
 598.486960051 645.294505583 598.486960051 645.294505583 598.486960051 522 c 2,19,-1
 598.486960051 208 l 2,20,21
 598.486960051 124.019413521 598.486960051 124.019413521 561.004661324 59.5761630789 c 0,22,23
 543.831023735 30.0495581011 543.831023735 30.0495581011 517.565908471 3.78444283664 c 128,-1,24
 491.300793206 -22.4806724278 491.300793206 -22.4806724278 453.656772111 -42.0266064582 c 0,25,0
 387.28868371 -76.4869600509 387.28868371 -76.4869600509 300 -76.4869600509 c 128,-1,1
EndSplineSet
EndChar

StartChar: one
Encoding: 49 49 50
Width: 600
GlyphClass: 1
Flags: W
LayerCount: 2
Fore
SplineSet
17.5130399491 3.5527136788e-15 m 2,0,-1
 17.5130399491 113 l 2,1,2
 17.5130399491 140.558241847 17.5130399491 140.558241847 36.9773990511 160.022600949 c 128,-1,3
 56.4417581531 179.486960051 56.4417581531 179.486960051 84 179.486960051 c 2,4,-1
 207.513039949 179.486960051 l 1,5,-1
 207.513039949 486.69598236 l 1,6,-1
 122.627454432 423.587327159 l 2,7,8
 105.250585873 410.492396058 105.250585873 410.492396058 83.5339676818 410.492396058 c 0,9,10
 55.4624020439 410.492396058 55.4624020439 410.492396058 35.9773990511 429.977399051 c 128,-1,11
 16.5130399491 449.441758153 16.5130399491 449.441758153 16.5130399491 477 c 2,12,-1
 16.5130399491 609 l 2,13,14
 16.5130399491 636.558241847 16.5130399491 636.558241847 35.9773990511 656.022600949 c 0,15,16
 39.8133188674 659.858520765 39.8133188674 659.858520765 44.1812988555 663.004506352 c 2,17,-1
 212.181298856 784.004506352 l 2,18,19
 230 796 230 796 251 796.486960051 c 2,20,-1
 399 796.486960051 l 2,21,22
 426.558241847 796.486960051 426.558241847 796.486960051 446.022600949 777.022600949 c 128,-1,23
 465.486960051 757.558241847 465.486960051 757.558241847 465.486960051 730 c 2,24,-1
 465.486960051 179.486960051 l 1,25,-1
 552 179.486960051 l 2,26,27
 579.558241847 179.486960051 579.558241847 179.486960051 599.022600949 160.022600949 c 128,-1,28
 618.486960051 140.558241847 618.486960051 140.558241847 618.486960051 113 c 2,29,-1
 618.486960051 -3.5527136788e-15 l 2,30,31
 618.486960051 -27.5582418469 618.486960051 -27.5582418469 599.243480025 -46.7791209234 c 128,-1,32
 580 -66 580 -66 552 -66.4869600509 c 2,33,-1
 84 -66.4869600509 l 2,34,35
 56.4417581531 -66.4869600509 56.4417581531 -66.4869600509 36.9773990511 -47.0226009489 c 128,-1,36
 17.5130399491 -27.5582418469 17.5130399491 -27.5582418469 17.5130399491 3.5527136788e-15 c 2,0,-1
EndSplineSet
EndChar

StartChar: two
Encoding: 50 50 51
Width: 600
GlyphClass: 1
Flags: W
LayerCount: 2
Fore
SplineSet
12.5130399491 3.5527136788e-15 m 2,0,-1
 12.5130399491 114 l 2,1,2
 12.5130399491 140.86462317 12.5130399491 140.86462317 31.1289045607 160.158798638 c 2,3,-1
 278.128904561 416.158798638 l 2,4,5
 309.451781278 449.133187709 309.451781278 449.133187709 321.982410614 472.839783749 c 128,-1,6
 334.513039949 496.546379789 334.513039949 496.546379789 334.513039949 516 c 0,7,8
 334.513039949 541.947719325 334.513039949 541.947719325 324.729924304 551.730379637 c 128,-1,9
 314.946808658 561.513039949 314.946808658 561.513039949 293.242909868 561.513039949 c 0,10,11
 271.212555894 561.513039949 271.212555894 561.513039949 260.849757973 550.800539598 c 128,-1,12
 250.486960051 540.088039247 250.486960051 540.088039247 250.486960051 512.7648987 c 128,-1,13
 250.486960051 485.441758153 250.486960051 485.441758153 231.022600949 465.977399051 c 128,-1,14
 211.558241847 446.513039949 211.558241847 446.513039949 184 446.513039949 c 2,15,-1
 59 446.513039949 l 2,16,17
 31.4417581531 446.513039949 31.4417581531 446.513039949 11.9773990511 465.977399051 c 128,-1,18
 -7.48808977777 485.44288788 -7.48808977777 485.44288788 -7.48808977777 512.845139114 c 0,19,20
 -7.48808977777 513.399440803 -7.48808977777 513.399440803 -7.48012478784 513.956990097 c 0,21,22
 -5.64968428487 642.087825305 -5.64968428487 642.087825305 74.6075765659 722.345086156 c 0,23,24
 103.236999419 750.974509009 103.236999419 750.974509009 140.19873732 770.68743589 c 0,25,26
 207.322845122 806.486960051 207.322845122 806.486960051 296 806.486960051 c 0,27,28
 433.252021751 806.486960051 433.252021751 806.486960051 515.789478997 723.949502806 c 0,29,30
 592.486960051 647.252021751 592.486960051 647.252021751 592.486960051 524 c 0,31,32
 592.486960051 449.631332641 592.486960051 449.631332641 556.934879033 381.540058828 c 128,-1,33
 521.382798016 313.448785014 521.382798016 313.448785014 449.576171262 240.537440926 c 2,34,-1
 389.929149717 179.486960051 l 1,35,-1
 535 179.486960051 l 2,36,37
 562.558241847 179.486960051 562.558241847 179.486960051 582.022600949 160.022600949 c 128,-1,38
 601.486960051 140.558241847 601.486960051 140.558241847 601.486960051 113 c 2,39,-1
 601.486960051 -3.5527136788e-15 l 2,40,41
 601.486960051 -27.5582418469 601.486960051 -27.5582418469 582.243480025 -46.7791209234 c 128,-1,42
 563 -66 563 -66 535 -66.4869600509 c 2,43,-1
 79 -66.4869600509 l 2,44,45
 51.4417581531 -66.4869600509 51.4417581531 -66.4869600509 31.9773990511 -47.0226009489 c 128,-1,46
 12.5130399491 -27.5582418469 12.5130399491 -27.5582418469 12.5130399491 3.5527136788e-15 c 2,0,-1
EndSplineSet
EndChar

StartChar: three
Encoding: 51 51 52
Width: 600
GlyphClass: 1
Flags: W
LayerCount: 2
Fore
SplineSet
292.884846861 -76.4869600509 m 128,-1,1
 379.488191655 -76.4869600509 379.488191655 -76.4869600509 449.28055986 -42.2491945164 c 0,2,3
 516.524721167 -9.26149274329 516.524721167 -9.26149274329 555.505840609 53.9148042837 c 128,-1,4
 594.486960051 117.091101311 594.486960051 117.091101311 594.486960051 200 c 2,5,-1
 594.486960051 255 l 2,6,7
 594.486960051 383.715869987 594.486960051 383.715869987 506.393804189 461.22079983 c 0,8,9
 489.400201234 476.171881919 489.400201234 476.171881919 489.400201234 497.712421655 c 128,-1,10
 489.400201234 519.25296139 489.400201234 519.25296139 503.704229914 533.81046551 c 2,11,-1
 549.462704144 580.421582117 l 2,12,13
 568.486960051 599.800327265 568.486960051 599.800327265 568.486960051 627 c 2,14,-1
 568.486960051 730 l 2,15,16
 568.486960051 757.558241847 568.486960051 757.558241847 549.022600949 777.022600949 c 128,-1,17
 529.558241847 796.486960051 529.558241847 796.486960051 502 796.486960051 c 2,18,-1
 92 796.486960051 l 2,19,20
 64.4417581531 796.486960051 64.4417581531 796.486960051 44.9773990511 777.022600949 c 128,-1,21
 25.5130399491 757.558241847 25.5130399491 757.558241847 25.5130399491 730 c 2,22,-1
 25.5130399491 623 l 2,23,24
 25.5130399491 595.441758153 25.5130399491 595.441758153 44.9773990511 575.977399051 c 128,-1,25
 64.4417581531 556.513039949 64.4417581531 556.513039949 92 556.513039949 c 2,26,-1
 101.65437582 556.513039949 l 2,27,28
 122.374858411 556.513039949 122.374858411 556.513039949 137.407523754 541.480374607 c 128,-1,29
 152.440189096 526.447709264 152.440189096 526.447709264 152.440189096 508.158195307 c 0,30,31
 152.440189096 497.613630336 152.440189096 497.613630336 146.976614523 485.368892218 c 128,-1,32
 141.513039949 473.1241541 141.513039949 473.1241541 141.513039949 459 c 2,33,-1
 141.513039949 359 l 2,34,35
 141.513039949 346.480423153 141.513039949 346.480423153 145.843276247 335.426717101 c 128,-1,36
 150.173512546 324.373011048 150.173512546 324.373011048 150.173512546 314.840646623 c 0,37,38
 150.173512546 296.380548226 150.173512546 296.380548226 135.226718458 281.433754138 c 128,-1,39
 120.279924371 266.486960051 120.279924371 266.486960051 99.5594417795 266.486960051 c 2,40,-1
 59 266.486960051 l 2,41,42
 31.4417581531 266.486960051 31.4417581531 266.486960051 11.9773990511 247.022600949 c 128,-1,43
 -7.48696005094 227.558241847 -7.48696005094 227.558241847 -7.48696005094 200 c 0,44,45
 -7.48696005094 117.091101311 -7.48696005094 117.091101311 31.4586628521 53.9723331575 c 128,-1,46
 70.4042857551 -9.14643499567 70.4042857551 -9.14643499567 138.392315859 -42.8166975233 c 128,-1,0
 206.380345963 -76.4869600509 206.380345963 -76.4869600509 292.884846861 -76.4869600509 c 128,-1,1
EndSplineSet
EndChar

StartChar: four
Encoding: 52 52 53
Width: 600
GlyphClass: 1
Flags: W
LayerCount: 2
Fore
SplineSet
508 486.486960051 m 2,0,1
 535.558241847 486.486960051 535.558241847 486.486960051 555.022600949 467.022600949 c 128,-1,2
 574.486960051 447.558241847 574.486960051 447.558241847 574.486960051 420 c 2,3,-1
 574.486960051 -3.5527136788e-15 l 2,4,5
 574.486960051 -27.5582418469 574.486960051 -27.5582418469 555.243480025 -46.7791209234 c 128,-1,6
 536 -66 536 -66 508 -66.4869600509 c 2,7,-1
 382 -66.4869600509 l 2,8,9
 354.441758153 -66.4869600509 354.441758153 -66.4869600509 334.977399051 -47.0226009489 c 128,-1,10
 315.513039949 -27.5582418469 315.513039949 -27.5582418469 315.513039949 3.5527136788e-15 c 2,11,-1
 315.513039949 78.5130399491 l 1,12,-1
 58 78.5130399491 l 2,13,14
 30.4417581531 78.5130399491 30.4417581531 78.5130399491 10.9773990511 97.9773990511 c 128,-1,15
 -8.48696005094 117.441758153 -8.48696005094 117.441758153 -8.48696005094 145 c 2,16,-1
 -8.48696005094 326 l 2,17,18
 -8.48696005094 346.276151023 -8.48696005094 346.276151023 2.73678204324 363.008224108 c 2,19,-1
 273.736782043 767.008224108 l 2,20,21
 277.350984409 772.396186307 277.350984409 772.396186307 281.977399051 777.022600949 c 0,22,23
 301 796 301 796 329 796.486960051 c 2,24,-1
 467 796.486960051 l 2,25,26
 494.558241847 796.486960051 494.558241847 796.486960051 512.747094118 778.29810778 c 0,27,28
 533.522177125 757.523024773 533.522177125 757.523024773 533.522177125 729.371517882 c 0,29,30
 533.522177125 709.671486451 533.522177125 709.671486451 522.464944564 693.294300326 c 2,31,-1
 385.383932317 486.486960051 l 1,32,-1
 508 486.486960051 l 2,0,1
EndSplineSet
EndChar

StartChar: five
Encoding: 53 53 54
Width: 600
GlyphClass: 1
Flags: W
LayerCount: 2
Fore
SplineSet
596.486960051 203 m 2,0,-1
 596.486960051 274 l 2,1,2
 596.486960051 403.455025337 596.486960051 403.455025337 521.746002963 478.652294971 c 0,3,4
 507.220652407 493.261992965 507.220652407 493.261992965 507.220712251 513.969755266 c 128,-1,5
 507.250255388 534.647863067 507.250255388 534.647863067 521.855517307 549.253124987 c 0,6,7
 527.255966464 554.653574143 527.255966464 554.653574143 535.092310693 558.768513584 c 128,-1,8
 542.928654923 562.883453025 542.928654923 562.883453025 550.022600949 569.977399051 c 0,9,10
 569.486960051 589.441758153 569.486960051 589.441758153 569.486960051 617 c 2,11,-1
 569.486960051 730 l 2,12,13
 569.486960051 757.558241847 569.486960051 757.558241847 550.022600949 777.022600949 c 128,-1,14
 530.558241847 796.486960051 530.558241847 796.486960051 503 796.486960051 c 2,15,-1
 92 796.486960051 l 2,16,17
 64.4417581531 796.486960051 64.4417581531 796.486960051 45.1483160088 777.193517907 c 128,-1,18
 25.8548738645 757.900075762 25.8548738645 757.900075762 25.5182214641 730.833222774 c 2,19,-1
 20.5126248532 327.587736146 l 2,20,21
 20.5762670151 307.625097088 20.5762670151 307.625097088 30.4668233126 293.029225823 c 128,-1,22
 40.35737961 278.433354557 40.35737961 278.433354557 40.35737961 263.436393993 c 0,23,24
 40.35737961 241.211951728 40.35737961 241.211951728 24.3865209588 226.350418963 c 0,25,26
 3.48648576338 206.898242896 3.48648576338 206.898242896 3.48648576338 178.694282705 c 0,27,28
 3.48648576338 176.077790812 3.48648576338 176.077790812 3.67174929447 173.391469611 c 0,29,30
 10.6949595786 71.5549204908 10.6949595786 71.5549204908 76.7016667211 5.54821334833 c 0,31,32
 158.73684012 -76.4869600509 158.73684012 -76.4869600509 299 -76.4869600509 c 128,-1,33
 439.400823034 -76.4869600509 439.400823034 -76.4869600509 522.791933735 6.90415065032 c 0,34,35
 596.486960051 80.5991769658 596.486960051 80.5991769658 596.486960051 203 c 2,0,-1
EndSplineSet
EndChar

StartChar: six
Encoding: 54 54 55
Width: 600
GlyphClass: 1
Flags: W
LayerCount: 2
Fore
SplineSet
299.754134321 -76.4869600509 m 128,-1,1
 208.880548564 -76.4869600509 208.880548564 -76.4869600509 138.471543669 -37.793723127 c 0,2,3
 66.3608653521 1.83466765995 66.3608653521 1.83466765995 26.0511985941 73.3518183596 c 0,4,5
 -13 144 -13 144 -13.4869600509 234 c 0,6,7
 -13.4869600509 290.947411852 -13.4869600509 290.947411852 6.76171778285 351.1149117 c 128,-1,8
 27.0103956166 411.282411549 27.0103956166 411.282411549 64.1257227136 476.780047603 c 2,9,-1
 228.292359965 763.072372253 l 2,10,11
 232.681631242 770.72683314 232.681631242 770.72683314 238.977399051 777.022600949 c 0,12,13
 258.441758153 796.486960051 258.441758153 796.486960051 286 796.486960051 c 2,14,-1
 422 796.486960051 l 2,15,16
 449.558241847 796.486960051 449.558241847 796.486960051 469.022600949 777.022600949 c 128,-1,17
 488.537980732 757.507221166 488.537980732 757.507221166 488.537980732 729.326603884 c 0,18,19
 488.537980732 711.552098298 488.537980732 711.552098298 479.323777168 696.267102687 c 2,20,-1
 371.323439318 512.880390397 l 1,21,22
 436.752654521 508.713470055 436.752654521 508.713470055 489.220172328 475.921271426 c 0,23,24
 549.245552466 438.40540884 549.245552466 438.40540884 581.366256258 373.508476687 c 128,-1,25
 613.486960051 308.611544535 613.486960051 308.611544535 613.486960051 223.344619837 c 128,-1,26
 613.486960051 138.077695139 613.486960051 138.077695139 573.558987225 69.1697420368 c 0,27,28
 533.013075491 -0.804654021157 533.013075491 -0.804654021157 461.820397785 -38.645807036 c 128,-1,0
 390.627720079 -76.4869600509 390.627720079 -76.4869600509 299.754134321 -76.4869600509 c 128,-1,1
EndSplineSet
EndChar

StartChar: seven
Encoding: 55 55 56
Width: 600
GlyphClass: 1
Flags: W
LayerCount: 2
Fore
SplineSet
190 434.513039949 m 1,0,-1
 198.354100856 434.796529408 l 2,1,2
 218.543459915 434.796529408 218.543459915 434.796529408 233.560359282 419.779630041 c 128,-1,3
 248.577258649 404.762730674 248.577258649 404.762730674 248.577258649 386.427445197 c 0,4,5
 248.577258649 376.16482199 248.577258649 376.16482199 243.758972101 364.976291428 c 2,6,-1
 97.8472361532 26.155031924 l 2,7,8
 92.4288179513 13.9099925113 92.4288179513 13.9099925113 92.426557818 0.608224096799 c 0,9,10
 92.426557818 -27.4717597158 92.426557818 -27.4717597158 111.977399051 -47.0226009489 c 128,-1,11
 131.441758153 -66.4869600509 131.441758153 -66.4869600509 159 -66.4869600509 c 2,12,-1
 296 -66.4869600509 l 2,13,14
 323.558241847 -66.4869600509 323.558241847 -66.4869600509 343.022600949 -47.0226009489 c 0,15,16
 352.255457604 -37.7897442939 352.255457604 -37.7897442939 357.281438893 -25.850631654 c 2,17,-1
 618.281438893 594.149368346 l 2,18,19
 623.486960051 606.514974163 623.486960051 606.514974163 623.486960051 620 c 2,20,-1
 623.486960051 730 l 2,21,22
 623.486960051 757.558241847 623.486960051 757.558241847 604.022600949 777.022600949 c 128,-1,23
 584.558241847 796.486960051 584.558241847 796.486960051 557 796.486960051 c 2,24,-1
 65 796.486960051 l 2,25,26
 37.4417581531 796.486960051 37.4417581531 796.486960051 17.9773990511 777.022600949 c 128,-1,27
 -1.48696005094 757.558241847 -1.48696005094 757.558241847 -1.48696005094 730 c 2,28,-1
 -1.48696005094 501 l 2,29,30
 -1.48696005094 473.441758153 -1.48696005094 473.441758153 17.9773990511 453.977399051 c 128,-1,31
 37.4417581531 434.513039949 37.4417581531 434.513039949 65 434.513039949 c 2,32,-1
 190 434.513039949 l 1,0,-1
EndSplineSet
EndChar

StartChar: eight
Encoding: 56 56 57
Width: 600
GlyphClass: 1
Flags: W
LayerCount: 2
Fore
SplineSet
595.486960051 548 m 0,0,1
 595.486960051 450.157099137 595.486960051 450.157099137 525.233982668 378.932912808 c 1,2,3
 547.271431621 358.865782814 547.271431621 358.865782814 564.205718791 335.730207384 c 0,4,5
 612.486960051 269.768511579 612.486960051 269.768511579 612.486960051 188.426929216 c 0,6,7
 612.486960051 82.7997126986 612.486960051 82.7997126986 540.740576156 11.0533288032 c 0,8,9
 505.414222332 -24.2730250202 505.414222332 -24.2730250202 456.100076083 -46.2402356222 c 0,10,11
 388.199266141 -76.4869600509 388.199266141 -76.4869600509 299.868712329 -76.4869600509 c 128,-1,12
 211.538158518 -76.4869600509 211.538158518 -76.4869600509 143.444799779 -45.5354333516 c 0,13,14
 71.8636028082 -12.9985256374 71.8636028082 -12.9985256374 29.6883213786 47.5434106083 c 128,-1,15
 -12.4869600509 108.085346854 -12.4869600509 108.085346854 -12.4869600509 188 c 0,16,17
 -12.4869600509 299.089217178 -12.4869600509 299.089217178 75.0188885266 379.087818841 c 1,18,19
 3.51303994906 450.62629106 3.51303994906 450.62629106 3.51303994906 548 c 0,20,21
 3.51303994906 622.884348092 3.51303994906 622.884348092 42.8405898474 682.910608463 c 0,22,23
 81.5076525001 741.928756722 81.5076525001 741.928756722 148.648183962 774.207858387 c 128,-1,24
 215.788715423 806.486960051 215.788715423 806.486960051 300 806.486960051 c 128,-1,25
 384.343426028 806.486960051 384.343426028 806.486960051 449.566298284 774.825371577 c 0,26,27
 517.566511213 741.815559476 517.566511213 741.815559476 556.526735632 682.349953784 c 128,-1,28
 595.486960051 622.884348092 595.486960051 622.884348092 595.486960051 548 c 0,0,1
EndSplineSet
EndChar

StartChar: nine
Encoding: 57 57 58
Width: 600
GlyphClass: 1
Flags: W
LayerCount: 2
Fore
SplineSet
17.7812289549 356.715130968 m 0,0,1
 -13.4869600509 420.527761592 -13.4869600509 420.527761592 -13.4869600509 505.276738833 c 128,-1,2
 -13.4869600509 590.025716074 -13.4869600509 590.025716074 27.037495996 659.496212155 c 0,3,4
 67.9528149948 729.63675901 67.9528149948 729.63675901 139.039250958 768.06185953 c 128,-1,5
 210.125686921 806.486960051 210.125686921 806.486960051 300.244409424 806.486960051 c 128,-1,6
 390.363131928 806.486960051 390.363131928 806.486960051 460.926070394 767.073426854 c 0,7,8
 532.42200963 727.138758092 532.42200963 727.138758092 572.95448484 657.011142251 c 128,-1,9
 613.486960051 586.883526411 613.486960051 586.883526411 613.486960051 498 c 0,10,11
 613.486960051 439.85882362 613.486960051 439.85882362 592.721808397 379.293797964 c 128,-1,12
 571.956656744 318.728772308 571.956656744 318.728772308 536.05470935 254.540442119 c 2,13,-1
 378.269979806 -32.0716231807 l 2,14,15
 373.733788891 -40.3114130072 373.733788891 -40.3114130072 367.022600949 -47.0226009489 c 0,16,17
 348 -66 348 -66 320 -66.4869600509 c 2,18,-1
 181 -66.4869600509 l 2,19,20
 153.441758153 -66.4869600509 153.441758153 -66.4869600509 133.977399051 -47.0226009489 c 128,-1,21
 114.461865042 -27.5070669393 114.461865042 -27.5070669393 114.461865042 0.673606473932 c 0,22,23
 114.461865042 18.429906515 114.461865042 18.429906515 123.659175422 33.7039336019 c 2,24,-1
 229.187828995 213.102644675 l 1,25,26
 134.47203437 219.123007635 134.47203437 219.123007635 68.4960635365 285.098978468 c 0,27,28
 37.8628873466 315.732154658 37.8628873466 315.732154658 17.7812289549 356.715130968 c 0,0,1
EndSplineSet
EndChar

StartChar: colon
Encoding: 58 58 59
Width: 600
GlyphClass: 1
Flags: W
LayerCount: 2
Fore
SplineSet
182.426415969 -31.1259388547 m 0,0,1
 140.513039949 10.7874371655 140.513039949 10.7874371655 140.513039949 74 c 0,2,3
 140.513039949 107.824513455 140.513039949 107.824513455 152.297101786 134.026721539 c 0,4,5
 165.350072456 163.050385734 165.350072456 163.050385734 187.464284663 183.430149925 c 0,6,7
 232.015291395 224.486960051 232.015291395 224.486960051 300 224.486960051 c 0,8,9
 371.660805949 224.486960051 371.660805949 224.486960051 417.07092442 179.07684158 c 0,10,11
 435.918836377 160.228929623 435.918836377 160.228929623 447.702898214 134.026721539 c 128,-1,12
 459.486960051 107.824513455 459.486960051 107.824513455 459.486960051 77.5393806849 c 0,13,14
 459.486960051 6.41284315053 459.486960051 6.41284315053 412.004066595 -36.4148646724 c 0,15,16
 367.576308675 -76.4869600509 367.576308675 -76.4869600509 297.68187292 -76.4869600509 c 128,-1,17
 227.787437165 -76.4869600509 227.787437165 -76.4869600509 182.426415969 -31.1259388547 c 0,0,1
182.92907558 370.92315842 m 0,18,19
 164.081163623 389.771070377 164.081163623 389.771070377 152.297101786 415.973278461 c 128,-1,20
 140.513039949 442.175486545 140.513039949 442.175486545 140.513039949 472.460619315 c 0,21,22
 140.513039949 543.587156849 140.513039949 543.587156849 187.995933405 586.414864672 c 0,23,24
 232.423691325 626.486960051 232.423691325 626.486960051 300 626.486960051 c 0,25,26
 372.212562835 626.486960051 372.212562835 626.486960051 417.573584031 581.125938855 c 0,27,28
 459.486960051 539.212562835 459.486960051 539.212562835 459.486960051 476 c 0,29,30
 459.486960051 442.175486545 459.486960051 442.175486545 447.702898214 415.973278461 c 0,31,32
 434.649927544 386.949614266 434.649927544 386.949614266 412.535715337 366.569850075 c 0,33,34
 367.984708605 325.513039949 367.984708605 325.513039949 298.161951328 325.513039949 c 128,-1,35
 228.339194051 325.513039949 228.339194051 325.513039949 182.92907558 370.92315842 c 0,18,19
EndSplineSet
EndChar

StartChar: semicolon
Encoding: 59 59 60
Width: 600
GlyphClass: 1
Flags: W
LayerCount: 2
Fore
SplineSet
442.022600949 198.022600949 m 128,-1,1
 461.575943898 178.469258 461.575943898 178.469258 461.575943898 147.056376803 c 0,2,3
 461.575943898 137.35155217 461.575943898 137.35155217 456.345797708 125.302791278 c 2,4,-1
 326.345797708 -185.697208722 l 2,5,6
 321.316596543 -197.728605354 321.316596543 -197.728605354 312.022600949 -207.022600949 c 0,7,8
 293 -226 293 -226 265 -226.486960051 c 2,9,-1
 155 -226.486960051 l 2,10,11
 127.441758153 -226.486960051 127.441758153 -226.486960051 107.793208251 -206.838410149 c 128,-1,12
 88.1446583491 -187.189860247 88.1446583491 -187.189860247 88.1446583491 -161.895622182 c 0,13,14
 88.1446583491 -152.964664314 88.1446583491 -152.964664314 90.6171544277 -143.352835809 c 2,15,-1
 170.617154428 167.647164191 l 2,16,17
 175.124580275 185.169782173 175.124580275 185.169782173 187.977399051 198.022600949 c 0,18,19
 207 217 207 217 235 217.486960051 c 2,20,-1
 395 217.486960051 l 2,21,0
 422.558241847 217.486960051 422.558241847 217.486960051 442.022600949 198.022600949 c 128,-1,1
290 325.513039949 m 2,22,23
 225.029485003 325.513039949 225.029485003 325.513039949 181.975929595 369.484172888 c 0,24,25
 163.144555812 388.716214199 163.144555812 388.716214199 151.328797881 415.263959679 c 128,-1,26
 139.513039949 441.811705159 139.513039949 441.811705159 139.513039949 476.136773321 c 128,-1,27
 139.513039949 510.461841482 139.513039949 510.461841482 151.636540101 537.133541816 c 128,-1,28
 163.760040253 563.805242151 163.760040253 563.805242151 182.977399051 583.022600949 c 128,-1,29
 202.194757849 602.239959747 202.194757849 602.239959747 228.866458184 614.363459899 c 128,-1,30
 255.538158518 626.486960051 255.538158518 626.486960051 290 626.486960051 c 2,31,-1
 310 626.486960051 l 2,32,33
 344.461841482 626.486960051 344.461841482 626.486960051 371.133541816 614.363459899 c 128,-1,34
 397.805242151 602.239959747 397.805242151 602.239959747 417.022600949 583.022600949 c 128,-1,35
 436.239959747 563.805242151 436.239959747 563.805242151 448.363459899 537.133541816 c 128,-1,36
 460.486960051 510.461841482 460.486960051 510.461841482 460.486960051 476.136773321 c 128,-1,37
 460.486960051 441.811705159 460.486960051 441.811705159 448.671202119 415.263959679 c 0,38,39
 436.525042994 387.973865985 436.525042994 387.973865985 416.893534282 368.341665718 c 0,40,41
 374.064908514 325.513039949 374.064908514 325.513039949 310 325.513039949 c 2,42,-1
 290 325.513039949 l 2,22,23
EndSplineSet
EndChar

StartChar: less
Encoding: 60 60 61
Width: 600
GlyphClass: 1
Flags: W
LayerCount: 2
Fore
SplineSet
523.352337567 669.564885974 m 0,0,1
 551.480315924 669.564885974 551.480315924 669.564885974 571.022600949 650.022600949 c 128,-1,2
 590.486960051 630.558241847 590.486960051 630.558241847 590.486960051 603 c 2,3,-1
 590.486960051 488 l 2,4,5
 590.486960051 460.441758153 590.486960051 460.441758153 571.022600949 440.977399051 c 0,6,7
 562.621977402 432.576775504 562.621977402 432.576775504 551.928268445 427.635544468 c 2,8,-1
 341.709552804 330.5 l 1,9,-1
 551.928268445 233.364455532 l 2,10,11
 562.621977402 228.423224496 562.621977402 228.423224496 571.022600949 220.022600949 c 0,12,13
 590 201 590 201 590.486960051 173 c 2,14,-1
 590.486960051 56 l 2,15,16
 590.486960051 28.4417581531 590.486960051 28.4417581531 571.022600949 8.97739905109 c 128,-1,17
 551.480315924 -10.5648859737 551.480315924 -10.5648859737 523.352337567 -10.5648859737 c 0,18,19
 508.795876789 -10.5648859737 508.795876789 -10.5648859737 495.633958686 -4.16022668815 c 2,20,-1
 47.6339586858 206.839773312 l 2,21,22
 37.2015435586 211.753254544 37.2015435586 211.753254544 28.9773990511 219.977399051 c 0,23,24
 9.51303994906 239.441758153 9.51303994906 239.441758153 9.51303994906 267 c 2,25,-1
 9.51303994906 392 l 2,26,27
 9.51303994906 419.558241847 9.51303994906 419.558241847 28.9773990511 439.022600949 c 0,28,29
 37.2015435586 447.246745456 37.2015435586 447.246745456 47.6339586858 452.160226688 c 2,30,-1
 495.633958686 663.160226688 l 2,31,32
 508.795876789 669.564885974 508.795876789 669.564885974 523.352337567 669.564885974 c 0,0,1
EndSplineSet
EndChar

StartChar: equal
Encoding: 61 61 62
Width: 600
GlyphClass: 1
Flags: W
LayerCount: 2
Fore
SplineSet
15.5130399491 150 m 2,0,-1
 15.5130399491 265 l 2,1,2
 15.5130399491 292.558241847 15.5130399491 292.558241847 34.9773990511 312.022600949 c 0,3,4
 49.0619136473 326.107115545 49.0619136473 326.107115545 67.3844234116 330.000000006 c 1,5,6
 49.0619136539 333.892884342 49.0619136539 333.892884342 34.9773990511 347.977399051 c 0,7,8
 15.5130399491 367.441758153 15.5130399491 367.441758153 15.5130399491 395 c 2,9,-1
 15.5130399491 510 l 2,10,11
 15.5130399491 537.558241847 15.5130399491 537.558241847 34.9773990511 557.022600949 c 128,-1,12
 54.4417581531 576.486960051 54.4417581531 576.486960051 82 576.486960051 c 2,13,-1
 518 576.486960051 l 2,14,15
 545.558241847 576.486960051 545.558241847 576.486960051 565.022600949 557.022600949 c 128,-1,16
 584.486960051 537.558241847 584.486960051 537.558241847 584.486960051 510 c 2,17,-1
 584.486960051 395 l 2,18,19
 584.486960051 367.441758153 584.486960051 367.441758153 565.022600949 347.977399051 c 0,20,21
 550.938086353 333.892884455 550.938086353 333.892884455 532.615576588 329.999999994 c 1,22,23
 550.938086346 326.107115658 550.938086346 326.107115658 565.022600949 312.022600949 c 0,24,25
 584.486960051 292.558241847 584.486960051 292.558241847 584.486960051 265 c 2,26,-1
 584.486960051 150 l 2,27,28
 584.486960051 122.441758153 584.486960051 122.441758153 565.022600949 102.977399051 c 128,-1,29
 545.558241847 83.5130399491 545.558241847 83.5130399491 518 83.5130399491 c 2,30,-1
 82 83.5130399491 l 2,31,32
 54.4417581531 83.5130399491 54.4417581531 83.5130399491 34.9773990511 102.977399051 c 128,-1,33
 15.5130399491 122.441758153 15.5130399491 122.441758153 15.5130399491 150 c 2,0,-1
EndSplineSet
EndChar

StartChar: greater
Encoding: 62 62 63
Width: 600
GlyphClass: 1
Flags: W
LayerCount: 2
Fore
SplineSet
9.51303994906 56 m 2,0,-1
 9.51303994906 171 l 2,1,2
 9.51303994906 198.558241847 9.51303994906 198.558241847 28.9773990511 218.022600949 c 0,3,4
 37.3780225985 226.423224496 37.3780225985 226.423224496 48.0717315554 231.364455532 c 2,5,-1
 257.508648964 328.1387553 l 1,6,-1
 47.901827789 425.714344467 l 2,7,8
 37.3095793714 430.645218731 37.3095793714 430.645218731 28.9773990511 438.977399051 c 0,9,10
 9.51303994906 458.441758153 9.51303994906 458.441758153 9.51303994906 486 c 2,11,-1
 9.51303994906 603 l 2,12,13
 9.51303994906 630.558241847 9.51303994906 630.558241847 28.9773990511 650.022600949 c 128,-1,14
 48.5196840759 669.564885974 48.5196840759 669.564885974 76.6476624325 669.564885974 c 0,15,16
 91.2041232106 669.564885974 91.2041232106 669.564885974 104.366041314 663.160226688 c 2,17,-1
 552.366041314 452.160226688 l 2,18,19
 562.798456441 447.246745456 562.798456441 447.246745456 571.022600949 439.022600949 c 0,20,21
 590.486960051 419.558241847 590.486960051 419.558241847 590.486960051 392 c 2,22,-1
 590.486960051 267 l 2,23,24
 590.486960051 239.441758153 590.486960051 239.441758153 571.022600949 219.977399051 c 0,25,26
 562.798456441 211.753254544 562.798456441 211.753254544 552.366041314 206.839773312 c 2,27,-1
 104.366041314 -4.16022668815 l 2,28,29
 91.2041232106 -10.5648859737 91.2041232106 -10.5648859737 76.6476624325 -10.5648859737 c 0,30,31
 48.5196840759 -10.5648859737 48.5196840759 -10.5648859737 28.9773990511 8.97739905109 c 128,-1,32
 9.51303994906 28.4417581531 9.51303994906 28.4417581531 9.51303994906 56 c 2,0,-1
EndSplineSet
EndChar

StartChar: question
Encoding: 63 63 64
Width: 600
GlyphClass: 1
Flags: W
LayerCount: 2
Fore
SplineSet
365.486960051 217 m 2,0,1
 365.486960051 187.004167243 365.486960051 187.004167243 342.678175739 166.82941803 c 1,2,3
 373.929307318 142.758169586 373.929307318 142.758169586 386.328318172 106.063799626 c 0,4,5
 393.486960051 84.8780891998 393.486960051 84.8780891998 393.486960051 61 c 0,6,7
 393.486960051 3.91864505089 393.486960051 3.91864505089 354.763884439 -33.7841575 c 128,-1,8
 316.040808827 -71.4869600509 316.040808827 -71.4869600509 258 -71.4869600509 c 2,9,-1
 229 -71.4869600509 l 2,10,11
 169.935812825 -71.4869600509 169.935812825 -71.4869600509 131.338789456 -32.8924659302 c 0,12,13
 93.5130399491 4.93328357686 93.5130399491 4.93328357686 93.5130399491 61 c 0,14,15
 93.5130399491 118.081354949 93.5130399491 118.081354949 132.619993813 156.156688936 c 0,16,17
 138.398949597 161.783566937 138.398949597 161.783566937 144.625530512 166.562292618 c 1,18,19
 121.814562057 186.51281452 121.814562057 186.51281452 121.516389513 216.330068903 c 2,20,-1
 119.508600589 417.108961291 l 2,21,22
 119.508600589 444.557649888 119.508600589 444.557649888 138.977399051 464.022600949 c 128,-1,23
 158.441758153 483.486960051 158.441758153 483.486960051 186 483.486960051 c 2,24,-1
 265 483.486960051 l 2,25,26
 290.633247515 483.486960051 290.633247515 483.486960051 301.684959033 494.538671569 c 0,27,28
 308.513039949 501.366752485 308.513039949 501.366752485 308.513039949 515 c 0,29,30
 308.513039949 529.998547382 308.513039949 529.998547382 301.014681276 536.622097543 c 0,31,32
 289.817387986 546.513039949 289.817387986 546.513039949 264 546.513039949 c 2,33,-1
 115 546.513039949 l 2,34,35
 87.4417581531 546.513039949 87.4417581531 546.513039949 67.9773990511 565.977399051 c 128,-1,36
 48.5130399491 585.441758153 48.5130399491 585.441758153 48.5130399491 613 c 2,37,-1
 48.5130399491 730 l 2,38,39
 48.5130399491 757.558241847 48.5130399491 757.558241847 67.9773990511 777.022600949 c 128,-1,40
 87.4417581531 796.486960051 87.4417581531 796.486960051 115 796.486960051 c 2,41,-1
 258 796.486960051 l 2,42,43
 347.493114359 796.486960051 347.493114359 796.486960051 415.320237646 763.201427327 c 0,44,45
 486.340964668 728.34866314 486.340964668 728.34866314 526.421271426 664.220172328 c 128,-1,46
 566.486960051 600.115070528 566.486960051 600.115070528 566.486960051 515 c 0,47,48
 566.486960051 436.912097463 566.486960051 436.912097463 532.822069805 375.523179955 c 0,49,50
 498.52058753 312.97341816 498.52058753 312.97341816 437.731530163 277.175417711 c 0,51,52
 404.321791266 257.500793694 404.321791266 257.500793694 365.486960051 248.37298989 c 1,53,-1
 365.486960051 217 l 2,0,1
EndSplineSet
EndChar

StartChar: at
Encoding: 64 64 65
Width: 600
GlyphClass: 1
Flags: W
LayerCount: 2
Fore
SplineSet
-33.4869600509 111 m 2,0,1
 -33.4869600509 3.97277583791 -33.4869600509 3.97277583791 11.3571071897 -78.1360796731 c 0,2,3
 55.1423045838 -158.306159409 55.1423045838 -158.306159409 136.718625185 -201.89655973 c 128,-1,4
 218.294945785 -245.486960051 218.294945785 -245.486960051 325 -245.486960051 c 2,5,-1
 395 -245.486960051 l 2,6,7
 422.558241847 -245.486960051 422.558241847 -245.486960051 442.022600949 -226.022600949 c 128,-1,8
 461.486960051 -206.558241847 461.486960051 -206.558241847 461.486960051 -179 c 2,9,-1
 461.486960051 -84 l 2,10,11
 461.486960051 -74.5757301857 461.486960051 -74.5757301857 458.994889189 -66.0012909335 c 128,-1,12
 456.502818328 -57.4268516812 456.502818328 -57.4268516812 456.502818328 -49.9683727939 c 0,13,14
 456.502818328 -31.1083736973 456.502818328 -31.1083736973 471.489375506 -16.1218165186 c 0,15,16
 485.547299917 -1.47176795115 485.547299917 -1.47176795115 505.550259596 -1.47176795115 c 0,17,18
 506.19440458 -1.47176795115 506.19440458 -1.47176795115 506.844714565 -1.48696005094 c 2,19,-1
 571.725085955 -1.48696005094 l 2,20,21
 599.350854591 -1.15255087531 599.350854591 -1.15255087531 619.222230127 18.1775737636 c 0,22,23
 638 38 638 38 638.486960051 65 c 2,24,-1
 638.486960051 498 l 2,25,26
 638.486960051 587.638570435 638.486960051 587.638570435 598.029880651 658.764726153 c 0,27,28
 558.252359147 728.696175249 558.252359147 728.696175249 484.924980031 767.59156765 c 128,-1,29
 411.597600915 806.486960051 411.597600915 806.486960051 315 806.486960051 c 0,30,31
 209.717932741 806.486960051 209.717932741 806.486960051 129.602056401 761.978139862 c 0,32,33
 51.2921084539 718.472613225 51.2921084539 718.472613225 8.90257420145 637.433797742 c 128,-1,34
 -33.4869600509 556.39498226 -33.4869600509 556.39498226 -33.4869600509 450 c 2,35,-1
 -33.4869600509 111 l 2,0,1
EndSplineSet
EndChar

StartChar: A
Encoding: 65 65 66
Width: 600
GlyphClass: 2
Flags: W
LayerCount: 2
Fore
SplineSet
219 796.486960051 m 2,0,-1
 380 796.486960051 l 2,1,2
 407.558241847 796.486960051 407.558241847 796.486960051 427.022600949 777.022600949 c 0,3,4
 439.965432466 764.079769432 439.965432466 764.079769432 444.44170014 746.416659152 c 2,5,-1
 629.44170014 16.4166591519 l 2,6,7
 631.844697128 6.93456292654 631.844697128 6.93456292654 631.844697128 -1.88110510698 c 0,8,9
 631.844697128 -27.2005047694 631.844697128 -27.2005047694 612.422348564 -46.6002523847 c 128,-1,10
 593 -66 593 -66 565 -66.4869600509 c 2,11,-1
 437 -66.4869600509 l 2,12,13
 409.441758153 -66.4869600509 409.441758153 -66.4869600509 389.977399051 -47.0226009489 c 0,14,15
 376.378811176 -33.4240130734 376.378811176 -33.4240130734 372.155867093 -14.7374855075 c 2,16,-1
 343.8506636 110.513039949 l 1,17,-1
 256.1493364 110.513039949 l 1,18,-1
 227.844132907 -14.7374855075 l 2,19,20
 223.621188824 -33.4240130734 223.621188824 -33.4240130734 210.022600949 -47.0226009489 c 0,21,22
 191 -66 191 -66 163 -66.4869600509 c 2,23,-1
 35 -66.4869600509 l 2,24,25
 7.44175815313 -66.4869600509 7.44175815313 -66.4869600509 -12.199573547 -46.8456283508 c 128,-1,26
 -31.8409052471 -27.2042966507 -31.8409052471 -27.2042966507 -31.8409052471 -1.87579164562 c 0,27,28
 -31.8409052471 6.89829928212 -31.8409052471 6.89829928212 -29.4626873628 16.3336202359 c 2,29,-1
 154.537312637 746.333620236 l 2,30,31
 159.002141485 764.047343383 159.002141485 764.047343383 171.977399051 777.022600949 c 0,32,33
 191.441758153 796.486960051 191.441758153 796.486960051 219 796.486960051 c 2,0,-1
EndSplineSet
EndChar

StartChar: B
Encoding: 66 66 67
Width: 600
GlyphClass: 2
Flags: W
LayerCount: 2
Fore
SplineSet
543.664837143 389.430266363 m 1,0,1
 614.486960051 318.946166298 614.486960051 318.946166298 614.486960051 208 c 0,2,3
 614.486960051 125.816460974 614.486960051 125.816460974 574.854338982 62.6729630009 c 128,-1,4
 535.201667405 -0.502479852189 535.201667405 -0.502479852189 467.2764672 -33.4947199516 c 128,-1,5
 399.351266995 -66.4869600509 399.351266995 -66.4869600509 312 -66.4869600509 c 2,6,-1
 77 -66.4869600509 l 2,7,8
 49.4417581531 -66.4869600509 49.4417581531 -66.4869600509 29.9773990511 -47.0226009489 c 128,-1,9
 10.5130399491 -27.5582418469 10.5130399491 -27.5582418469 10.5130399491 3.5527136788e-15 c 2,10,-1
 10.5130399491 730 l 2,11,12
 10.5130399491 757.558241847 10.5130399491 757.558241847 29.9773990511 777.022600949 c 128,-1,13
 49.4417581531 796.486960051 49.4417581531 796.486960051 77 796.486960051 c 2,14,-1
 301 796.486960051 l 2,15,16
 446.414652103 796.486960051 446.414652103 796.486960051 529.396696938 713.504915216 c 0,17,18
 597.486960051 645.414652103 597.486960051 645.414652103 597.486960051 542 c 0,19,20
 597.486960051 451.563198667 597.486960051 451.563198667 543.664837143 389.430266363 c 1,0,1
EndSplineSet
EndChar

StartChar: C
Encoding: 67 67 68
Width: 600
GlyphClass: 2
Flags: W
LayerCount: 2
Fore
SplineSet
303.5 -76.4869600509 m 128,-1,1
 216.978213943 -76.4869600509 216.978213943 -76.4869600509 150.789130699 -42.7559849361 c 0,2,3
 81.4954407459 -7.44285447923 81.4954407459 -7.44285447923 43.5042403475 57.2088374269 c 128,-1,4
 5.51303994906 121.860529333 5.51303994906 121.860529333 5.51303994906 206 c 2,5,-1
 5.51303994906 524 l 2,6,7
 5.51303994906 608.139470667 5.51303994906 608.139470667 43.1441090743 672.1783076 c 0,8,9
 81.4954407459 737.442854479 81.4954407459 737.442854479 149.236827345 771.964907265 c 128,-1,10
 216.978213943 806.486960051 216.978213943 806.486960051 303.5 806.486960051 c 128,-1,11
 390.021786057 806.486960051 390.021786057 806.486960051 456.210869301 772.755984936 c 0,12,13
 525.259199768 737.567893448 525.259199768 737.567893448 563.873079909 672.989507694 c 128,-1,14
 602.486960051 608.41112194 602.486960051 608.41112194 602.486960051 524 c 0,15,16
 602.486960051 496.441758153 602.486960051 496.441758153 583.022600949 476.977399051 c 128,-1,17
 563.558241847 457.513039949 563.558241847 457.513039949 536 457.513039949 c 2,18,-1
 410 457.513039949 l 2,19,20
 382.441758153 457.513039949 382.441758153 457.513039949 362.977399051 476.977399051 c 128,-1,21
 343.513039949 496.441758153 343.513039949 496.441758153 343.513039949 521.941758153 c 128,-1,22
 343.513039949 547.441758153 343.513039949 547.441758153 335.477399051 555.477399051 c 128,-1,23
 327.441758153 563.513039949 327.441758153 563.513039949 303.647609889 563.513039949 c 128,-1,24
 279.853461625 563.513039949 279.853461625 563.513039949 271.670210838 555.487014436 c 128,-1,25
 263.486960051 547.460988922 263.486960051 547.460988922 263.486960051 525 c 2,26,-1
 263.486960051 206 l 2,27,28
 263.486960051 182.910514905 263.486960051 182.910514905 271.84761442 174.698737478 c 128,-1,29
 280.208268788 166.486960051 280.208268788 166.486960051 303.825013471 166.486960051 c 128,-1,30
 327.441758153 166.486960051 327.441758153 166.486960051 335.477399051 174.522600949 c 128,-1,31
 343.513039949 182.558241847 343.513039949 182.558241847 343.513039949 208.058241847 c 128,-1,32
 343.513039949 233.558241847 343.513039949 233.558241847 362.977399051 253.022600949 c 128,-1,33
 382.441758153 272.486960051 382.441758153 272.486960051 410 272.486960051 c 2,34,-1
 536 272.486960051 l 2,35,36
 563.558241847 272.486960051 563.558241847 272.486960051 583.022600949 253.022600949 c 128,-1,37
 602.486960051 233.558241847 602.486960051 233.558241847 602.486960051 206 c 0,38,39
 602.486960051 121.58887806 602.486960051 121.58887806 564.099276521 57.3887866396 c 0,40,41
 525.259199768 -7.56789344816 525.259199768 -7.56789344816 457.640492912 -42.0274267496 c 128,-1,0
 390.021786057 -76.4869600509 390.021786057 -76.4869600509 303.5 -76.4869600509 c 128,-1,1
EndSplineSet
EndChar

StartChar: D
Encoding: 68 68 69
Width: 600
GlyphClass: 2
Flags: W
LayerCount: 2
Fore
SplineSet
8.51303994906 3.5527136788e-15 m 2,0,-1
 8.51303994906 730 l 2,1,2
 8.51303994906 757.558241847 8.51303994906 757.558241847 27.9773990511 777.022600949 c 128,-1,3
 47.4417581531 796.486960051 47.4417581531 796.486960051 75 796.486960051 c 2,4,-1
 292 796.486960051 l 2,5,6
 382.391086055 796.486960051 382.391086055 796.486960051 451.327184403 760.437807704 c 0,7,8
 490.448098789 739.980081832 490.448098789 739.980081832 517.54915994 712.879020682 c 0,9,10
 601.486960051 628.94122057 601.486960051 628.94122057 601.486960051 502 c 2,11,-1
 601.486960051 229 l 2,12,13
 601.486960051 141.995746833 601.486960051 141.995746833 562.482563215 75.0381989307 c 0,14,15
 544.576865687 44.3000848419 544.576865687 44.3000848419 517.353803627 17.0770227816 c 128,-1,16
 490.130741566 -10.1460392787 490.130741566 -10.1460392787 451.327184403 -30.4378077036 c 0,17,18
 382.391086055 -66.4869600509 382.391086055 -66.4869600509 292 -66.4869600509 c 2,19,-1
 75 -66.4869600509 l 2,20,21
 47.4417581531 -66.4869600509 47.4417581531 -66.4869600509 27.9773990511 -47.0226009489 c 128,-1,22
 8.51303994906 -27.5582418469 8.51303994906 -27.5582418469 8.51303994906 3.5527136788e-15 c 2,0,-1
EndSplineSet
EndChar

StartChar: E
Encoding: 69 69 70
Width: 600
GlyphClass: 2
Flags: W
LayerCount: 2
Fore
SplineSet
537.175720903 548.571508286 m 0,0,1
 543.897594332 555.293381715 543.897594332 555.293381715 554.026953697 559.702246439 c 128,-1,2
 564.156313061 564.111111164 564.156313061 564.111111164 573.022600949 572.977399051 c 0,3,4
 592.486960051 592.441758153 592.486960051 592.441758153 592.486960051 620 c 2,5,-1
 592.486960051 730 l 2,6,7
 592.486960051 757.558241847 592.486960051 757.558241847 573.022600949 777.022600949 c 128,-1,8
 553.558241847 796.486960051 553.558241847 796.486960051 526 796.486960051 c 2,9,-1
 88 796.486960051 l 2,10,11
 60.4417581531 796.486960051 60.4417581531 796.486960051 40.9773990511 777.022600949 c 128,-1,12
 21.5130399491 757.558241847 21.5130399491 757.558241847 21.5130399491 730 c 2,13,-1
 21.5130399491 3.5527136788e-15 l 2,14,15
 21.5130399491 -27.5582418469 21.5130399491 -27.5582418469 40.9773990511 -47.0226009489 c 128,-1,16
 60.4417581531 -66.4869600509 60.4417581531 -66.4869600509 88 -66.4869600509 c 2,17,-1
 521.56091 -66.4869600509 l 2,18,19
 523.959579349 -66.2464629072 523.959579349 -66.2464629072 526.007153117 -66.2464629072 c 128,-1,20
 528.054726885 -66.2464629072 528.054726885 -66.2464629072 529.778864385 -66.3512591003 c 0,21,22
 555.038794591 -64.9533875723 555.038794591 -64.9533875723 573.762877321 -46.2346801026 c 128,-1,23
 592.486960051 -27.5159726329 592.486960051 -27.5159726329 592.486960051 -3.5527136788e-15 c 2,24,-1
 592.486960051 110 l 2,25,26
 592.486960051 137.558241847 592.486960051 137.558241847 573.022600949 157.022600949 c 0,27,28
 559.18912653 170.856075368 559.18912653 170.856075368 542.387277847 174.474141964 c 128,-1,29
 525.585429164 178.092208561 525.585429164 178.092208561 515.166839493 188.510798232 c 0,30,31
 500.531983025 203.1456547 500.531983025 203.1456547 500.531983025 223.866137292 c 128,-1,32
 500.531983025 244.586619883 500.531983025 244.586619883 515.166839493 259.221476351 c 0,33,34
 519.630272099 263.684908957 519.630272099 263.684908957 525.90539264 267.41011012 c 128,-1,35
 532.180513181 271.135311283 532.180513181 271.135311283 538.022600949 276.977399051 c 0,36,37
 557.486960051 296.441758153 557.486960051 296.441758153 557.486960051 324 c 2,38,-1
 557.486960051 430 l 2,39,40
 557.486960051 457.559745444 557.486960051 457.559745444 537.547356078 477.492989842 c 0,41,42
 522.540864435 492.194449092 522.540864435 492.194449092 522.540864435 513.065550455 c 128,-1,43
 522.540864435 533.936651818 522.540864435 533.936651818 537.175720903 548.571508286 c 0,0,1
EndSplineSet
EndChar

StartChar: F
Encoding: 70 70 71
Width: 600
GlyphClass: 2
Flags: W
LayerCount: 2
Fore
SplineSet
13.5130399491 3.5527136788e-15 m 2,0,1
 13.5130399491 -27.5582418469 13.5130399491 -27.5582418469 32.9773990511 -47.0226009489 c 128,-1,2
 52.4417581531 -66.4869600509 52.4417581531 -66.4869600509 80 -66.4869600509 c 2,3,-1
 200.56091 -66.4869600509 l 2,4,5
 202.959579349 -66.2464629072 202.959579349 -66.2464629072 205.007153117 -66.2464629072 c 128,-1,6
 207.054726885 -66.2464629072 207.054726885 -66.2464629072 208.778864385 -66.3512591003 c 0,7,8
 234.038794591 -64.9533875723 234.038794591 -64.9533875723 252.762877321 -46.2346801026 c 128,-1,9
 271.486960051 -27.5159726329 271.486960051 -27.5159726329 271.486960051 -3.5527136788e-15 c 2,10,-1
 271.486960051 186.522844422 l 2,11,12
 271.486960051 207.243327014 271.486960051 207.243327014 286.011396462 221.885779531 c 128,-1,13
 300.535832872 236.528232049 300.535832872 236.528232049 320.204919204 236.528232049 c 0,14,15
 320.838312637 236.528232049 320.838312637 236.528232049 321.477155578 236.513039949 c 2,16,-1
 508 236.513039949 l 2,17,18
 535.558241847 236.513039949 535.558241847 236.513039949 555.022600949 255.977399051 c 128,-1,19
 574.486960051 275.441758153 574.486960051 275.441758153 574.486960051 303 c 2,20,-1
 574.486960051 419 l 2,21,22
 574.486960051 450.037612621 574.486960051 450.037612621 550.779913192 469.907354093 c 0,23,24
 532.871695739 484.916884935 532.871695739 484.916884935 532.871695739 506.949264632 c 128,-1,25
 532.871695739 528.981644329 532.871695739 528.981644329 547.506552207 543.616500797 c 0,26,27
 553.830672085 549.940620675 553.830672085 549.940620675 563.260536296 554.292909642 c 128,-1,28
 572.690400506 558.645198609 572.690400506 558.645198609 581.022600949 566.977399051 c 0,29,30
 600.486960051 586.441758153 600.486960051 586.441758153 600.486960051 614 c 2,31,-1
 600.486960051 730 l 2,32,33
 600.486960051 757.558241847 600.486960051 757.558241847 581.022600949 777.022600949 c 128,-1,34
 561.558241847 796.486960051 561.558241847 796.486960051 534 796.486960051 c 2,35,-1
 80 796.486960051 l 2,36,37
 52.4417581531 796.486960051 52.4417581531 796.486960051 32.9773990511 777.022600949 c 128,-1,38
 13.5130399491 757.558241847 13.5130399491 757.558241847 13.5130399491 730 c 2,39,-1
 13.5130399491 3.5527136788e-15 l 2,0,1
EndSplineSet
EndChar

StartChar: G
Encoding: 71 71 72
Width: 600
GlyphClass: 2
Flags: W
LayerCount: 2
Fore
SplineSet
303.5 -76.4869600509 m 128,-1,1
 390.021786057 -76.4869600509 390.021786057 -76.4869600509 458.715397883 -41.4796386394 c 0,2,3
 495.812719599 -22.574272765 495.812719599 -22.574272765 521.273470573 2.88647820943 c 0,4,5
 602.486960051 84.0999676869 602.486960051 84.0999676869 602.486960051 206 c 2,6,-1
 602.486960051 388 l 2,7,8
 602.486960051 409.402007191 602.486960051 409.402007191 589.943252806 426.869212339 c 0,9,10
 581 440 581 440 580.799185723 456.058985613 c 128,-1,11
 580.598371446 472.117971226 580.598371446 472.117971226 589.943252806 485.130787661 c 0,12,13
 602.486960051 502.597992809 602.486960051 502.597992809 602.486960051 524 c 0,14,15
 602.486960051 608.41112194 602.486960051 608.41112194 563.703007269 673.273939524 c 0,16,17
 525.259199768 737.567893448 525.259199768 737.567893448 457.640492912 772.02742675 c 128,-1,18
 390.021786057 806.486960051 390.021786057 806.486960051 303.5 806.486960051 c 128,-1,19
 216.978213943 806.486960051 216.978213943 806.486960051 148.069681965 771.370112024 c 0,20,21
 111.434604397 752.700312878 111.434604397 752.700312878 86.0043075794 727.270016061 c 0,22,23
 5.51303994906 646.778748431 5.51303994906 646.778748431 5.51303994906 524 c 2,24,-1
 5.51303994906 206 l 2,25,26
 5.51303994906 121.860529333 5.51303994906 121.860529333 43.7750157408 56.7480442136 c 0,27,28
 81.4954407459 -7.44285447923 81.4954407459 -7.44285447923 149.236827345 -41.9649072651 c 128,-1,0
 216.978213943 -76.4869600509 216.978213943 -76.4869600509 303.5 -76.4869600509 c 128,-1,1
EndSplineSet
EndChar

StartChar: H
Encoding: 72 72 73
Width: 600
GlyphClass: 2
Flags: W
LayerCount: 2
Fore
SplineSet
10.5130399491 3.5527136788e-15 m 2,0,1
 10.5130399491 -27.5582418469 10.5130399491 -27.5582418469 29.9773990511 -47.0226009489 c 128,-1,2
 49.4417581531 -66.4869600509 49.4417581531 -66.4869600509 77 -66.4869600509 c 2,3,-1
 197.56091 -66.4869600509 l 2,4,5
 199.959579349 -66.2464629072 199.959579349 -66.2464629072 202.008338673 -66.2464629072 c 128,-1,6
 204.057097997 -66.2464629072 204.057097997 -66.2464629072 205.783327931 -66.3515308315 c 0,7,8
 231.041606152 -64.9596031392 231.041606152 -64.9596031392 249.296176732 -46.726455164 c 0,9,10
 254.15814859 -41.8644833057 254.15814859 -41.8644833057 257.496966274 -36.6708457372 c 0,11,12
 272.704150069 -13.0155855448 272.704150069 -13.0155855448 300.017867607 -13.0156071127 c 0,13,14
 320.738350198 -13.0156071127 320.738350198 -13.0156071127 335.373206666 -27.6504635804 c 0,15,16
 339.208032087 -31.4852890018 339.208032087 -31.4852890018 342.589900487 -36.7511298928 c 128,-1,17
 345.971768886 -42.0169707839 345.971768886 -42.0169707839 350.977399051 -47.0226009489 c 0,18,19
 370.441758153 -66.4869600509 370.441758153 -66.4869600509 398 -66.4869600509 c 2,20,-1
 518.56091 -66.4869600509 l 2,21,22
 520.959579349 -66.2464629072 520.959579349 -66.2464629072 523.007153117 -66.2464629072 c 128,-1,23
 525.054726885 -66.2464629072 525.054726885 -66.2464629072 526.778864385 -66.3512591003 c 0,24,25
 552.038794591 -64.9533875723 552.038794591 -64.9533875723 570.762877321 -46.2346801026 c 128,-1,26
 589.486960051 -27.5159726329 589.486960051 -27.5159726329 589.486960051 -3.5527136788e-15 c 2,27,-1
 589.486960051 730 l 2,28,29
 589.486960051 757.558241847 589.486960051 757.558241847 570.022600949 777.022600949 c 128,-1,30
 550.558241847 796.486960051 550.558241847 796.486960051 523 796.486960051 c 2,31,-1
 398 796.486960051 l 2,32,33
 370.441758153 796.486960051 370.441758153 796.486960051 350.977399051 777.022600949 c 0,34,35
 345.965031105 772.010233003 345.965031105 772.010233003 342.580134366 766.736382579 c 0,36,37
 327.337651033 742.987777121 327.337651033 742.987777121 300 742.987777121 c 0,38,39
 279.279517408 742.987777121 279.279517408 742.987777121 264.644660941 757.622633588 c 0,40,41
 260.804762374 761.462532155 260.804762374 761.462532155 257.419865634 766.736382579 c 128,-1,42
 254.034968895 772.010233003 254.034968895 772.010233003 249.022600949 777.022600949 c 0,43,44
 229.558241847 796.486960051 229.558241847 796.486960051 202 796.486960051 c 2,45,-1
 77 796.486960051 l 2,46,47
 49.4417581531 796.486960051 49.4417581531 796.486960051 29.9773990511 777.022600949 c 128,-1,48
 10.5130399491 757.558241847 10.5130399491 757.558241847 10.5130399491 730 c 2,49,-1
 10.5130399491 3.5527136788e-15 l 2,0,1
EndSplineSet
EndChar

StartChar: I
Encoding: 73 73 74
Width: 600
GlyphClass: 2
Flags: W
LayerCount: 2
Fore
SplineSet
23.5130399491 3.5527136788e-15 m 2,0,-1
 23.5130399491 113 l 2,1,2
 23.5130399491 140.558241847 23.5130399491 140.558241847 42.9773990511 160.022600949 c 128,-1,3
 62.4417581531 179.486960051 62.4417581531 179.486960051 90 179.486960051 c 2,4,-1
 170.513039949 179.486960051 l 1,5,-1
 170.513039949 550.513039949 l 1,6,-1
 90 550.513039949 l 2,7,8
 62.4417581531 550.513039949 62.4417581531 550.513039949 42.9773990511 569.977399051 c 128,-1,9
 23.5130399491 589.441758153 23.5130399491 589.441758153 23.5130399491 617 c 2,10,-1
 23.5130399491 730 l 2,11,12
 23.5130399491 757.558241847 23.5130399491 757.558241847 42.9773990511 777.022600949 c 128,-1,13
 62.4417581531 796.486960051 62.4417581531 796.486960051 90 796.486960051 c 2,14,-1
 510 796.486960051 l 2,15,16
 537.558241847 796.486960051 537.558241847 796.486960051 557.022600949 777.022600949 c 128,-1,17
 576.486960051 757.558241847 576.486960051 757.558241847 576.486960051 730 c 2,18,-1
 576.486960051 617 l 2,19,20
 576.486960051 589.441758153 576.486960051 589.441758153 557.022600949 569.977399051 c 128,-1,21
 537.558241847 550.513039949 537.558241847 550.513039949 510 550.513039949 c 2,22,-1
 429.486960051 550.513039949 l 1,23,-1
 429.486960051 179.486960051 l 1,24,-1
 510 179.486960051 l 2,25,26
 537.558241847 179.486960051 537.558241847 179.486960051 557.022600949 160.022600949 c 128,-1,27
 576.486960051 140.558241847 576.486960051 140.558241847 576.486960051 113 c 2,28,-1
 576.486960051 -3.5527136788e-15 l 2,29,30
 576.486960051 -27.5582418469 576.486960051 -27.5582418469 557.243480025 -46.7791209234 c 128,-1,31
 538 -66 538 -66 510 -66.4869600509 c 2,32,-1
 90 -66.4869600509 l 2,33,34
 62.4417581531 -66.4869600509 62.4417581531 -66.4869600509 42.9773990511 -47.0226009489 c 128,-1,35
 23.5130399491 -27.5582418469 23.5130399491 -27.5582418469 23.5130399491 3.5527136788e-15 c 2,0,-1
EndSplineSet
EndChar

StartChar: J
Encoding: 74 74 75
Width: 600
GlyphClass: 2
Flags: W
LayerCount: 2
Fore
SplineSet
43.3457711441 7.9950734697 m 0,0,1
 -36.4869600509 87.8278046648 -36.4869600509 87.8278046648 -36.4869600509 216 c 0,2,3
 -36.4869600509 243.558241847 -36.4869600509 243.558241847 -17.0226009489 263.022600949 c 128,-1,4
 2.44175815313 282.486960051 2.44175815313 282.486960051 30 282.486960051 c 2,5,-1
 155 282.486960051 l 2,6,7
 182.558241847 282.486960051 182.558241847 282.486960051 202.022600949 263.022600949 c 128,-1,8
 221.486960051 243.558241847 221.486960051 243.558241847 221.486960051 216.245485307 c 0,9,10
 221.486960051 188.536889833 221.486960051 188.536889833 233.01351004 177.011924942 c 128,-1,11
 244.540060029 165.486960051 244.540060029 165.486960051 270 165.486960051 c 128,-1,12
 295.441758153 165.486960051 295.441758153 165.486960051 306.977399051 177.022600949 c 128,-1,13
 318.513039949 188.558241847 318.513039949 188.558241847 318.513039949 215 c 2,14,-1
 318.513039949 550.513039949 l 1,15,-1
 180 550.513039949 l 2,16,17
 152.441758153 550.513039949 152.441758153 550.513039949 133.220879077 569.756519975 c 128,-1,18
 114 589 114 589 113.513039949 617 c 2,19,-1
 113.513039949 730 l 2,20,21
 113.513039949 757.558241847 113.513039949 757.558241847 132.977399051 777.022600949 c 128,-1,22
 152.441758153 796.486960051 152.441758153 796.486960051 180 796.486960051 c 2,23,-1
 510 796.486960051 l 2,24,25
 537.558241847 796.486960051 537.558241847 796.486960051 557.022600949 777.022600949 c 128,-1,26
 576.486960051 757.558241847 576.486960051 757.558241847 576.486960051 730 c 2,27,-1
 576.486960051 215 l 2,28,29
 576.486960051 82.1759234543 576.486960051 82.1759234543 491.904448499 2.84448170167 c 128,-1,30
 407.321936947 -76.4869600509 407.321936947 -76.4869600509 267.579514932 -76.4869600509 c 128,-1,31
 127.837092916 -76.4869600509 127.837092916 -76.4869600509 43.3457711441 7.9950734697 c 0,0,1
EndSplineSet
EndChar

StartChar: K
Encoding: 75 75 76
Width: 600
GlyphClass: 2
Flags: W
LayerCount: 2
Fore
SplineSet
9.51303994906 3.5527136788e-15 m 2,0,-1
 9.51303994906 730 l 2,1,2
 9.51303994906 757.558241847 9.51303994906 757.558241847 28.9773990511 777.022600949 c 128,-1,3
 48.4417581531 796.486960051 48.4417581531 796.486960051 76 796.486960051 c 2,4,-1
 201 796.486960051 l 2,5,6
 228.558241847 796.486960051 228.558241847 796.486960051 248.022600949 777.022600949 c 128,-1,7
 267.486960051 757.558241847 267.486960051 757.558241847 267.486960051 730 c 2,8,-1
 267.486960051 547.510011925 l 1,9,-1
 365.735544477 758.143667745 l 2,10,11
 370.663556612 768.70875851 370.663556612 768.70875851 378.977399051 777.022600949 c 0,12,13
 398.441758153 796.486960051 398.441758153 796.486960051 426 796.486960051 c 2,14,-1
 561 796.486960051 l 2,15,16
 588.558241847 796.486960051 588.558241847 796.486960051 608.022600949 777.022600949 c 128,-1,17
 627.564823701 757.480378197 627.564823701 757.480378197 627.564823701 729.352119152 c 0,18,19
 627.564823701 714.787752436 627.564823701 714.787752436 621.153731281 701.62017162 c 2,20,-1
 470.228870309 381.364978825 l 1,21,-1
 629.632186629 27.3413344399 l 2,22,23
 635.569375487 14.6029071724 635.569375487 14.6029071724 635.569375487 0.629456788928 c 0,24,25
 635.569375487 -27.4758264112 635.569375487 -27.4758264112 616.284687743 -46.7379132056 c 128,-1,26
 597 -66 597 -66 569 -66.4869600509 c 2,27,-1
 430 -66.4869600509 l 2,28,29
 402.441758153 -66.4869600509 402.441758153 -66.4869600509 382.977399051 -47.0226009489 c 0,30,31
 374.251401807 -38.2966037051 374.251401807 -38.2966037051 369.267968223 -27.1184853186 c 2,32,-1
 267.486960051 201.181970512 l 1,33,-1
 267.486960051 -3.5527136788e-15 l 2,34,35
 267.486960051 -27.5582418469 267.486960051 -27.5582418469 248.243480025 -46.7791209234 c 128,-1,36
 229 -66 229 -66 201 -66.4869600509 c 2,37,-1
 76 -66.4869600509 l 2,38,39
 48.4417581531 -66.4869600509 48.4417581531 -66.4869600509 28.9773990511 -47.0226009489 c 128,-1,40
 9.51303994906 -27.5582418469 9.51303994906 -27.5582418469 9.51303994906 3.5527136788e-15 c 2,0,-1
EndSplineSet
EndChar

StartChar: L
Encoding: 76 76 77
Width: 600
GlyphClass: 2
Flags: W
LayerCount: 2
Fore
SplineSet
54.5130399491 3.5527136788e-15 m 2,0,-1
 54.5130399491 730 l 2,1,2
 54.5130399491 757.558241847 54.5130399491 757.558241847 73.9773990511 777.022600949 c 128,-1,3
 93.4417581531 796.486960051 93.4417581531 796.486960051 121 796.486960051 c 2,4,-1
 246 796.486960051 l 2,5,6
 273.558241847 796.486960051 273.558241847 796.486960051 293.022600949 777.022600949 c 128,-1,7
 312.486960051 757.558241847 312.486960051 757.558241847 312.486960051 730 c 2,8,-1
 312.486960051 179.486960051 l 1,9,-1
 556 179.486960051 l 2,10,11
 583.558241847 179.486960051 583.558241847 179.486960051 603.022600949 160.022600949 c 128,-1,12
 622.486960051 140.558241847 622.486960051 140.558241847 622.486960051 113 c 2,13,-1
 622.486960051 -3.5527136788e-15 l 2,14,15
 622.486960051 -27.5582418469 622.486960051 -27.5582418469 603.243480025 -46.7791209234 c 128,-1,16
 584 -66 584 -66 556 -66.4869600509 c 2,17,-1
 121 -66.4869600509 l 2,18,19
 93.4417581531 -66.4869600509 93.4417581531 -66.4869600509 73.9773990511 -47.0226009489 c 128,-1,20
 54.5130399491 -27.5582418469 54.5130399491 -27.5582418469 54.5130399491 3.5527136788e-15 c 2,0,-1
EndSplineSet
EndChar

StartChar: M
Encoding: 77 77 78
Width: 600
GlyphClass: 2
Flags: W
LayerCount: 2
Fore
SplineSet
-10.4869600509 3.5527136788e-15 m 2,0,-1
 -10.4869600509 730 l 2,1,2
 -10.4869600509 757.558241847 -10.4869600509 757.558241847 8.97739905109 777.022600949 c 128,-1,3
 28.4417581531 796.486960051 28.4417581531 796.486960051 56 796.486960051 c 2,4,-1
 204 796.486960051 l 2,5,6
 231.558241847 796.486960051 231.558241847 796.486960051 251.022600949 777.022600949 c 0,7,8
 262.843613729 765.201588169 262.843613729 765.201588169 267.645360724 749.287226698 c 2,9,-1
 299.728897272 642.953219856 l 1,10,-1
 331.279297191 749.035723933 l 2,11,12
 336.057981153 765.103183051 336.057981153 765.103183051 347.977399051 777.022600949 c 0,13,14
 367.441758153 796.486960051 367.441758153 796.486960051 395 796.486960051 c 2,15,-1
 544 796.486960051 l 2,16,17
 571.558241847 796.486960051 571.558241847 796.486960051 591.022600949 777.022600949 c 128,-1,18
 610.486960051 757.558241847 610.486960051 757.558241847 610.486960051 730 c 2,19,-1
 610.486960051 -3.5527136788e-15 l 2,20,21
 610.486960051 -27.5582418469 610.486960051 -27.5582418469 591.243480025 -46.7791209234 c 128,-1,22
 572 -66 572 -66 544 -66.4869600509 c 2,23,-1
 427 -66.4869600509 l 2,24,25
 399.441758153 -66.4869600509 399.441758153 -66.4869600509 379.977399051 -47.0226009489 c 128,-1,26
 360.513039949 -27.5582418469 360.513039949 -27.5582418469 360.513039949 3.5527136788e-15 c 2,27,-1
 360.513039949 247.794700167 l 1,28,29
 357.315081491 247.513039949 357.315081491 247.513039949 354 247.513039949 c 2,30,-1
 245 247.513039949 l 2,31,32
 242.201755123 247.513039949 242.201755123 247.513039949 239.486960051 247.713721999 c 1,33,-1
 239.486960051 -3.5527136788e-15 l 2,34,35
 239.486960051 -27.5582418469 239.486960051 -27.5582418469 220.243480025 -46.7791209234 c 128,-1,36
 201 -66 201 -66 173 -66.4869600509 c 2,37,-1
 56 -66.4869600509 l 2,38,39
 28.4417581531 -66.4869600509 28.4417581531 -66.4869600509 8.97739905109 -47.0226009489 c 128,-1,40
 -10.4869600509 -27.5582418469 -10.4869600509 -27.5582418469 -10.4869600509 3.5527136788e-15 c 2,0,-1
EndSplineSet
EndChar

StartChar: N
Encoding: 78 78 79
Width: 600
GlyphClass: 2
Flags: W
LayerCount: 2
Fore
SplineSet
5.51303994906 3.5527136788e-15 m 2,0,-1
 5.51303994906 730 l 2,1,2
 5.51303994906 757.558241847 5.51303994906 757.558241847 24.9773990511 777.022600949 c 128,-1,3
 44.4417581531 796.486960051 44.4417581531 796.486960051 72 796.486960051 c 2,4,-1
 225 796.486960051 l 2,5,6
 252.558241847 796.486960051 252.558241847 796.486960051 272.022600949 777.022600949 c 0,7,8
 282.89486246 766.150339438 282.89486246 766.150339438 287.864478779 751.706626983 c 2,9,-1
 347.513039949 578.343813731 l 1,10,-1
 347.513039949 730 l 2,11,12
 347.513039949 757.558241847 347.513039949 757.558241847 366.977399051 777.022600949 c 128,-1,13
 386.441758153 796.486960051 386.441758153 796.486960051 414 796.486960051 c 2,14,-1
 528 796.486960051 l 2,15,16
 555.558241847 796.486960051 555.558241847 796.486960051 575.022600949 777.022600949 c 128,-1,17
 594.486960051 757.558241847 594.486960051 757.558241847 594.486960051 730 c 2,18,-1
 594.486960051 -3.5527136788e-15 l 2,19,20
 594.486960051 -27.5582418469 594.486960051 -27.5582418469 575.243480025 -46.7791209234 c 128,-1,21
 556 -66 556 -66 528 -66.4869600509 c 2,22,-1
 375 -66.4869600509 l 2,23,24
 347.441758153 -66.4869600509 347.441758153 -66.4869600509 327.977399051 -47.0226009489 c 0,25,26
 317.030388162 -36.0755900596 317.030388162 -36.0755900596 312.070406706 -21.5164405115 c 2,27,-1
 252.486960051 153.380243699 l 1,28,-1
 252.486960051 -3.5527136788e-15 l 2,29,30
 252.486960051 -27.5582418469 252.486960051 -27.5582418469 233.243480025 -46.7791209234 c 128,-1,31
 214 -66 214 -66 186 -66.4869600509 c 2,32,-1
 72 -66.4869600509 l 2,33,34
 44.4417581531 -66.4869600509 44.4417581531 -66.4869600509 24.9773990511 -47.0226009489 c 128,-1,35
 5.51303994906 -27.5582418469 5.51303994906 -27.5582418469 5.51303994906 3.5527136788e-15 c 2,0,-1
EndSplineSet
EndChar

StartChar: O
Encoding: 79 79 80
Width: 600
GlyphClass: 2
Flags: W
LayerCount: 2
Fore
SplineSet
82.9129526843 4.95361012376 m 0,0,1
 5.51303994906 82.353522859 5.51303994906 82.353522859 5.51303994906 206 c 2,2,-1
 5.51303994906 524 l 2,3,4
 5.51303994906 651.543985148 5.51303994906 651.543985148 86.9611467769 729.0154726 c 128,-1,5
 168.409253605 806.486960051 168.409253605 806.486960051 300 806.486960051 c 0,6,7
 435.639580537 806.486960051 435.639580537 806.486960051 517.121806909 725.0125039 c 0,8,9
 594.486960051 647.647350758 594.486960051 647.647350758 594.486960051 525 c 2,10,-1
 594.486960051 206 l 2,11,12
 594.486960051 78.4560148516 594.486960051 78.4560148516 513.038853223 0.984527400336 c 128,-1,13
 431.590746395 -76.4869600509 431.590746395 -76.4869600509 297.975892623 -76.4869600509 c 128,-1,14
 164.36103885 -76.4869600509 164.36103885 -76.4869600509 82.9129526843 4.95361012376 c 0,0,1
EndSplineSet
EndChar

StartChar: P
Encoding: 80 80 81
Width: 600
GlyphClass: 2
Flags: W
LayerCount: 2
Fore
SplineSet
10.5130399491 3.5527136788e-15 m 2,0,-1
 10.5130399491 730 l 2,1,2
 10.5130399491 757.558241847 10.5130399491 757.558241847 29.9773990511 777.022600949 c 128,-1,3
 49.4417581531 796.486960051 49.4417581531 796.486960051 77 796.486960051 c 2,4,-1
 320 796.486960051 l 2,5,6
 409.137071816 796.486960051 409.137071816 796.486960051 477.903784832 761.15727263 c 0,7,8
 549.411615972 724.419304338 549.411615972 724.419304338 588.949288012 657.864223072 c 128,-1,9
 628.486960051 591.309141806 628.486960051 591.309141806 628.486960051 505 c 128,-1,10
 628.486960051 418.690858194 628.486960051 418.690858194 589.195943722 352.550980707 c 0,11,12
 549.411615972 285.580695662 549.411615972 285.580695662 479.274343894 249.546867806 c 128,-1,13
 409.137071816 213.513039949 409.137071816 213.513039949 320 213.513039949 c 2,14,-1
 268.486960051 213.513039949 l 1,15,-1
 268.486960051 -3.5527136788e-15 l 2,16,17
 268.486960051 -27.5582418469 268.486960051 -27.5582418469 249.243480025 -46.7791209234 c 128,-1,18
 230 -66 230 -66 202 -66.4869600509 c 2,19,-1
 77 -66.4869600509 l 2,20,21
 49.4417581531 -66.4869600509 49.4417581531 -66.4869600509 29.9773990511 -47.0226009489 c 128,-1,22
 10.5130399491 -27.5582418469 10.5130399491 -27.5582418469 10.5130399491 3.5527136788e-15 c 2,0,-1
EndSplineSet
EndChar

StartChar: Q
Encoding: 81 81 82
Width: 600
GlyphClass: 2
Flags: W
LayerCount: 2
Fore
SplineSet
610.532375384 -179.337086696 m 0,0,1
 610.532375384 -207.512826514 610.532375384 -207.512826514 591.022600949 -227.022600949 c 128,-1,2
 571.558241847 -246.486960051 571.558241847 -246.486960051 544 -246.486960051 c 2,3,-1
 409 -246.486960051 l 2,4,5
 381.441758153 -246.486960051 381.441758153 -246.486960051 361.977399051 -227.022600949 c 0,6,7
 356.255236296 -221.300438194 356.255236296 -221.300438194 352.099136072 -214.440855299 c 2,8,-1
 267.753071503 -75.2289040696 l 1,9,10
 201.030435274 -69.9026564464 201.030435274 -69.9026564464 147.343227889 -42.0266064582 c 0,11,12
 109.381746476 -22.315837263 109.381746476 -22.315837263 83.1398920371 3.92601717616 c 0,13,14
 1.51303994906 85.5528692642 1.51303994906 85.5528692642 1.51303994906 208 c 2,15,-1
 1.51303994906 522 l 2,16,17
 1.51303994906 605.980586479 1.51303994906 605.980586479 38.9953386757 670.423836921 c 0,18,19
 56.0294038807 699.710475344 56.0294038807 699.710475344 82.3951546167 726.07622608 c 128,-1,20
 108.760905353 752.441976816 108.760905353 752.441976816 147.071891935 772.144769915 c 0,21,22
 213.848372755 806.486960051 213.848372755 806.486960051 300 806.486960051 c 128,-1,23
 386.28868371 806.486960051 386.28868371 806.486960051 452.656772111 772.026606458 c 0,24,25
 490.618253524 752.315837263 490.618253524 752.315837263 516.860107963 726.073982824 c 0,26,27
 598.486960051 644.447130736 598.486960051 644.447130736 598.486960051 522 c 2,28,-1
 598.486960051 208 l 2,29,30
 598.486960051 124.17571744 598.486960051 124.17571744 561.150057607 59.327413196 c 0,31,32
 541.248603367 24.7617295158 541.248603367 24.7617295158 512.485702119 -1.60816913983 c 1,33,-1
 600.692220479 -145.217128784 l 2,34,35
 610.532375384 -160.895655893 610.532375384 -160.895655893 610.532375384 -179.337086696 c 0,0,1
EndSplineSet
EndChar

StartChar: R
Encoding: 82 82 83
Width: 600
GlyphClass: 2
Flags: W
LayerCount: 2
Fore
SplineSet
9.51303994906 3.5527136788e-15 m 2,0,-1
 9.51303994906 730 l 2,1,2
 9.51303994906 757.558241847 9.51303994906 757.558241847 28.9773990511 777.022600949 c 128,-1,3
 48.4417581531 796.486960051 48.4417581531 796.486960051 76 796.486960051 c 2,4,-1
 307 796.486960051 l 2,5,6
 395.88395726 796.486960051 395.88395726 796.486960051 463.479616805 762.37326271 c 0,7,8
 533.70237769 726.933738526 533.70237769 726.933738526 573.583221243 662.459708115 c 128,-1,9
 613.486960051 597.948663708 613.486960051 597.948663708 613.486960051 513 c 0,10,11
 613.486960051 419.750481874 613.486960051 419.750481874 565.790320744 348.532212225 c 0,12,13
 538.144866465 307.253383232 538.144866465 307.253383232 499.025717457 279.300035474 c 1,14,-1
 617.164895865 28.3561254747 l 2,15,16
 623.564930732 15.1982806593 623.564930732 15.1982806593 623.564930732 0.647504902617 c 0,17,18
 623.564930732 -27.4802711661 623.564930732 -27.4802711661 604.282465366 -46.7401355831 c 128,-1,19
 585 -66 585 -66 557 -66.4869600509 c 2,20,-1
 417 -66.4869600509 l 2,21,22
 389.441758153 -66.4869600509 389.441758153 -66.4869600509 369.977399051 -47.0226009489 c 0,23,24
 361.091708178 -38.1369100755 361.091708178 -38.1369100755 356.091818154 -26.7198383671 c 2,25,-1
 267.486960051 175.606215568 l 1,26,-1
 267.486960051 -3.5527136788e-15 l 2,27,28
 267.486960051 -27.5582418469 267.486960051 -27.5582418469 248.243480025 -46.7791209234 c 128,-1,29
 229 -66 229 -66 201 -66.4869600509 c 2,30,-1
 76 -66.4869600509 l 2,31,32
 48.4417581531 -66.4869600509 48.4417581531 -66.4869600509 28.9773990511 -47.0226009489 c 128,-1,33
 9.51303994906 -27.5582418469 9.51303994906 -27.5582418469 9.51303994906 3.5527136788e-15 c 2,0,-1
EndSplineSet
EndChar

StartChar: S
Encoding: 83 83 84
Width: 600
GlyphClass: 2
Flags: W
LayerCount: 2
Fore
SplineSet
536.888514125 465.049332374 m 0,0,1
 544.67326393 472.834082178 544.67326393 472.834082178 556.700506795 477.25831497 c 128,-1,2
 568.727749661 481.682547763 568.727749661 481.682547763 579.022600949 491.977399051 c 0,3,4
 598.486960051 511.441758153 598.486960051 511.441758153 598.486960051 539 c 0,5,6
 598.486960051 651.198241847 598.486960051 651.198241847 526.122600949 723.562600949 c 0,7,8
 443.198241847 806.486960051 443.198241847 806.486960051 301.25353725 806.486960051 c 0,9,10
 161.469700682 806.486960051 161.469700682 806.486960051 78.3420433534 723.359302722 c 0,11,12
 5.51303994906 650.530299318 5.51303994906 650.530299318 5.51303994906 537.117449826 c 128,-1,13
 5.51303994906 423.704600333 5.51303994906 423.704600333 77.3011854293 346.297811472 c 0,14,15
 90.6112438598 331.997700627 90.6112438598 331.997700627 90.6112438598 312.454241014 c 0,16,17
 90.6112438598 291.600049818 90.6112438598 291.600049818 75.9751623087 276.963968267 c 0,18,19
 64.1822472953 265.171053253 64.1822472953 265.171053253 47.6991095986 262.829264098 c 0,20,21
 25.6517546455 259.696956543 25.6517546455 259.696956543 9.97739905109 244.022600949 c 0,22,23
 -9 225 -9 225 -9.48696005094 197 c 0,24,25
 -9.48696005094 84.717524394 -9.48696005094 84.717524394 65.4338986004 9.79666574264 c 0,26,27
 98.5739624499 -23.3433981069 98.5739624499 -23.3433981069 144.285317932 -44.7312800296 c 0,28,29
 212.155300722 -76.4869600509 212.155300722 -76.4869600509 301.193386877 -76.4869600509 c 128,-1,30
 390.231473031 -76.4869600509 390.231473031 -76.4869600509 460.963186024 -42.4309500915 c 0,31,32
 529.044842594 -9.65089322425 529.044842594 -9.65089322425 569.255615504 54.0161638825 c 128,-1,33
 609.486960051 117.715792749 609.486960051 117.715792749 609.486960051 200 c 0,34,35
 609.486960051 317.015422568 609.486960051 317.015422568 535.782605458 395.479658728 c 0,36,37
 522.252804043 409.839996768 522.252804043 409.839996768 522.252804043 430.12680953 c 128,-1,38
 522.252804043 450.413622292 522.252804043 450.413622292 536.888514125 465.049332374 c 0,0,1
EndSplineSet
EndChar

StartChar: T
Encoding: 84 84 85
Width: 600
GlyphClass: 2
Flags: W
LayerCount: 2
Fore
SplineSet
429.486960051 550.513039949 m 1,0,-1
 429.486960051 -3.5527136788e-15 l 2,1,2
 429.486960051 -27.5582418469 429.486960051 -27.5582418469 410.243480025 -46.7791209234 c 128,-1,3
 391 -66 391 -66 363 -66.4869600509 c 2,4,-1
 237 -66.4869600509 l 2,5,6
 209.441758153 -66.4869600509 209.441758153 -66.4869600509 189.977399051 -47.0226009489 c 128,-1,7
 170.513039949 -27.5582418469 170.513039949 -27.5582418469 170.513039949 3.5527136788e-15 c 2,8,-1
 170.513039949 550.513039949 l 1,9,-1
 46 550.513039949 l 2,10,11
 18.4417581531 550.513039949 18.4417581531 550.513039949 -1.02260094891 569.977399051 c 128,-1,12
 -20.4869600509 589.441758153 -20.4869600509 589.441758153 -20.4869600509 617 c 2,13,-1
 -20.4869600509 730 l 2,14,15
 -20.4869600509 757.558241847 -20.4869600509 757.558241847 -1.02260094891 777.022600949 c 128,-1,16
 18.4417581531 796.486960051 18.4417581531 796.486960051 46 796.486960051 c 2,17,-1
 554 796.486960051 l 2,18,19
 581.558241847 796.486960051 581.558241847 796.486960051 601.022600949 777.022600949 c 128,-1,20
 620.486960051 757.558241847 620.486960051 757.558241847 620.486960051 730 c 2,21,-1
 620.486960051 617 l 2,22,23
 620.486960051 589.441758153 620.486960051 589.441758153 601.022600949 569.977399051 c 128,-1,24
 581.558241847 550.513039949 581.558241847 550.513039949 554 550.513039949 c 2,25,-1
 429.486960051 550.513039949 l 1,0,-1
EndSplineSet
EndChar

StartChar: U
Encoding: 85 85 86
Width: 600
GlyphClass: 2
Flags: W
LayerCount: 2
Fore
SplineSet
594.486960051 208 m 2,0,-1
 594.486960051 730 l 2,1,2
 594.486960051 757.558241847 594.486960051 757.558241847 575.022600949 777.022600949 c 128,-1,3
 555.558241847 796.486960051 555.558241847 796.486960051 528 796.486960051 c 2,4,-1
 402 796.486960051 l 2,5,6
 374.441758153 796.486960051 374.441758153 796.486960051 354.977399051 777.022600949 c 0,7,8
 348.363423396 770.408625293 348.363423396 770.408625293 344.380205039 763.177439591 c 128,-1,9
 340.396986683 755.94625389 340.396986683 755.94625389 335.355339059 750.904606266 c 0,10,11
 320.720482592 736.269749799 320.720482592 736.269749799 300 736.269749799 c 128,-1,12
 279.279517408 736.269749799 279.279517408 736.269749799 264.644660941 750.904606266 c 0,13,14
 259.603013317 755.94625389 259.603013317 755.94625389 255.619794961 763.177439591 c 128,-1,15
 251.636576604 770.408625293 251.636576604 770.408625293 245.022600949 777.022600949 c 0,16,17
 225.558241847 796.486960051 225.558241847 796.486960051 198 796.486960051 c 2,18,-1
 72 796.486960051 l 2,19,20
 44.4417581531 796.486960051 44.4417581531 796.486960051 24.9773990511 777.022600949 c 128,-1,21
 5.51303994906 757.558241847 5.51303994906 757.558241847 5.51303994906 730 c 2,22,-1
 5.51303994906 208 l 2,23,24
 5.51303994906 81.4029232017 5.51303994906 81.4029232017 83.150695309 3.76526784174 c 0,25,26
 163.405928831 -76.4869600509 163.405928831 -76.4869600509 300.243335003 -76.4869600509 c 128,-1,27
 437.080193066 -76.4869600509 437.080193066 -76.4869600509 515.783576559 2.21642344134 c 128,-1,28
 594.486960051 80.9198069336 594.486960051 80.9198069336 594.486960051 208 c 2,0,-1
EndSplineSet
EndChar

StartChar: V
Encoding: 86 86 87
Width: 600
GlyphClass: 2
Flags: W
LayerCount: 2
Fore
SplineSet
219 -66.4869600509 m 2,0,-1
 381 -66.4869600509 l 2,1,2
 408.511880068 -66.4869600509 408.511880068 -66.4869600509 428.022600949 -47.0226009489 c 0,3,4
 440.997858515 -34.047343383 440.997858515 -34.047343383 445.462687363 -16.3336202359 c 2,5,-1
 629.462687363 713.666379764 l 2,6,7
 631.840905247 723.101700718 631.840905247 723.101700718 631.840905247 731.875791646 c 0,8,9
 631.840905247 757.204296651 631.840905247 757.204296651 612.199573547 776.845628351 c 128,-1,10
 592.558241847 796.486960051 592.558241847 796.486960051 565 796.486960051 c 2,11,-1
 442.43909 796.486960051 l 2,12,13
 440.040420651 796.246462907 440.040420651 796.246462907 437.989494826 796.246462907 c 128,-1,14
 435.938569002 796.246462907 435.938569002 796.246462907 434.208514388 796.352028315 c 0,15,16
 408.969360201 794.971808819 408.969360201 794.971808819 390.977399051 777.022600949 c 0,17,18
 377.361290203 763.406492101 377.361290203 763.406492101 373.145747144 744.692632726 c 2,19,-1
 350.168735192 642.691878733 l 2,20,21
 346.999153944 628.621307775 346.999153944 628.621307775 336.761478118 618.383631949 c 0,22,23
 322.126621651 603.748775481 322.126621651 603.748775481 301.406139059 603.748775481 c 128,-1,24
 280.685656468 603.748775481 280.685656468 603.748775481 266.0508 618.383631949 c 0,25,26
 255.956735458 628.47769649 255.956735458 628.47769649 252.727823729 642.324200845 c 2,27,-1
 228.74215939 745.181644317 l 2,28,29
 224.447706789 763.597495109 224.447706789 763.597495109 211.022600949 777.022600949 c 0,30,31
 191.558241847 796.486960051 191.558241847 796.486960051 164 796.486960051 c 2,32,-1
 35 796.486960051 l 2,33,34
 7.44175815313 796.486960051 7.44175815313 796.486960051 -12.199573547 776.845628351 c 128,-1,35
 -31.8409052471 757.204296651 -31.8409052471 757.204296651 -31.8409052471 731.875791646 c 0,36,37
 -31.8409052471 723.101700718 -31.8409052471 723.101700718 -29.4626873628 713.666379764 c 2,38,-1
 154.537312637 -16.3336202359 l 2,39,40
 159.002141485 -34.047343383 159.002141485 -34.047343383 171.977399051 -47.0226009489 c 0,41,42
 191.441758153 -66.4869600509 191.441758153 -66.4869600509 219 -66.4869600509 c 2,0,-1
EndSplineSet
EndChar

StartChar: W
Encoding: 87 87 88
Width: 600
GlyphClass: 2
Flags: W
LayerCount: 2
Fore
SplineSet
-50.5460748166 730.984499937 m 0,0,1
 -50.5460748166 757.499127081 -50.5460748166 757.499127081 -31.2730374083 776.749563541 c 128,-1,2
 -12 796 -12 796 16 796.486960051 c 2,3,-1
 124 796.486960051 l 2,4,5
 151.558241847 796.486960051 151.558241847 796.486960051 171.022600949 777.022600949 c 0,6,7
 181.678483608 766.36671829 181.678483608 766.36671829 186.512735276 753.004922294 c 1,8,9
 191.360469643 766.405671541 191.360469643 766.405671541 201.977399051 777.022600949 c 0,10,11
 221.441758153 796.486960051 221.441758153 796.486960051 249 796.486960051 c 2,12,-1
 354 796.486960051 l 2,13,14
 381.558241847 796.486960051 381.558241847 796.486960051 401.022600949 777.022600949 c 0,15,16
 410.609150526 767.436051372 410.609150526 767.436051372 415.489730017 755.599538594 c 1,17,18
 420.364421819 767.409623716 420.364421819 767.409623716 429.977399051 777.022600949 c 0,19,20
 449.441758153 796.486960051 449.441758153 796.486960051 477 796.486960051 c 2,21,-1
 584 796.486960051 l 2,22,23
 611.558241847 796.486960051 611.558241847 796.486960051 631.022600949 777.022600949 c 128,-1,24
 650.552571535 757.492630363 650.552571535 757.492630363 650.552571535 731.02846582 c 0,25,26
 650.552571535 726.992613694 650.552571535 726.992613694 650.098362568 722.795492862 c 2,27,-1
 571.098362568 -7.20450713779 l 2,28,29
 568.581243915 -30.4639579824 568.581243915 -30.4639579824 550.790621958 -48.2319789912 c 128,-1,30
 533 -66 533 -66 505 -66.4869600509 c 2,31,-1
 367 -66.4869600509 l 2,32,33
 339.441758153 -66.4869600509 339.441758153 -66.4869600509 319.977399051 -47.0226009489 c 0,34,35
 303.346961874 -30.3921637718 303.346961874 -30.3921637718 300.882310862 -7.02362084475 c 2,36,-1
 298.60691257 14.5505795931 l 1,37,-1
 296.046905061 -7.66507879131 l 2,38,39
 293.398649289 -30.6465526089 293.398649289 -30.6465526089 275.699324644 -48.3232763044 c 128,-1,40
 258 -66 258 -66 230 -66.4869600509 c 2,41,-1
 91 -66.4869600509 l 2,42,43
 63.4417581531 -66.4869600509 63.4417581531 -66.4869600509 43.9773990511 -47.0226009489 c 0,44,45
 27.275613117 -30.3208150148 27.275613117 -30.3208150148 24.8636090111 -6.84397505107 c 2,46,-1
 -50.1363909889 723.156024949 l 2,47,48
 -50.5460748166 727.143614205 -50.5460748166 727.143614205 -50.5460748166 730.984499937 c 0,0,1
EndSplineSet
EndChar

StartChar: X
Encoding: 88 88 89
Width: 600
GlyphClass: 2
Flags: W
LayerCount: 2
Fore
SplineSet
-38.549139186 0.678206408434 m 0,0,1
 -38.549139186 17.1420344689 -38.549139186 17.1420344689 -30.5234397276 31.6068178678 c 2,2,-1
 154.506764425 374.187492883 l 1,3,-1
 -18.6783859655 698.681774668 l 2,4,5
 -26.5506166799 713.032983247 -26.5506166799 713.032983247 -26.5506166799 729.322734543 c 0,6,7
 -26.5506166799 757.494585218 -26.5506166799 757.494585218 -7.27530833996 776.747292609 c 128,-1,8
 12 796 12 796 40 796.486960051 c 2,9,-1
 180 796.486960051 l 2,10,11
 207.558241847 796.486960051 207.558241847 796.486960051 227.022600949 777.022600949 c 0,12,13
 234.629554201 769.415647697 234.629554201 769.415647697 239.419191276 759.888434819 c 2,14,-1
 301.661317059 636.080491456 l 1,15,-1
 364.710307787 760.144634502 l 2,16,17
 369.47487881 769.520080708 369.47487881 769.520080708 376.977399051 777.022600949 c 0,18,19
 396.441758153 796.486960051 396.441758153 796.486960051 424 796.486960051 c 2,20,-1
 560 796.486960051 l 2,21,22
 587.558241847 796.486960051 587.558241847 796.486960051 607.022600949 777.022600949 c 128,-1,23
 626.549569365 757.495632533 626.549569365 757.495632533 626.549569365 729.322029039 c 0,24,25
 626.549569365 712.908836272 626.549569365 712.908836272 618.568620266 698.476977829 c 2,26,-1
 445.497292885 376.92866959 l 1,27,-1
 630.627576012 31.4132401897 l 2,28,29
 638.550131508 17.0245825054 638.550131508 17.0245825054 638.550131508 0.677615653915 c 0,30,31
 638.550131508 -27.4950703898 638.550131508 -27.4950703898 619.275065754 -46.7475351949 c 128,-1,32
 600 -66 600 -66 572 -66.4869600509 c 2,33,-1
 432 -66.4869600509 l 2,34,35
 404.441758153 -66.4869600509 404.441758153 -66.4869600509 384.977399051 -47.0226009489 c 0,36,37
 377.507342587 -39.5525444848 377.507342587 -39.5525444848 372.750805309 -30.2241898224 c 2,38,-1
 298.361398752 115.665714299 l 1,39,-1
 223.131271613 -30.4543403357 l 2,40,41
 218.398645545 -39.6465563528 218.398645545 -39.6465563528 211.022600949 -47.0226009489 c 0,42,43
 192 -66 192 -66 164 -66.4869600509 c 2,44,-1
 28 -66.4869600509 l 2,45,46
 0.441758153131 -66.4869600509 0.441758153131 -66.4869600509 -19.0226009489 -47.0226009489 c 128,-1,47
 -38.549139186 -27.4960627118 -38.549139186 -27.4960627118 -38.549139186 0.678206408434 c 0,0,1
EndSplineSet
EndChar

StartChar: Y
Encoding: 89 89 90
Width: 600
GlyphClass: 2
Flags: W
LayerCount: 2
Fore
SplineSet
429.486960051 -3.5527136788e-15 m 2,0,1
 429.486960051 -27.5582418469 429.486960051 -27.5582418469 410.243480025 -46.7791209234 c 128,-1,2
 391 -66 391 -66 363 -66.4869600509 c 2,3,-1
 237 -66.4869600509 l 2,4,5
 209.441758153 -66.4869600509 209.441758153 -66.4869600509 189.977399051 -47.0226009489 c 128,-1,6
 170.513039949 -27.5582418469 170.513039949 -27.5582418469 170.513039949 3.5527136788e-15 c 2,7,-1
 170.513039949 250.37511997 l 1,8,-1
 -37.4067091325 702.163359797 l 2,9,10
 -43.5672404047 715.107124221 -43.5672404047 715.107124221 -43.5672404047 729.361261552 c 0,11,12
 -43.5672404047 757.477961493 -43.5672404047 757.477961493 -24.0226009489 777.022600949 c 128,-1,13
 -4.55824184687 796.486960051 -4.55824184687 796.486960051 23 796.486960051 c 2,14,-1
 154 796.486960051 l 2,15,16
 181.558241847 796.486960051 181.558241847 796.486960051 201.022600949 777.022600949 c 0,17,18
 209.652539718 768.39266218 209.652539718 768.39266218 214.624723845 757.35790267 c 2,19,-1
 301.643371306 564.237571025 l 1,20,21
 386.109700443 756.757665699 386.109700443 756.757665699 386.109700443 756.760634491 c 0,22,23
 391.108036579 768.153238477 391.108036579 768.153238477 399.977399051 777.022600949 c 0,24,25
 419.441758153 796.486960051 419.441758153 796.486960051 447 796.486960051 c 2,26,-1
 577 796.486960051 l 2,27,28
 604.558241847 796.486960051 604.558241847 796.486960051 624.022600949 777.022600949 c 128,-1,29
 643.567240405 757.477961493 643.567240405 757.477961493 643.567240405 729.361261552 c 0,30,31
 643.567240405 715.107124221 643.567240405 715.107124221 637.406709132 702.163359797 c 2,32,-1
 429.486960051 250.37511997 l 1,33,-1
 429.486960051 -3.5527136788e-15 l 2,0,1
EndSplineSet
EndChar

StartChar: Z
Encoding: 90 90 91
Width: 600
GlyphClass: 2
Flags: W
LayerCount: 2
Fore
SplineSet
12.5130399491 3.5527136788e-15 m 2,0,-1
 12.5130399491 116 l 2,1,2
 12.5130399491 134.065397715 12.5130399491 134.065397715 21.5746294975 149.559788035 c 2,3,-1
 256.064255866 550.513039949 l 1,4,-1
 86 550.513039949 l 2,5,6
 58.4417581531 550.513039949 58.4417581531 550.513039949 38.9773990511 569.977399051 c 128,-1,7
 19.5130399491 589.441758153 19.5130399491 589.441758153 19.5130399491 617 c 2,8,-1
 19.5130399491 730 l 2,9,10
 19.5130399491 757.558241847 19.5130399491 757.558241847 38.9773990511 777.022600949 c 128,-1,11
 58.4417581531 796.486960051 58.4417581531 796.486960051 86 796.486960051 c 2,12,-1
 510 796.486960051 l 2,13,14
 537.558241847 796.486960051 537.558241847 796.486960051 557.022600949 777.022600949 c 128,-1,15
 576.486960051 757.558241847 576.486960051 757.558241847 576.486960051 730 c 2,16,-1
 576.486960051 614 l 2,17,18
 576.486960051 595.881756378 576.486960051 595.881756378 567.375823345 580.355635665 c 2,19,-1
 332.135522686 179.486960051 l 1,20,-1
 521 179.486960051 l 2,21,22
 548.558241847 179.486960051 548.558241847 179.486960051 568.022600949 160.022600949 c 128,-1,23
 587.486960051 140.558241847 587.486960051 140.558241847 587.486960051 113 c 2,24,-1
 587.486960051 -3.5527136788e-15 l 2,25,26
 587.486960051 -27.5582418469 587.486960051 -27.5582418469 568.243480025 -46.7791209234 c 128,-1,27
 549 -66 549 -66 521 -66.4869600509 c 2,28,-1
 79 -66.4869600509 l 2,29,30
 51.4417581531 -66.4869600509 51.4417581531 -66.4869600509 31.9773990511 -47.0226009489 c 128,-1,31
 12.5130399491 -27.5582418469 12.5130399491 -27.5582418469 12.5130399491 3.5527136788e-15 c 2,0,-1
EndSplineSet
EndChar

StartChar: bracketleft
Encoding: 91 91 92
Width: 600
GlyphClass: 1
Flags: W
LayerCount: 2
Fore
SplineSet
118.513039949 -110 m 2,0,-1
 118.513039949 830 l 2,1,2
 118.513039949 857.558241847 118.513039949 857.558241847 137.977399051 877.022600949 c 128,-1,3
 157.441758153 896.486960051 157.441758153 896.486960051 185 896.486960051 c 2,4,-1
 465 896.486960051 l 2,5,6
 492.558241847 896.486960051 492.558241847 896.486960051 512.022600949 877.022600949 c 128,-1,7
 531.486960051 857.558241847 531.486960051 857.558241847 531.486960051 830 c 2,8,-1
 531.486960051 715 l 2,9,10
 531.486960051 687.441758153 531.486960051 687.441758153 512.022600949 667.977399051 c 128,-1,11
 492.558241847 648.513039949 492.558241847 648.513039949 465 648.513039949 c 2,12,-1
 376.486960051 648.513039949 l 1,13,-1
 376.486960051 71.4869600509 l 1,14,-1
 465 71.4869600509 l 2,15,16
 492.558241847 71.4869600509 492.558241847 71.4869600509 512.022600949 52.0226009489 c 128,-1,17
 531.486960051 32.5582418469 531.486960051 32.5582418469 531.486960051 5 c 2,18,-1
 531.486960051 -110 l 2,19,20
 531.486960051 -137.558241847 531.486960051 -137.558241847 512.022600949 -157.022600949 c 128,-1,21
 492.558241847 -176.486960051 492.558241847 -176.486960051 465 -176.486960051 c 2,22,-1
 185 -176.486960051 l 2,23,24
 157.441758153 -176.486960051 157.441758153 -176.486960051 137.977399051 -157.022600949 c 128,-1,25
 118.513039949 -137.558241847 118.513039949 -137.558241847 118.513039949 -110 c 2,0,-1
EndSplineSet
EndChar

StartChar: backslash
Encoding: 92 92 93
Width: 600
GlyphClass: 1
Flags: W
LayerCount: 2
Fore
SplineSet
-2.32667449156 806.789492582 m 2,0,1
 -6.58412688638 817.773873396 -6.58412688638 817.773873396 -6.58412688638 827.105985941 c 0,2,3
 -6.58412688638 857.461075011 -6.58412688638 857.461075011 12.9773990511 877.022600949 c 128,-1,4
 32.4417581531 896.486960051 32.4417581531 896.486960051 60 896.486960051 c 2,5,-1
 190 896.486960051 l 2,6,7
 217.558241847 896.486960051 217.558241847 896.486960051 237.022600949 877.022600949 c 0,8,9
 247.302479947 866.742721951 247.302479947 866.742721951 252.326674492 853.210507418 c 2,10,-1
 601.326674492 -86.7894925816 l 2,11,12
 605.584126886 -97.773873396 605.584126886 -97.773873396 605.584126886 -107.105985941 c 0,13,14
 605.584126886 -137.461075011 605.584126886 -137.461075011 586.022600949 -157.022600949 c 128,-1,15
 566.558241847 -176.486960051 566.558241847 -176.486960051 539 -176.486960051 c 2,16,-1
 409 -176.486960051 l 2,17,18
 381.441758153 -176.486960051 381.441758153 -176.486960051 361.977399051 -157.022600949 c 0,19,20
 351.697520053 -146.742721951 351.697520053 -146.742721951 346.673325508 -133.210507418 c 2,21,-1
 -2.32667449156 806.789492582 l 2,0,1
EndSplineSet
EndChar

StartChar: bracketright
Encoding: 93 93 94
Width: 600
GlyphClass: 1
Flags: W
LayerCount: 2
Fore
SplineSet
68.5130399491 -110 m 2,0,-1
 68.5130399491 5 l 2,1,2
 68.5130399491 32.5582418469 68.5130399491 32.5582418469 87.7565199745 51.7791209234 c 128,-1,3
 107 71 107 71 135 71.4869600509 c 2,4,-1
 223.513039949 71.4869600509 l 1,5,-1
 223.513039949 648.513039949 l 1,6,-1
 135 648.513039949 l 2,7,8
 107.441758153 648.513039949 107.441758153 648.513039949 87.9773990511 667.977399051 c 128,-1,9
 68.5130399491 687.441758153 68.5130399491 687.441758153 68.5130399491 715 c 2,10,-1
 68.5130399491 830 l 2,11,12
 68.5130399491 857.558241847 68.5130399491 857.558241847 87.9773990511 877.022600949 c 128,-1,13
 107.441758153 896.486960051 107.441758153 896.486960051 135 896.486960051 c 2,14,-1
 415 896.486960051 l 2,15,16
 442.558241847 896.486960051 442.558241847 896.486960051 462.022600949 877.022600949 c 128,-1,17
 481.486960051 857.558241847 481.486960051 857.558241847 481.486960051 830 c 2,18,-1
 481.486960051 -110 l 2,19,20
 481.486960051 -137.558241847 481.486960051 -137.558241847 462.022600949 -157.022600949 c 128,-1,21
 442.558241847 -176.486960051 442.558241847 -176.486960051 415 -176.486960051 c 2,22,-1
 135 -176.486960051 l 2,23,24
 107.441758153 -176.486960051 107.441758153 -176.486960051 87.9773990511 -157.022600949 c 128,-1,25
 68.5130399491 -137.558241847 68.5130399491 -137.558241847 68.5130399491 -110 c 2,0,-1
EndSplineSet
EndChar

StartChar: asciicircum
Encoding: 94 94 95
Width: 600
GlyphClass: 1
Flags: W
LayerCount: 2
Fore
SplineSet
241 796.486960051 m 2,0,-1
 361 796.486960051 l 2,1,2
 388.558241847 796.486960051 388.558241847 796.486960051 408.022600949 777.022600949 c 0,3,4
 416.897518453 768.147683445 416.897518453 768.147683445 421.896386525 756.746756264 c 2,5,-1
 592.896386525 366.746756264 l 2,6,7
 598.571846435 354.256341439 598.571846435 354.256341439 598.571846435 340.617154837 c 0,8,9
 598.571846435 312.526644537 598.571846435 312.526644537 579.022600949 292.977399051 c 128,-1,10
 559.558241847 273.513039949 559.558241847 273.513039949 532 273.513039949 c 2,11,-1
 415 273.513039949 l 2,12,13
 387.441758153 273.513039949 387.441758153 273.513039949 367.977399051 292.977399051 c 0,14,15
 358.308219166 302.646578936 358.308219166 302.646578936 353.268283908 315.246417082 c 2,16,-1
 300.364797027 447.505134284 l 1,17,-1
 245.453104663 314.561036982 l 2,18,19
 240.419417621 302.374215724 240.419417621 302.374215724 231.022600949 292.977399051 c 0,20,21
 211.558241847 273.513039949 211.558241847 273.513039949 184 273.513039949 c 2,22,-1
 68 273.513039949 l 2,23,24
 40.4417581531 273.513039949 40.4417581531 273.513039949 20.9773990511 292.977399051 c 128,-1,25
 1.42921874599 312.525579356 1.42921874599 312.525579356 1.42921874599 340.622674948 c 0,26,27
 1.42921874599 354.407324902 1.42921874599 354.407324902 7.21800394938 367.006131473 c 2,28,-1
 180.218003949 757.006131473 l 2,29,30
 185.206362782 768.25156468 185.206362782 768.25156468 193.977399051 777.022600949 c 0,31,32
 213.441758153 796.486960051 213.441758153 796.486960051 241 796.486960051 c 2,0,-1
EndSplineSet
EndChar

StartChar: underscore
Encoding: 95 95 96
Width: 600
GlyphClass: 1
Flags: W
LayerCount: 2
Fore
SplineSet
-6.48696005094 -138 m 2,0,-1
 -6.48696005094 -25 l 2,1,2
 -6.48696005094 2.55824184687 -6.48696005094 2.55824184687 12.7565199745 21.7791209234 c 128,-1,3
 32 41 32 41 60 41.4869600509 c 2,4,-1
 540 41.4869600509 l 2,5,6
 567.558241847 41.4869600509 567.558241847 41.4869600509 587.022600949 22.0226009489 c 128,-1,7
 606.486960051 2.55824184687 606.486960051 2.55824184687 606.486960051 -25 c 2,8,-1
 606.486960051 -138 l 2,9,10
 606.486960051 -165.558241847 606.486960051 -165.558241847 587.022600949 -185.022600949 c 128,-1,11
 567.558241847 -204.486960051 567.558241847 -204.486960051 540 -204.486960051 c 2,12,-1
 60 -204.486960051 l 2,13,14
 32.4417581531 -204.486960051 32.4417581531 -204.486960051 12.9773990511 -185.022600949 c 128,-1,15
 -6.48696005094 -165.558241847 -6.48696005094 -165.558241847 -6.48696005094 -138 c 2,0,-1
EndSplineSet
EndChar

StartChar: a
Encoding: 97 97 98
Width: 600
GlyphClass: 2
Flags: W
LayerCount: 2
Fore
SplineSet
239 -76.4869600509 m 0,0,1
 121.693291895 -76.4869600509 121.693291895 -76.4869600509 52.7157407275 -7.50940888296 c 0,2,3
 -10 56 -10 56 -10.2434800255 155.243985788 c 0,4,5
 -10.5062330949 262.343785194 -10.5062330949 262.343785194 61.7809356097 326.15840471 c 1,6,7
 46.2660819019 330.6887162 46.2660819019 330.6887162 33.9773990511 342.977399051 c 0,8,9
 14.4980065492 362.456791553 14.4980065492 362.456791553 14.4980065492 389.464437124 c 0,10,11
 14.4980065492 391.449503976 14.4980065492 391.449503976 14.6032396171 393.475240534 c 0,12,13
 20.209171569 501.389430608 20.209171569 501.389430608 106.442937076 566.590570381 c 0,14,15
 185.660742768 626.486960051 185.660742768 626.486960051 305 626.486960051 c 0,16,17
 444.401991847 626.486960051 444.401991847 626.486960051 523.566546261 547.322405636 c 0,18,19
 591.486960051 479.401991847 591.486960051 479.401991847 591.486960051 373 c 2,20,-1
 591.486960051 -3.5527136788e-15 l 2,21,22
 591.486960051 -27.5582418469 591.486960051 -27.5582418469 572.243480025 -46.7791209234 c 128,-1,23
 553 -66 553 -66 525 -66.4869600509 c 2,24,-1
 404 -66.4869600509 l 2,25,26
 379.488109186 -66.4869600509 379.488109186 -66.4869600509 361.37957251 -51.0880238027 c 1,27,28
 308.953314352 -76.4869600509 308.953314352 -76.4869600509 239 -76.4869600509 c 0,0,1
EndSplineSet
EndChar

StartChar: b
Encoding: 98 98 99
Width: 600
GlyphClass: 2
Flags: W
LayerCount: 2
Fore
SplineSet
268.486960051 614.971195221 m 1,0,1
 304.321046531 626.486960051 304.321046531 626.486960051 348.140185412 626.486960051 c 128,-1,2
 391.959324294 626.486960051 391.959324294 626.486960051 430.764497731 613.4374327 c 0,3,4
 488.667697789 593.965560115 488.667697789 593.965560115 530.031052526 546.811335715 c 0,5,6
 596.486960051 471.051601136 596.486960051 471.051601136 596.486960051 349 c 2,7,-1
 596.486960051 200 l 2,8,9
 596.486960051 68.469691114 596.486960051 68.469691114 519.585972879 -8.4312960583 c 0,10,11
 451.530308886 -76.4869600509 451.530308886 -76.4869600509 347 -76.4869600509 c 0,12,13
 285.96255854 -76.4869600509 285.96255854 -76.4869600509 239.014982762 -53.1983977696 c 1,14,15
 221.770389054 -66.4869600495 221.770389054 -66.4869600495 199 -66.4869600509 c 2,16,-1
 77 -66.4869600509 l 2,17,18
 49.4417581531 -66.4869600509 49.4417581531 -66.4869600509 29.9773990511 -47.0226009489 c 128,-1,19
 10.5130399491 -27.5582418469 10.5130399491 -27.5582418469 10.5130399491 3.5527136788e-15 c 2,20,-1
 10.5130399491 730 l 2,21,22
 10.5130399491 757.558241847 10.5130399491 757.558241847 29.9773990511 777.022600949 c 128,-1,23
 49.4417581531 796.486960051 49.4417581531 796.486960051 77 796.486960051 c 2,24,-1
 202 796.486960051 l 2,25,26
 229.558241847 796.486960051 229.558241847 796.486960051 249.022600949 777.022600949 c 128,-1,27
 268.486960051 757.558241847 268.486960051 757.558241847 268.486960051 730 c 2,28,-1
 268.486960051 614.971195221 l 1,0,1
EndSplineSet
EndChar

StartChar: c
Encoding: 99 99 100
Width: 600
GlyphClass: 2
Flags: W
LayerCount: 2
Fore
SplineSet
562.598254807 275 m 128,-1,1
 562.598254807 297.061203987 562.598254807 297.061203987 578.890104709 311.93923024 c 0,2,3
 600.492865937 331.673428299 600.492865937 331.673428299 600.492865937 360.654894023 c 0,4,5
 600.492642317 361.917765771 600.492642317 361.917765771 600.451371275 363.18341108 c 0,6,7
 596.85637874 473.429848798 596.85637874 473.429848798 526.384441843 543.901785696 c 0,8,9
 443.799267488 626.486960051 443.799267488 626.486960051 303 626.486960051 c 0,10,11
 217.113556803 626.486960051 217.113556803 626.486960051 147.794905783 591.497545726 c 0,12,13
 80.812135053 557.687194787 80.812135053 557.687194787 42.1625875011 493.049158363 c 128,-1,14
 3.51303994906 428.41112194 3.51303994906 428.41112194 3.51303994906 344 c 0,15,16
 3.51274199505 275.122390613 3.51274199505 275.122390613 3.51274199505 240.622390613 c 128,-1,17
 3.51274199505 206.122390613 3.51274199505 206.122390613 3.51303994906 206 c 0,18,19
 3.92303123672 121.794453536 3.92303123672 121.794453536 42.3161567808 56.6922333922 c 0,20,21
 80.810613313 -7.68642667024 80.810613313 -7.68642667024 148.962085058 -42.0866933606 c 128,-1,22
 217.113556803 -76.4869600509 217.113556803 -76.4869600509 303 -76.4869600509 c 0,23,24
 443.862267069 -76.4869600509 443.862267069 -76.4869600509 527.163460303 6.81423318383 c 0,25,26
 596.854255159 76.5050280394 596.854255159 76.5050280394 600.451371275 186.81658892 c 0,27,28
 600.492865937 188.082389832 600.492865937 188.082389832 600.492865937 189.345105977 c 0,29,30
 600.492865937 218.326571701 600.492865937 218.326571701 578.890104709 238.06076976 c 0,31,0
 562.598254807 252.943431718 562.598254807 252.943431718 562.598254807 275 c 128,-1,1
EndSplineSet
EndChar

StartChar: d
Encoding: 100 100 101
Width: 600
GlyphClass: 2
Flags: W
LayerCount: 2
Fore
SplineSet
359.193001113 -51.7693061824 m 1,0,1
 311.719454091 -76.4869600509 311.719454091 -76.4869600509 253.256712436 -76.4869600509 c 0,2,3
 139.859846015 -76.4869600509 139.859846015 -76.4869600509 69.9689474744 3.18866428513 c 0,4,5
 4 79 4 79 3.51303994906 200 c 2,6,-1
 3.51303994906 349 l 2,7,8
 3.51303994906 481.693835067 3.51303994906 481.693835067 81.0934576549 559.274252773 c 0,9,10
 148.306164933 626.486960051 148.306164933 626.486960051 250 626.486960051 c 0,11,12
 294.281549043 626.486960051 294.281549043 626.486960051 331.513039949 613.440669112 c 1,13,-1
 331.513039949 730 l 2,14,15
 331.513039949 757.558241847 331.513039949 757.558241847 350.977399051 777.022600949 c 128,-1,16
 370.441758153 796.486960051 370.441758153 796.486960051 398 796.486960051 c 2,17,-1
 523 796.486960051 l 2,18,19
 550.558241847 796.486960051 550.558241847 796.486960051 570.022600949 777.022600949 c 128,-1,20
 589.486960051 757.558241847 589.486960051 757.558241847 589.486960051 730 c 2,21,-1
 589.486960051 -3.5527136788e-15 l 2,22,23
 589.486960051 -27.5582418469 589.486960051 -27.5582418469 570.243480025 -46.7791209234 c 128,-1,24
 551 -66 551 -66 523 -66.4869600509 c 2,25,-1
 401 -66.4869600509 l 2,26,27
 377.036472634 -66.4869600509 377.036472634 -66.4869600509 359.193001113 -51.7693061824 c 1,0,1
EndSplineSet
EndChar

StartChar: e
Encoding: 101 101 102
Width: 600
GlyphClass: 2
Flags: W
LayerCount: 2
Fore
SplineSet
572.352124475 193.684960627 m 1,0,1
 592.704747159 173.823370165 592.704747159 173.823370165 592.704747159 147.621185141 c 0,2,3
 592.704747159 140.5676073 592.704747159 140.5676073 591.224364058 133.059950145 c 0,4,5
 572.0120409 35.6260255558 572.0120409 35.6260255558 488.264996579 -22.2479481621 c 0,6,7
 409.777955845 -76.4869600509 409.777955845 -76.4869600509 301 -76.4869600509 c 0,8,9
 214.71131629 -76.4869600509 214.71131629 -76.4869600509 148.343227889 -42.0266064582 c 0,10,11
 110.381746476 -22.315837263 110.381746476 -22.315837263 84.2416010116 3.82430820168 c 128,-1,12
 58.101455547 29.9644536663 58.101455547 29.9644536663 41.1441090743 58.8216924005 c 0,13,14
 4 123 4 123 3.51303994906 206 c 2,15,-1
 3.51303994906 344 l 2,16,17
 3.51303994906 427.139470667 3.51303994906 427.139470667 41.1441090743 491.1783076 c 0,18,19
 58.101455547 520.035546334 58.101455547 520.035546334 84.2416010116 546.175691798 c 128,-1,20
 110.381746476 572.315837263 110.381746476 572.315837263 148.343227889 592.026606458 c 0,21,22
 214.71131629 626.486960051 214.71131629 626.486960051 300.569634834 626.486960051 c 128,-1,23
 386.427953377 626.486960051 386.427953377 626.486960051 452.388445613 591.905731112 c 0,24,25
 489.678206622 572.355759321 489.678206622 572.355759321 515.717214489 546.316751454 c 0,26,27
 596.486960051 465.547005892 596.486960051 465.547005892 596.486960051 344 c 2,28,-1
 596.486960051 245 l 2,29,30
 596.486960051 214.003473484 596.486960051 214.003473484 572.352124475 193.684960627 c 1,0,1
EndSplineSet
EndChar

StartChar: f
Encoding: 102 102 103
Width: 600
GlyphClass: 2
Flags: W
LayerCount: 2
Fore
SplineSet
396.486960051 -3.5527136788e-15 m 2,0,1
 396.486960051 -27.5582418469 396.486960051 -27.5582418469 377.243480025 -46.7791209234 c 128,-1,2
 358 -66 358 -66 330 -66.4869600509 c 2,3,-1
 205 -66.4869600509 l 2,4,5
 177.441758153 -66.4869600509 177.441758153 -66.4869600509 157.977399051 -47.0226009489 c 128,-1,6
 138.513039949 -27.5582418469 138.513039949 -27.5582418469 138.513039949 3.5527136788e-15 c 2,7,-1
 138.513039949 309.513039949 l 1,8,-1
 54 309.513039949 l 2,9,10
 26.4417581531 309.513039949 26.4417581531 309.513039949 6.97739905109 328.977399051 c 128,-1,11
 -12.4869600509 348.441758153 -12.4869600509 348.441758153 -12.4869600509 376 c 2,12,-1
 -12.4869600509 489 l 2,13,14
 -12.4869600509 516.558241847 -12.4869600509 516.558241847 6.97739905109 536.022600949 c 128,-1,15
 26.4417581531 555.486960051 26.4417581531 555.486960051 54 555.486960051 c 2,16,-1
 138.513039949 555.486960051 l 1,17,-1
 138.513039949 572 l 2,18,19
 138.513039949 673.722373445 138.513039949 673.722373445 208.665084901 736.566913714 c 0,20,21
 275.552578486 796.486960051 275.552578486 796.486960051 380 796.486960051 c 2,22,-1
 541 796.486960051 l 2,23,24
 568.558241847 796.486960051 568.558241847 796.486960051 588.022600949 777.022600949 c 128,-1,25
 607.486960051 757.558241847 607.486960051 757.558241847 607.486960051 730 c 2,26,-1
 607.486960051 620 l 2,27,28
 607.486960051 592.441758153 607.486960051 592.441758153 588.022600949 572.977399051 c 0,29,30
 572.941225738 557.89602384 572.941225738 557.89602384 553.000719843 554.499999995 c 1,31,32
 572.941225731 551.103976296 572.941225731 551.103976296 588.022600949 536.022600949 c 0,33,34
 607.486960051 516.558241847 607.486960051 516.558241847 607.486960051 489 c 2,35,-1
 607.486960051 376 l 2,36,37
 607.486960051 348.441758153 607.486960051 348.441758153 588.022600949 328.977399051 c 128,-1,38
 568.558241847 309.513039949 568.558241847 309.513039949 541 309.513039949 c 2,39,-1
 396.486960051 309.513039949 l 1,40,-1
 396.486960051 -3.5527136788e-15 l 2,0,1
EndSplineSet
EndChar

StartChar: g
Encoding: 103 103 104
Width: 600
GlyphClass: 2
Flags: W
LayerCount: 2
Fore
SplineSet
85.5130399491 -180 m 2,0,-1
 85.5130399491 -76 l 2,1,2
 85.5130399491 -48.4417581531 85.5130399491 -48.4417581531 104.977399051 -28.9773990511 c 0,3,4
 121.142072504 -12.8127255985 121.142072504 -12.8127255985 142.88901242 -10.0724174928 c 1,5,6
 102.158548363 9.84785801026 102.158548363 9.84785801026 71.2497414017 45.4398175418 c 0,7,8
 6 121 6 121 5.51303994906 243 c 2,9,-1
 5.51303994906 350 l 2,10,11
 5.51303994906 481.672995945 5.51303994906 481.672995945 82.8239456783 558.983901675 c 0,12,13
 150.327004055 626.486960051 150.327004055 626.486960051 255 626.486960051 c 0,14,15
 313.839670493 626.486960051 313.839670493 626.486960051 359.120902412 604.054868525 c 1,16,17
 376 616 376 616 398 616.486960051 c 2,18,-1
 523 616.486960051 l 2,19,20
 550.558241847 616.486960051 550.558241847 616.486960051 570.022600949 597.022600949 c 128,-1,21
 589.486960051 577.558241847 589.486960051 577.558241847 589.486960051 550 c 2,22,-1
 589.486960051 -3.5527136788e-15 l 2,23,24
 589.486960051 -114.241701078 589.486960051 -114.241701078 511.683860882 -182.142587626 c 0,25,26
 437.955934144 -246.486960051 437.955934144 -246.486960051 317 -246.486960051 c 2,27,-1
 152 -246.486960051 l 2,28,29
 124.441758153 -246.486960051 124.441758153 -246.486960051 104.977399051 -227.022600949 c 128,-1,30
 85.5130399491 -207.558241847 85.5130399491 -207.558241847 85.5130399491 -180 c 2,0,-1
EndSplineSet
EndChar

StartChar: h
Encoding: 104 104 105
Width: 600
GlyphClass: 2
Flags: W
LayerCount: 2
Fore
SplineSet
10.5130399491 3.5527136788e-15 m 2,0,1
 10.5130399491 -27.5582418469 10.5130399491 -27.5582418469 29.9773990511 -47.0226009489 c 128,-1,2
 49.4417581531 -66.4869600509 49.4417581531 -66.4869600509 77 -66.4869600509 c 2,3,-1
 197.56091 -66.4869600509 l 2,4,5
 199.959579349 -66.2464629072 199.959579349 -66.2464629072 202.008338673 -66.2464629072 c 128,-1,6
 204.057097997 -66.2464629072 204.057097997 -66.2464629072 205.783327931 -66.3515308315 c 0,7,8
 231.041606152 -64.9596031392 231.041606152 -64.9596031392 249.296176732 -46.726455164 c 0,9,10
 254.536372485 -41.4862594102 254.536372485 -41.4862594102 258.041172081 -35.8346863888 c 0,11,12
 273.182283095 -11.4192834022 273.182283095 -11.4192834022 299.853599159 -11.4192834022 c 0,13,14
 321.726761874 -11.4192834022 321.726761874 -11.4192834022 336.373620817 -26.0661423458 c 0,15,16
 340.495893701 -30.1884152301 340.495893701 -30.1884152301 344.042777851 -35.9116395647 c 128,-1,17
 347.589662001 -41.6348638993 347.589662001 -41.6348638993 352.977399051 -47.0226009489 c 0,18,19
 372.441758153 -66.4869600509 372.441758153 -66.4869600509 400 -66.4869600509 c 2,20,-1
 520.56091 -66.4869600509 l 2,21,22
 522.959579349 -66.2464629072 522.959579349 -66.2464629072 525.007153117 -66.2464629072 c 128,-1,23
 527.054726885 -66.2464629072 527.054726885 -66.2464629072 528.778864385 -66.3512591003 c 0,24,25
 554.038794591 -64.9533875723 554.038794591 -64.9533875723 572.762877321 -46.2346801026 c 128,-1,26
 591.486960051 -27.5159726329 591.486960051 -27.5159726329 591.486960051 -3.5527136788e-15 c 2,27,-1
 591.486960051 361 l 2,28,29
 591.486960051 485.420866986 591.486960051 485.420866986 517.028596337 559.8792307 c 0,30,31
 479.821284838 597.086542199 479.821284838 597.086542199 429.880349196 613.720685759 c 0,32,33
 391.55197476 626.486960051 391.55197476 626.486960051 347.823257729 626.486960051 c 0,34,35
 334.894354479 626.486960051 334.894354479 626.486960051 327.55885945 625.875098487 c 128,-1,36
 320.223364422 625.263236923 320.223364422 625.263236923 317.858767578 625.263236923 c 0,37,38
 297.785923218 625.263236923 297.785923218 625.263236923 283.121816519 639.927343623 c 128,-1,39
 268.486960051 654.56220009 268.486960051 654.56220009 268.486960051 675.282682682 c 2,40,-1
 268.486960051 730 l 2,41,42
 268.486960051 757.558241847 268.486960051 757.558241847 249.022600949 777.022600949 c 128,-1,43
 229.558241847 796.486960051 229.558241847 796.486960051 202 796.486960051 c 2,44,-1
 77 796.486960051 l 2,45,46
 49.4417581531 796.486960051 49.4417581531 796.486960051 29.9773990511 777.022600949 c 128,-1,47
 10.5130399491 757.558241847 10.5130399491 757.558241847 10.5130399491 730 c 2,48,-1
 10.5130399491 3.5527136788e-15 l 2,0,1
EndSplineSet
EndChar

StartChar: k
Encoding: 107 107 108
Width: 600
GlyphClass: 2
Flags: W
LayerCount: 2
Fore
SplineSet
13.5130399491 3.5527136788e-15 m 2,0,-1
 13.5130399491 730 l 2,1,2
 13.5130399491 757.558241847 13.5130399491 757.558241847 32.9773990511 777.022600949 c 128,-1,3
 52.4417581531 796.486960051 52.4417581531 796.486960051 80 796.486960051 c 2,4,-1
 205 796.486960051 l 2,5,6
 232.558241847 796.486960051 232.558241847 796.486960051 252.022600949 777.022600949 c 128,-1,7
 271.486960051 757.558241847 271.486960051 757.558241847 271.486960051 730 c 2,8,-1
 271.486960051 425.49085416 l 1,9,-1
 370.462334315 585.033248495 l 2,10,11
 374.505682535 591.550884433 374.505682535 591.550884433 379.977399051 597.022600949 c 0,12,13
 399.441758153 616.486960051 399.441758153 616.486960051 427 616.486960051 c 2,14,-1
 566 616.486960051 l 2,15,16
 593.558241847 616.486960051 593.558241847 616.486960051 613.022600949 597.022600949 c 128,-1,17
 632.530242322 577.514959575 632.530242322 577.514959575 632.530242322 549.342574475 c 0,18,19
 632.530242322 530.643764225 632.530242322 530.643764225 622.444912603 514.817682023 c 2,20,-1
 477.887486345 283.177468862 l 1,21,-1
 626.170760378 33.9913752203 l 2,22,23
 635.536602981 18.6087582401 635.536602981 18.6087582401 635.536602981 0.671334124353 c 0,24,25
 635.536602981 -27.5085989166 635.536602981 -27.5085989166 616.268301491 -46.7542994583 c 128,-1,26
 597 -66 597 -66 569 -66.4869600509 c 2,27,-1
 427 -66.4869600509 l 2,28,29
 399.441758153 -66.4869600509 399.441758153 -66.4869600509 379.977399051 -47.0226009489 c 0,30,31
 373.936390059 -40.9815919564 373.936390059 -40.9815919564 369.646355577 -33.6821303004 c 2,32,-1
 271.486960051 133.335348654 l 1,33,-1
 271.486960051 -3.5527136788e-15 l 2,34,35
 271.486960051 -27.5582418469 271.486960051 -27.5582418469 252.243480025 -46.7791209234 c 128,-1,36
 233 -66 233 -66 205 -66.4869600509 c 2,37,-1
 80 -66.4869600509 l 2,38,39
 52.4417581531 -66.4869600509 52.4417581531 -66.4869600509 32.9773990511 -47.0226009489 c 128,-1,40
 13.5130399491 -27.5582418469 13.5130399491 -27.5582418469 13.5130399491 3.5527136788e-15 c 2,0,-1
EndSplineSet
EndChar

StartChar: l
Encoding: 108 108 109
Width: 600
GlyphClass: 2
Flags: W
LayerCount: 2
Fore
SplineSet
141.513039949 178 m 2,0,-1
 141.513039949 550.513039949 l 1,1,-1
 27 550.513039949 l 2,2,3
 -0.558241846869 550.513039949 -0.558241846869 550.513039949 -19.7791209234 569.756519975 c 128,-1,4
 -39 589 -39 589 -39.4869600509 617 c 2,5,-1
 -39.4869600509 730 l 2,6,7
 -39.4869600509 757.558241847 -39.4869600509 757.558241847 -20.0226009489 777.022600949 c 128,-1,8
 -0.558241846869 796.486960051 -0.558241846869 796.486960051 27 796.486960051 c 2,9,-1
 333 796.486960051 l 2,10,11
 360.558241847 796.486960051 360.558241847 796.486960051 380.022600949 777.022600949 c 128,-1,12
 399.486960051 757.558241847 399.486960051 757.558241847 399.486960051 730 c 2,13,-1
 399.486960051 181 l 1,14,-1
 399.63729546 179.486960051 l 1,15,-1
 559 179.486960051 l 2,16,17
 586.558241847 179.486960051 586.558241847 179.486960051 606.022600949 160.022600949 c 128,-1,18
 625.486960051 140.558241847 625.486960051 140.558241847 625.486960051 113 c 2,19,-1
 625.486960051 -3.5527136788e-15 l 2,20,21
 625.486960051 -27.5582418469 625.486960051 -27.5582418469 606.243480025 -46.7791209234 c 128,-1,22
 587 -66 587 -66 559 -66.4869600509 c 2,23,-1
 389 -66.4869600509 l 2,24,25
 278.938962688 -66.4869600509 278.938962688 -66.4869600509 209.864401867 2.58729064478 c 0,26,27
 141.513039949 70.9386525631 141.513039949 70.9386525631 141.513039949 178 c 2,0,-1
EndSplineSet
EndChar

StartChar: m
Encoding: 109 109 110
Width: 600
GlyphClass: 2
Flags: W
LayerCount: 2
Fore
SplineSet
205.5 -46.5410057575 m 1,0,1
 186.385826213 -65.9932899303 186.385826213 -65.9932899303 158 -66.4869600509 c 2,2,-1
 49 -66.4869600509 l 2,3,4
 21.4417581531 -66.4869600509 21.4417581531 -66.4869600509 1.97739905109 -47.0226009489 c 128,-1,5
 -17.4869600509 -27.5582418469 -17.4869600509 -27.5582418469 -17.4869600509 3.5527136788e-15 c 2,6,-1
 -17.4869600509 550 l 2,7,8
 -17.4869600509 577.558241847 -17.4869600509 577.558241847 1.97739905109 597.022600949 c 128,-1,9
 21.4417581531 616.486960051 21.4417581531 616.486960051 49 616.486960051 c 2,10,-1
 151 616.486960051 l 2,11,12
 165.447520744 616.486960051 165.447520744 616.486960051 177.670499806 611.137330028 c 1,13,14
 209.253226119 626.486960051 209.253226119 626.486960051 248 626.486960051 c 0,15,16
 300.562552133 626.486960051 300.562552133 626.486960051 341.316723906 594.986635478 c 1,17,18
 382.632107608 626.486960051 382.632107608 626.486960051 439 626.486960051 c 0,19,20
 520.041848672 626.486960051 520.041848672 626.486960051 571.538746381 561.911485146 c 0,21,22
 617.486960051 504.293883878 617.486960051 504.293883878 617.486960051 419 c 2,23,-1
 617.486960051 -3.5527136788e-15 l 2,24,25
 617.486960051 -27.5582418469 617.486960051 -27.5582418469 598.243480025 -46.7791209234 c 128,-1,26
 579 -66 579 -66 551 -66.4869600509 c 2,27,-1
 443 -66.4869600509 l 2,28,29
 414.73062851 -66.4869600509 414.73062851 -66.4869600509 395 -46.0273793255 c 1,30,31
 375.751587157 -65.9869288243 375.751587157 -65.9869288243 347 -66.4869600509 c 2,32,-1
 253 -66.4869600509 l 2,33,34
 225.099263168 -66.4869600509 225.099263168 -66.4869600509 205.5 -46.5410057575 c 1,0,1
EndSplineSet
EndChar

StartChar: n
Encoding: 110 110 111
Width: 600
GlyphClass: 2
Flags: W
LayerCount: 2
Fore
SplineSet
10.5130399491 3.5527136788e-15 m 2,0,1
 10.5130399491 -27.5582418469 10.5130399491 -27.5582418469 29.9773990511 -47.0226009489 c 128,-1,2
 49.4417581531 -66.4869600509 49.4417581531 -66.4869600509 77 -66.4869600509 c 2,3,-1
 197.56091 -66.4869600509 l 2,4,5
 199.959579349 -66.2464629072 199.959579349 -66.2464629072 202.008338673 -66.2464629072 c 128,-1,6
 204.057097997 -66.2464629072 204.057097997 -66.2464629072 205.783327931 -66.3515308315 c 0,7,8
 231.041606152 -64.9596031392 231.041606152 -64.9596031392 249.296176732 -46.726455164 c 0,9,10
 254.536372485 -41.4862594102 254.536372485 -41.4862594102 258.041172081 -35.8346863888 c 0,11,12
 273.182283095 -11.4192834022 273.182283095 -11.4192834022 299.853599159 -11.4192834022 c 0,13,14
 321.726761874 -11.4192834022 321.726761874 -11.4192834022 336.373620817 -26.0661423458 c 0,15,16
 340.495893701 -30.1884152301 340.495893701 -30.1884152301 344.042777851 -35.9116395647 c 128,-1,17
 347.589662001 -41.6348638993 347.589662001 -41.6348638993 352.977399051 -47.0226009489 c 0,18,19
 372.441758153 -66.4869600509 372.441758153 -66.4869600509 400 -66.4869600509 c 2,20,-1
 520.56091 -66.4869600509 l 2,21,22
 522.959579349 -66.2464629072 522.959579349 -66.2464629072 525.007153117 -66.2464629072 c 128,-1,23
 527.054726885 -66.2464629072 527.054726885 -66.2464629072 528.778864385 -66.3512591003 c 0,24,25
 554.038794591 -64.9533875723 554.038794591 -64.9533875723 572.762877321 -46.2346801026 c 128,-1,26
 591.486960051 -27.5159726329 591.486960051 -27.5159726329 591.486960051 -3.5527136788e-15 c 2,27,-1
 591.486960051 361 l 2,28,29
 591.486960051 485.444494933 591.486960051 485.444494933 516.622781542 560.308673442 c 0,30,31
 450.444494933 626.486960051 450.444494933 626.486960051 347 626.486960051 c 0,32,33
 298.739988482 626.486960051 298.739988482 626.486960051 259.527939074 611.670438139 c 0,34,35
 250.647418895 608.314877187 250.647418895 608.314877187 241.655257106 608.314877187 c 128,-1,36
 232.663095317 608.314877187 232.663095317 608.314877187 222.20964435 612.400918619 c 128,-1,37
 211.756193383 616.486960051 211.756193383 616.486960051 199 616.486960051 c 2,38,-1
 77 616.486960051 l 2,39,40
 49.4417581531 616.486960051 49.4417581531 616.486960051 29.9773990511 597.022600949 c 128,-1,41
 10.5130399491 577.558241847 10.5130399491 577.558241847 10.5130399491 550 c 2,42,-1
 10.5130399491 3.5527136788e-15 l 2,0,1
EndSplineSet
EndChar

StartChar: o
Encoding: 111 111 112
Width: 600
GlyphClass: 2
Flags: W
LayerCount: 2
Fore
SplineSet
80.815543013 6.51974289405 m 0,0,1
 3.51303994906 83.822245958 3.51303994906 83.822245958 3.51303994906 207 c 2,2,-1
 3.51303994906 343 l 2,3,4
 3.51303994906 470.705961248 3.51303994906 470.705961248 85.5388825127 548.096460649 c 128,-1,5
 167.564725076 625.486960051 167.564725076 625.486960051 300 625.486960051 c 0,6,7
 437.168198808 625.486960051 437.168198808 625.486960051 519.224741258 543.441150295 c 0,8,9
 596.486960051 466.178931502 596.486960051 466.178931502 596.486960051 344 c 2,10,-1
 596.486960051 207 l 2,11,12
 596.486960051 79.2940387525 596.486960051 79.2940387525 514.461117487 1.90353935077 c 128,-1,13
 432.435274924 -75.4869600509 432.435274924 -75.4869600509 297.633954967 -75.4869600509 c 128,-1,14
 162.832635011 -75.4869600509 162.832635011 -75.4869600509 80.815543013 6.51974289405 c 0,0,1
EndSplineSet
EndChar

StartChar: p
Encoding: 112 112 113
Width: 600
GlyphClass: 2
Flags: W
LayerCount: 2
Fore
SplineSet
10.5130399491 -180 m 2,0,-1
 10.5130399491 550 l 2,1,2
 10.5130399491 577.558241847 10.5130399491 577.558241847 29.9773990511 597.022600949 c 128,-1,3
 49.4417581531 616.486960051 49.4417581531 616.486960051 77 616.486960051 c 2,4,-1
 199 616.486960051 l 2,5,6
 223.21039811 616.486960051 223.21039811 616.486960051 241.173993997 601.46450352 c 1,7,8
 288.677735075 626.486960051 288.677735075 626.486960051 350 626.486960051 c 0,9,10
 461.340162268 626.486960051 461.340162268 626.486960051 530.750258598 546.560182458 c 0,11,12
 596.486960051 470.863374725 596.486960051 470.863374725 596.486960051 350 c 2,13,-1
 596.486960051 201 l 2,14,15
 596.486960051 68.3061649328 596.486960051 68.3061649328 518.906542345 -9.27425277309 c 0,16,17
 451.693835067 -76.4869600509 451.693835067 -76.4869600509 350 -76.4869600509 c 0,18,19
 305.802508962 -76.4869600509 305.802508962 -76.4869600509 268.486960051 -63.1536366351 c 1,20,-1
 268.486960051 -180 l 2,21,22
 268.486960051 -207.558241847 268.486960051 -207.558241847 249.022600949 -227.022600949 c 128,-1,23
 229.558241847 -246.486960051 229.558241847 -246.486960051 202 -246.486960051 c 2,24,-1
 77 -246.486960051 l 2,25,26
 49.4417581531 -246.486960051 49.4417581531 -246.486960051 29.9773990511 -227.022600949 c 128,-1,27
 10.5130399491 -207.558241847 10.5130399491 -207.558241847 10.5130399491 -180 c 2,0,-1
EndSplineSet
EndChar

StartChar: q
Encoding: 113 113 114
Width: 600
GlyphClass: 2
Flags: W
LayerCount: 2
Fore
SplineSet
523 616.486960051 m 2,0,1
 550.558241847 616.486960051 550.558241847 616.486960051 570.022600949 597.022600949 c 128,-1,2
 589.486960051 577.558241847 589.486960051 577.558241847 589.486960051 550 c 2,3,-1
 589.486960051 -180 l 2,4,5
 589.486960051 -207.558241847 589.486960051 -207.558241847 570.022600949 -227.022600949 c 128,-1,6
 550.558241847 -246.486960051 550.558241847 -246.486960051 523 -246.486960051 c 2,7,-1
 398 -246.486960051 l 2,8,9
 370.441758153 -246.486960051 370.441758153 -246.486960051 350.977399051 -227.022600949 c 128,-1,10
 331.513039949 -207.558241847 331.513039949 -207.558241847 331.513039949 -180 c 2,11,-1
 331.513039949 -63.4406691119 l 1,12,13
 294.281549043 -76.4869600509 294.281549043 -76.4869600509 250.361377564 -76.4869600509 c 0,14,15
 138.253143812 -76.4869600509 138.253143812 -76.4869600509 69.8099260839 3.95146078437 c 0,16,17
 5.51303994906 79.5168733552 5.51303994906 79.5168733552 5.51303994906 201 c 2,18,-1
 5.51303994906 350 l 2,19,20
 5.51303994906 482.285514574 5.51303994906 482.285514574 83.1426883073 559.915162932 c 0,21,22
 149.714485426 626.486960051 149.714485426 626.486960051 250 626.486960051 c 0,23,24
 311.719454104 626.486960051 311.719454104 626.486960051 359.193001145 601.769306195 c 1,25,26
 377.036472651 616.486960028 377.036472651 616.486960028 401 616.486960051 c 2,27,-1
 523 616.486960051 l 2,0,1
EndSplineSet
EndChar

StartChar: r
Encoding: 114 114 115
Width: 600
GlyphClass: 2
Flags: W
LayerCount: 2
Fore
SplineSet
26.5130399491 3.5527136788e-15 m 2,0,-1
 26.5130399491 550 l 2,1,2
 26.5130399491 577.558241847 26.5130399491 577.558241847 45.9773990511 597.022600949 c 128,-1,3
 65.4417581531 616.486960051 65.4417581531 616.486960051 93 616.486960051 c 2,4,-1
 215 616.486960051 l 2,5,6
 238.86330456 616.486960051 238.86330456 616.486960051 256.657638118 601.892156212 c 1,7,8
 304.87490176 626.486960051 304.87490176 626.486960051 368 626.486960051 c 0,9,10
 482.218289324 626.486960051 482.218289324 626.486960051 552.99548326 549.464719591 c 0,11,12
 621.486960051 474.929877201 621.486960051 474.929877201 621.486960051 353 c 2,13,-1
 621.486960051 308 l 2,14,15
 621.486960051 280.441758153 621.486960051 280.441758153 602.022600949 260.977399051 c 128,-1,16
 582.558241847 241.513039949 582.558241847 241.513039949 555 241.513039949 c 2,17,-1
 424 241.513039949 l 2,18,19
 396.441758153 241.513039949 396.441758153 241.513039949 376.977399051 260.977399051 c 128,-1,20
 357.513039949 280.441758153 357.513039949 280.441758153 357.513039949 308 c 2,21,-1
 357.513039949 344 l 2,22,23
 357.513039949 369.175455706 357.513039949 369.175455706 348.404174199 378.62754698 c 0,24,25
 341.51868123 385.513039949 341.51868123 385.513039949 320.705892731 385.513039949 c 128,-1,26
 299.893104232 385.513039949 299.893104232 385.513039949 293.68548707 379.305422786 c 0,27,28
 284.486960051 370.106895768 284.486960051 370.106895768 284.486960051 337 c 2,29,-1
 284.486960051 -3.5527136788e-15 l 2,30,31
 284.486960051 -27.5582418469 284.486960051 -27.5582418469 265.243480025 -46.7791209234 c 128,-1,32
 246 -66 246 -66 218 -66.4869600509 c 2,33,-1
 93 -66.4869600509 l 2,34,35
 65.4417581531 -66.4869600509 65.4417581531 -66.4869600509 45.9773990511 -47.0226009489 c 128,-1,36
 26.5130399491 -27.5582418469 26.5130399491 -27.5582418469 26.5130399491 3.5527136788e-15 c 2,0,-1
EndSplineSet
EndChar

StartChar: s
Encoding: 115 115 116
Width: 600
GlyphClass: 2
Flags: W
LayerCount: 2
Fore
SplineSet
74.8579931869 244.04124936 m 0,0,1
 14.5130399491 304.386202598 14.5130399491 304.386202598 14.5130399491 399.772222222 c 0,2,3
 14.5130399491 510.705723574 14.5130399491 510.705723574 92.9319317865 571.200297277 c 0,4,5
 163.303531678 625.486960051 163.303531678 625.486960051 286 625.486960051 c 2,6,-1
 324 625.486960051 l 2,7,8
 438.829394893 625.486960051 438.829394893 625.486960051 512.819017975 571.140599734 c 0,9,10
 557.531004923 538.299051799 557.531004923 538.299051799 578.71307339 492.223366585 c 0,11,12
 596.486960051 453.561230821 596.486960051 453.561230821 596.486960051 408 c 0,13,14
 596.486960051 380.441758153 596.486960051 380.441758153 577.022600949 360.977399051 c 128,-1,15
 557.558241847 341.513039949 557.558241847 341.513039949 530 341.513039949 c 2,16,-1
 510.961633044 341.513039949 l 1,17,18
 529.645885672 329.160606549 529.645885672 329.160606549 544.653069211 314.153423009 c 0,19,20
 604.486960051 254.319532169 604.486960051 254.319532169 604.486960051 158 c 0,21,22
 604.486960051 47.2041311973 604.486960051 47.2041311973 525.223305072 -16.7885443824 c 0,23,24
 452.517312937 -75.4869600509 452.517312937 -75.4869600509 323 -75.4869600509 c 2,25,-1
 279 -75.4869600509 l 2,26,27
 202.94909465 -75.4869600509 202.94909465 -75.4869600509 142.916802625 -51.0988414155 c 0,28,29
 77.5732877783 -24.5530385091 77.5732877783 -24.5530385091 39.9001307242 26.6255899417 c 0,30,31
 1 80 1 80 0.513039949058 151 c 0,32,33
 0.513039949058 178.558241847 0.513039949058 178.558241847 19.9773990511 198.022600949 c 128,-1,34
 39.4417581531 217.486960051 39.4417581531 217.486960051 67 217.486960051 c 2,35,-1
 107.240804936 217.486960051 l 1,36,37
 89.4530123989 229.446230148 89.4530123989 229.446230148 74.8579931869 244.04124936 c 0,0,1
EndSplineSet
EndChar

StartChar: t
Encoding: 116 116 117
Width: 600
GlyphClass: 2
Flags: W
LayerCount: 2
Fore
SplineSet
125.513039949 165 m 2,0,-1
 125.513039949 370.513039949 l 1,1,-1
 43 370.513039949 l 2,2,3
 15.4417581531 370.513039949 15.4417581531 370.513039949 -4.02260094891 389.977399051 c 128,-1,4
 -23.4869600509 409.441758153 -23.4869600509 409.441758153 -23.4869600509 437 c 2,5,-1
 -23.4869600509 550 l 2,6,7
 -23.4869600509 577.558241847 -23.4869600509 577.558241847 -4.02260094891 597.022600949 c 128,-1,8
 15.4417581531 616.486960051 15.4417581531 616.486960051 43 616.486960051 c 2,9,-1
 125.513039949 616.486960051 l 1,10,-1
 125.513039949 705 l 2,11,12
 125.513039949 732.558241847 125.513039949 732.558241847 144.977399051 752.022600949 c 128,-1,13
 164.441758153 771.486960051 164.441758153 771.486960051 192 771.486960051 c 2,14,-1
 318 771.486960051 l 2,15,16
 345.558241847 771.486960051 345.558241847 771.486960051 365.022600949 752.022600949 c 128,-1,17
 384.486960051 732.558241847 384.486960051 732.558241847 384.486960051 705 c 2,18,-1
 384.486960051 616.486960051 l 1,19,-1
 529 616.486960051 l 2,20,21
 556.558241847 616.486960051 556.558241847 616.486960051 576.022600949 597.022600949 c 128,-1,22
 595.486960051 577.558241847 595.486960051 577.558241847 595.486960051 550 c 2,23,-1
 595.486960051 437 l 2,24,25
 595.486960051 409.441758153 595.486960051 409.441758153 576.022600949 389.977399051 c 128,-1,26
 556.558241847 370.513039949 556.558241847 370.513039949 529 370.513039949 c 2,27,-1
 384.486960051 370.513039949 l 1,28,-1
 384.486960051 179.486960051 l 1,29,-1
 519 179.486960051 l 2,30,31
 546.558241847 179.486960051 546.558241847 179.486960051 566.022600949 160.022600949 c 128,-1,32
 585.486960051 140.558241847 585.486960051 140.558241847 585.486960051 113 c 2,33,-1
 585.486960051 -3.5527136788e-15 l 2,34,35
 585.486960051 -27.5582418469 585.486960051 -27.5582418469 566.243480025 -46.7791209234 c 128,-1,36
 547 -66 547 -66 519 -66.4869600509 c 2,37,-1
 360 -66.4869600509 l 2,38,39
 254.430084245 -66.4869600509 254.430084245 -66.4869600509 189.971562097 -2.0290944554 c 128,-1,40
 125.513039949 62.4287711401 125.513039949 62.4287711401 125.513039949 165 c 2,0,-1
EndSplineSet
EndChar

StartChar: u
Encoding: 117 117 118
Width: 600
GlyphClass: 2
Flags: W
LayerCount: 2
Fore
SplineSet
591.486960051 208 m 2,0,-1
 591.486960051 550 l 2,1,2
 591.486960051 577.558241847 591.486960051 577.558241847 572.022600949 597.022600949 c 128,-1,3
 552.558241847 616.486960051 552.558241847 616.486960051 525 616.486960051 c 2,4,-1
 400 616.486960051 l 2,5,6
 372.441758153 616.486960051 372.441758153 616.486960051 352.977399051 597.022600949 c 0,7,8
 347.188914647 591.234116545 347.188914647 591.234116545 343.483735273 585.02454469 c 128,-1,9
 339.7785559 578.814972835 339.7785559 578.814972835 335.355339059 574.391755995 c 0,10,11
 320.720482592 559.756899527 320.720482592 559.756899527 300 559.756899527 c 128,-1,12
 279.279517408 559.756899527 279.279517408 559.756899527 264.644660941 574.391755995 c 0,13,14
 260.2214441 578.814972835 260.2214441 578.814972835 256.516264727 585.02454469 c 128,-1,15
 252.811085353 591.234116545 252.811085353 591.234116545 247.022600949 597.022600949 c 0,16,17
 227.558241847 616.486960051 227.558241847 616.486960051 200 616.486960051 c 2,18,-1
 75 616.486960051 l 2,19,20
 47.4417581531 616.486960051 47.4417581531 616.486960051 27.9773990511 597.022600949 c 128,-1,21
 8.51303994906 577.558241847 8.51303994906 577.558241847 8.51303994906 550 c 2,22,-1
 8.51303994906 208 l 2,23,24
 8.51303994906 80.9206360862 8.51303994906 80.9206360862 87.2174425092 2.21623353418 c 128,-1,25
 165.921465252 -76.4869600509 165.921465252 -76.4869600509 299.520123877 -76.4869600509 c 128,-1,26
 433.11862832 -76.4869600509 433.11862832 -76.4869600509 513.933870757 4.32828238559 c 0,27,28
 591.486960051 81.8813716797 591.486960051 81.8813716797 591.486960051 208 c 2,0,-1
EndSplineSet
EndChar

StartChar: v
Encoding: 118 118 119
Width: 600
GlyphClass: 2
Flags: W
LayerCount: 2
Fore
SplineSet
-35.1336142505 552.125507751 m 0,0,1
 -35.1336142505 540.716767946 -35.1336142505 540.716767946 -30.8727900726 528.317544148 c 2,2,-1
 158.127209927 -21.6824558518 l 2,3,4
 163.095635631 -36.1408375288 163.095635631 -36.1408375288 173.977399051 -47.0226009489 c 0,5,6
 193.441758153 -66.4869600509 193.441758153 -66.4869600509 221 -66.4869600509 c 2,7,-1
 380 -66.4869600509 l 2,8,9
 407.511880068 -66.4869600509 407.511880068 -66.4869600509 427.022600949 -47.0226009489 c 0,10,11
 437.944445458 -36.1007564403 437.944445458 -36.1007564403 442.907739454 -21.5804814497 c 2,12,-1
 630.907739454 528.41951855 l 2,13,14
 635.127067244 540.763296659 635.127067244 540.763296659 635.127067244 552.122548675 c 0,15,16
 635.127067244 576.918134654 635.127067244 576.918134654 615.342654546 596.702547352 c 128,-1,17
 595.558241847 616.486960051 595.558241847 616.486960051 568 616.486960051 c 2,18,-1
 439 616.486960051 l 2,19,20
 411.441758153 616.486960051 411.441758153 616.486960051 391.977399051 597.022600949 c 0,21,22
 380.690290544 585.735492442 380.690290544 585.735492442 375.781909841 570.650102208 c 2,23,-1
 348.327333385 486.271358054 l 2,24,25
 344.636821578 474.928959383 344.636821578 474.928959383 336.150273829 466.442411633 c 0,26,27
 321.515417361 451.807555165 321.515417361 451.807555165 300.794934769 451.807555165 c 128,-1,28
 280.074452178 451.807555165 280.074452178 451.807555165 265.43959571 466.442411633 c 0,29,30
 257.069768793 474.812238551 257.069768793 474.812238551 253.360360936 485.973883043 c 2,31,-1
 225.087981609 571.045748755 l 2,32,33
 220.154468872 585.890733025 220.154468872 585.890733025 209.022600949 597.022600949 c 0,34,35
 189.558241847 616.486960051 189.558241847 616.486960051 162 616.486960051 c 2,36,-1
 32 616.486960051 l 2,37,38
 4.44175815313 616.486960051 4.44175815313 616.486960051 -15.3459280487 596.699273849 c 128,-1,39
 -35.1336142505 576.911587647 -35.1336142505 576.911587647 -35.1336142505 552.125507751 c 0,0,1
EndSplineSet
EndChar

StartChar: w
Encoding: 119 119 120
Width: 600
GlyphClass: 2
Flags: W
LayerCount: 2
Fore
SplineSet
-46.6178056275 551.353373623 m 0,0,1
 -46.6178056275 577.42739627 -46.6178056275 577.42739627 -27.0226009489 597.022600949 c 128,-1,2
 -7.55824184687 616.486960051 -7.55824184687 616.486960051 20 616.486960051 c 2,3,-1
 120 616.486960051 l 2,4,5
 147.558241847 616.486960051 147.558241847 616.486960051 167.022600949 597.022600949 c 0,6,7
 180.205358445 583.839843453 180.205358445 583.839843453 184.504720133 566.276374196 c 1,8,9
 188.830545731 583.875747292 188.830545731 583.875747292 201.977399051 597.022600949 c 0,10,11
 221.441758153 616.486960051 221.441758153 616.486960051 249 616.486960051 c 2,12,-1
 353 616.486960051 l 2,13,14
 380.558241847 616.486960051 380.558241847 616.486960051 400.022600949 597.022600949 c 0,15,16
 413.994089711 583.051112187 413.994089711 583.051112187 417.998518142 564.081675792 c 1,17,18
 421.988823617 583.034025455 421.988823617 583.034025455 435.977399051 597.022600949 c 0,19,20
 455.441758153 616.486960051 455.441758153 616.486960051 483 616.486960051 c 2,21,-1
 580 616.486960051 l 2,22,23
 607.558241847 616.486960051 607.558241847 616.486960051 627.022600949 597.022600949 c 128,-1,24
 646.624108086 577.421093812 646.624108086 577.421093812 646.624108086 551.37739425 c 0,25,26
 646.624108086 545.673597703 646.624108086 545.673597703 645.683925585 539.660802642 c 2,27,-1
 559.683925585 -10.3391973582 l 2,28,29
 556.343626469 -31.7015754292 556.343626469 -31.7015754292 541.022600949 -47.0226009489 c 0,30,31
 522 -66 522 -66 494 -66.4869600509 c 2,32,-1
 365 -66.4869600509 l 2,33,34
 337.441758153 -66.4869600509 337.441758153 -66.4869600509 317.977399051 -47.0226009489 c 0,35,36
 302.280583297 -31.3257851946 302.280583297 -31.3257851946 299.173837304 -9.38439162165 c 0,37,38
 299.000563919 -9.38439162165 299.000563919 -9.38439162165 298.770924059 -9.76655632909 c 0,39,40
 295.568896116 -31.4763057821 295.568896116 -31.4763057821 280.022600949 -47.0226009489 c 0,41,42
 261 -66 261 -66 233 -66.4869600509 c 2,43,-1
 104 -66.4869600509 l 2,44,45
 76.4417581531 -66.4869600509 76.4417581531 -66.4869600509 56.9773990511 -47.0226009489 c 0,46,47
 41.5641865683 -31.6093884662 41.5641865683 -31.6093884662 38.2798431906 -10.1047592068 c 2,48,-1
 -45.7201568094 539.895240793 l 2,49,50
 -46.6178056275 545.772703292 -46.6178056275 545.772703292 -46.6178056275 551.353373623 c 0,0,1
EndSplineSet
EndChar

StartChar: x
Encoding: 120 120 121
Width: 600
GlyphClass: 2
Flags: W
LayerCount: 2
Fore
SplineSet
-30.5195700818 0.616056533154 m 0,0,1
 -30.5195700818 20.6525865608 -30.5195700818 20.6525865608 -19.1294820557 37.2068159017 c 2,2,-1
 147.774773948 284.086027907 l 1,3,-1
 -6.20885721186 512.910865273 l 2,4,5
 -17.5201794708 529.423714617 -17.5201794708 529.423714617 -17.5201794708 549.380891555 c 0,6,7
 -17.5201794708 577.525022427 -17.5201794708 577.525022427 1.97739905109 597.022600949 c 128,-1,8
 21.4417581531 616.486960051 21.4417581531 616.486960051 49 616.486960051 c 2,9,-1
 190 616.486960051 l 2,10,11
 217.558241847 616.486960051 217.558241847 616.486960051 237.022600949 597.022600949 c 0,12,13
 242.3360449 591.709156997 242.3360449 591.709156997 246.304728675 585.405953355 c 2,14,-1
 300.18252481 499.835335965 l 1,15,-1
 354.882029181 585.700837012 l 2,16,17
 358.789577951 591.834779849 358.789577951 591.834779849 363.977399051 597.022600949 c 0,18,19
 383 616 383 616 411 616.486960051 c 2,20,-1
 552 616.486960051 l 2,21,22
 579.558241847 616.486960051 579.558241847 616.486960051 597.79113612 598.254065778 c 0,23,24
 618.520179471 577.525022427 618.520179471 577.525022427 618.520179471 549.380891555 c 0,25,26
 618.520179471 529.423714617 618.520179471 529.423714617 607.208857212 512.910865273 c 2,27,-1
 453.159969997 283.989055222 l 1,28,-1
 619.21894494 37.0741395997 l 2,29,30
 630.520257253 20.5665716952 630.520257253 20.5665716952 630.520257253 0.619491378588 c 0,31,32
 630.520257253 -27.5249446452 630.520257253 -27.5249446452 611.260128626 -46.7624723226 c 128,-1,33
 592 -66 592 -66 564 -66.4869600509 c 2,34,-1
 422 -66.4869600509 l 2,35,36
 394.441758153 -66.4869600509 394.441758153 -66.4869600509 374.977399051 -47.0226009489 c 0,37,38
 369.655604546 -41.7008064442 369.655604546 -41.7008064442 365.682915625 -35.3863219473 c 2,39,-1
 300.191132627 68.711143659 l 1,40,-1
 232.982952693 -35.9118993319 l 2,41,42
 229.120287179 -41.9249147184 229.120287179 -41.9249147184 224.022600949 -47.0226009489 c 0,43,44
 204.558241847 -66.4869600509 204.558241847 -66.4869600509 177 -66.4869600509 c 2,45,-1
 36 -66.4869600509 l 2,46,47
 8.44175815313 -66.4869600509 8.44175815313 -66.4869600509 -9.80469540254 -48.2405064953 c 0,48,49
 -30.5195700818 -27.525631816 -30.5195700818 -27.525631816 -30.5195700818 0.616056533154 c 0,0,1
EndSplineSet
EndChar

StartChar: y
Encoding: 121 121 122
Width: 600
GlyphClass: 2
Flags: W
LayerCount: 2
Fore
SplineSet
615.022600949 597.022600949 m 128,-1,1
 634.584133603 577.461068295 634.584133603 577.461068295 634.584133603 547.106987342 c 0,2,3
 634.584133603 537.77522567 634.584133603 537.77522567 630.327559479 526.791876356 c 2,4,-1
 359.327559479 -203.208123644 l 2,5,6
 354.303420943 -216.741780955 354.303420943 -216.741780955 344.022600949 -227.022600949 c 0,7,8
 324.558241847 -246.486960051 324.558241847 -246.486960051 297 -246.486960051 c 2,9,-1
 166 -246.486960051 l 2,10,11
 138.441758153 -246.486960051 138.441758153 -246.486960051 118.977399051 -227.022600949 c 128,-1,12
 99.4158964765 -207.461098374 99.4158964765 -207.461098374 99.4158964765 -179.48007037 c 0,13,14
 99.4158964765 -167.769172945 99.4158964765 -167.769172945 103.676402398 -156.781206953 c 2,15,-1
 172.633997379 28.8738564584 l 1,16,-1
 -29.5680130618 524.84105188 l 2,17,18
 -34.5779050456 536.661487572 -34.5779050456 536.661487572 -34.5779050456 546.284464486 c 0,19,20
 -34.5779050456 577.467296852 -34.5779050456 577.467296852 -15.2889525228 596.733648426 c 128,-1,21
 4 616 4 616 32 616.486960051 c 2,22,-1
 168 616.486960051 l 2,23,24
 195.558241847 616.486960051 195.558241847 616.486960051 215.022600949 597.022600949 c 0,25,26
 225.022834378 587.02236752 225.022834378 587.02236752 230.059344682 573.918113859 c 2,27,-1
 304.724065733 379.651571124 l 1,28,-1
 375.577985434 572.952070502 l 2,29,30
 380.595541801 586.640743699 380.595541801 586.640743699 390.977399051 597.022600949 c 0,31,32
 410 616 410 616 438 616.486960051 c 2,33,-1
 568 616.486960051 l 2,34,0
 595.558241847 616.486960051 595.558241847 616.486960051 615.022600949 597.022600949 c 128,-1,1
EndSplineSet
EndChar

StartChar: z
Encoding: 122 122 123
Width: 600
GlyphClass: 2
Flags: W
LayerCount: 2
Fore
SplineSet
11.5130399491 3.5527136788e-15 m 2,0,-1
 11.5130399491 113 l 2,1,2
 11.5130399491 138.061925693 11.5130399491 138.061925693 27.9809996378 156.825071401 c 2,3,-1
 218.162794663 373.513039949 l 1,4,-1
 87 373.513039949 l 2,5,6
 59.4417581531 373.513039949 59.4417581531 373.513039949 39.9773990511 392.977399051 c 128,-1,7
 20.5130399491 412.441758153 20.5130399491 412.441758153 20.5130399491 440 c 2,8,-1
 20.5130399491 550 l 2,9,10
 20.5130399491 577.558241847 20.5130399491 577.558241847 39.9773990511 597.022600949 c 128,-1,11
 59.4417581531 616.486960051 59.4417581531 616.486960051 87 616.486960051 c 2,12,-1
 511 616.486960051 l 2,13,14
 538.558241847 616.486960051 538.558241847 616.486960051 558.022600949 597.022600949 c 128,-1,15
 577.486960051 577.558241847 577.486960051 577.558241847 577.486960051 550 c 2,16,-1
 577.486960051 437 l 2,17,18
 577.486960051 411.742629122 577.486960051 411.742629122 560.790299737 392.91570525 c 2,19,-1
 368.850433963 176.486960051 l 1,20,-1
 522 176.486960051 l 2,21,22
 549.558241847 176.486960051 549.558241847 176.486960051 569.022600949 157.022600949 c 128,-1,23
 588.486960051 137.558241847 588.486960051 137.558241847 588.486960051 110 c 2,24,-1
 588.486960051 -3.5527136788e-15 l 2,25,26
 588.486960051 -27.5582418469 588.486960051 -27.5582418469 569.243480025 -46.7791209234 c 128,-1,27
 550 -66 550 -66 522 -66.4869600509 c 2,28,-1
 78 -66.4869600509 l 2,29,30
 50.4417581531 -66.4869600509 50.4417581531 -66.4869600509 30.9773990511 -47.0226009489 c 128,-1,31
 11.5130399491 -27.5582418469 11.5130399491 -27.5582418469 11.5130399491 3.5527136788e-15 c 2,0,-1
EndSplineSet
EndChar

StartChar: braceleft
Encoding: 123 123 124
Width: 600
GlyphClass: 1
Flags: W
LayerCount: 2
Fore
SplineSet
425.808389887 360.499184701 m 1,0,1
 467.220141635 311.838254369 467.220141635 311.838254369 467.220141635 245.488723183 c 0,2,3
 467.220141635 235.20405284 467.220141635 235.20405284 466.17956985 224.590220625 c 0,4,5
 453.271975643 91.65440477 453.271975643 91.65440477 451.471447317 71.9893126388 c 0,6,7
 454.933458445 71.4869600509 454.933458445 71.4869600509 460 71.4869600509 c 2,8,-1
 511 71.4869600509 l 2,9,10
 538.558241847 71.4869600509 538.558241847 71.4869600509 558.022600949 52.0226009489 c 128,-1,11
 577.486960051 32.5582418469 577.486960051 32.5582418469 577.486960051 5 c 2,12,-1
 577.486960051 -111 l 2,13,14
 577.486960051 -138.558241847 577.486960051 -138.558241847 558.022600949 -158.022600949 c 128,-1,15
 538.558241847 -177.486960051 538.558241847 -177.486960051 511 -177.486960051 c 2,16,-1
 442 -177.486960051 l 2,17,18
 323.883717185 -177.486960051 323.883717185 -177.486960051 253.234558118 -106.848066027 c 0,19,20
 192.425632252 -46.0391401606 192.425632252 -46.0391401606 192.425632252 45.5982111966 c 0,21,22
 192.425632252 59.2897265949 192.425632252 59.2897265949 193.836692364 73.5767102344 c 2,23,-1
 208.829422993 225.502625627 l 2,24,25
 208.709658608 231.441969758 208.709658608 231.441969758 208.636408666 235.074573986 c 0,26,27
 204.595496792 235.513039949 204.595496792 235.513039949 199 235.513039949 c 2,28,-1
 69 235.513039949 l 2,29,30
 41.4417581531 235.513039949 41.4417581531 235.513039949 21.9773990511 254.977399051 c 128,-1,31
 2.51303994906 274.441758153 2.51303994906 274.441758153 2.51303994906 302 c 2,32,-1
 2.51303994906 417 l 2,33,34
 2.51303994906 444.558241847 2.51303994906 444.558241847 21.9773990511 464.022600949 c 128,-1,35
 41.4417581531 483.486960051 41.4417581531 483.486960051 69 483.486960051 c 2,36,-1
 199 483.486960051 l 1,37,-1
 209.28045226 484.728744063 l 1,38,39
 209.279843286 487.781566908 209.279843286 487.781566908 193.83343679 649.453954908 c 0,40,41
 192.425461883 663.453326711 192.425461883 663.453326711 192.425461883 676.881170977 c 0,42,43
 192.425461883 770.390368929 192.425461883 770.390368929 257.70387417 831.188890177 c 0,44,45
 327.813380772 896.486960051 327.813380772 896.486960051 442 896.486960051 c 2,46,-1
 511 896.486960051 l 2,47,48
 538.558241847 896.486960051 538.558241847 896.486960051 558.022600949 877.022600949 c 128,-1,49
 577.486960051 857.558241847 577.486960051 857.558241847 577.486960051 830 c 2,50,-1
 577.486960051 715 l 2,51,52
 577.486960051 687.441758153 577.486960051 687.441758153 558.022600949 667.977399051 c 128,-1,53
 538.558241847 648.513039949 538.558241847 648.513039949 511 648.513039949 c 2,54,-1
 460 648.513039949 l 1,55,-1
 451.465554091 647.435519999 l 1,56,-1
 466.167491781 494.534171875 l 2,57,58
 467.214122615 483.858537367 467.214122615 483.858537367 467.214122615 473.56354624 c 0,59,60
 467.214122615 407.381175551 467.214122615 407.381175551 425.808389887 360.499184701 c 1,0,1
EndSplineSet
EndChar

StartChar: bar
Encoding: 124 124 125
Width: 600
GlyphClass: 1
Flags: W
LayerCount: 2
Fore
SplineSet
170.513039949 -110 m 2,0,-1
 170.513039949 830 l 2,1,2
 170.513039949 857.558241847 170.513039949 857.558241847 189.977399051 877.022600949 c 128,-1,3
 209.441758153 896.486960051 209.441758153 896.486960051 237 896.486960051 c 2,4,-1
 363 896.486960051 l 2,5,6
 390.558241847 896.486960051 390.558241847 896.486960051 410.022600949 877.022600949 c 128,-1,7
 429.486960051 857.558241847 429.486960051 857.558241847 429.486960051 830 c 2,8,-1
 429.486960051 -110 l 2,9,10
 429.486960051 -137.558241847 429.486960051 -137.558241847 410.022600949 -157.022600949 c 128,-1,11
 390.558241847 -176.486960051 390.558241847 -176.486960051 363 -176.486960051 c 2,12,-1
 237 -176.486960051 l 2,13,14
 209.441758153 -176.486960051 209.441758153 -176.486960051 189.977399051 -157.022600949 c 128,-1,15
 170.513039949 -137.558241847 170.513039949 -137.558241847 170.513039949 -110 c 2,0,-1
EndSplineSet
EndChar

StartChar: braceright
Encoding: 125 125 126
Width: 600
GlyphClass: 1
Flags: W
LayerCount: 2
Fore
SplineSet
173.731561217 360.459524318 m 1,0,1
 132.769881868 407.29963761 132.769881868 407.29963761 132.769881868 473.35439294 c 0,2,3
 132.769881868 483.6941869 132.769881868 483.6941869 133.82043015 494.409779375 c 2,4,-1
 148.589492207 648.008024766 l 1,5,6
 145.195697166 648.513039949 145.195697166 648.513039949 140 648.513039949 c 2,7,-1
 89 648.513039949 l 2,8,9
 61.4417581531 648.513039949 61.4417581531 648.513039949 41.9773990511 667.977399051 c 128,-1,10
 22.5130399491 687.441758153 22.5130399491 687.441758153 22.5130399491 715 c 2,11,-1
 22.5130399491 830 l 2,12,13
 22.5130399491 857.558241847 22.5130399491 857.558241847 41.9773990511 877.022600949 c 128,-1,14
 61.4417581531 896.486960051 61.4417581531 896.486960051 89 896.486960051 c 2,15,-1
 158 896.486960051 l 2,16,17
 277.193600963 896.486960051 277.193600963 896.486960051 347.879107161 825.801453853 c 0,18,19
 407.574538117 766.106022896 407.574538117 766.106022896 407.574538117 676.881170977 c 0,20,21
 407.574538117 663.453326711 407.574538117 663.453326711 406.16656321 649.453954908 c 2,22,-1
 391.155339169 492.33647661 l 1,23,-1
 391.290734297 483.933381004 l 1,24,25
 395.353972446 483.486960051 395.353972446 483.486960051 401 483.486960051 c 2,26,-1
 531 483.486960051 l 2,27,28
 558.558241847 483.486960051 558.558241847 483.486960051 578.022600949 464.022600949 c 128,-1,29
 597.486960051 444.558241847 597.486960051 444.558241847 597.486960051 417 c 2,30,-1
 597.486960051 302 l 2,31,32
 597.486960051 274.441758153 597.486960051 274.441758153 578.022600949 254.977399051 c 128,-1,33
 558.558241847 235.513039949 558.558241847 235.513039949 531 235.513039949 c 2,34,-1
 401 235.513039949 l 2,35,36
 395.258172711 235.513039949 395.258172711 235.513039949 390.736830275 234.976815968 c 0,37,38
 390.718195146 234.31366271 390.718195146 234.31366271 390.718195146 232.226387981 c 128,-1,39
 390.718195146 230.086749165 390.718195146 230.086749165 406.162778854 73.5820663494 c 0,40,41
 407.574111981 59.2923184381 407.574111981 59.2923184381 407.574111981 45.5986296048 c 0,42,43
 407.574111981 -49.1247010959 407.574111981 -49.1247010959 342.806371372 -110.7086819 c 0,44,45
 272.585913935 -177.486960051 272.585913935 -177.486960051 158 -177.486960051 c 2,46,-1
 89 -177.486960051 l 2,47,48
 61.4417581531 -177.486960051 61.4417581531 -177.486960051 41.9773990511 -158.022600949 c 128,-1,49
 22.5130399491 -138.558241847 22.5130399491 -138.558241847 22.5130399491 -111 c 2,50,-1
 22.5130399491 5 l 2,51,52
 22.5130399491 32.5582418469 22.5130399491 32.5582418469 41.7565199745 51.7791209234 c 128,-1,53
 61 71 61 71 89 71.4869600509 c 2,54,-1
 140 71.4869600509 l 2,55,56
 144.969912989 71.4869600509 144.969912989 71.4869600509 148.494190274 71.9831418851 c 1,57,-1
 133.832508219 224.465828125 l 2,58,59
 132.785380934 235.146526435 132.785380934 235.146526435 132.785380934 245.493487391 c 0,60,61
 132.785380934 311.534681294 132.785380934 311.534681294 173.731561217 360.459524318 c 1,0,1
EndSplineSet
EndChar

StartChar: asciitilde
Encoding: 126 126 127
Width: 600
GlyphClass: 1
Flags: W
LayerCount: 2
Fore
SplineSet
-14.4869600509 255 m 2,0,-1
 -14.4869600509 334 l 2,1,2
 -14.4869600509 423.836731356 -14.4869600509 423.836731356 45.6004976194 480.161845703 c 128,-1,3
 105.68795529 536.486960051 105.68795529 536.486960051 197 536.486960051 c 0,4,5
 254.268969883 536.486960051 254.268969883 536.486960051 295.623922694 515.043651186 c 0,6,7
 333.751441462 495.27382664 333.751441462 495.27382664 359.585808317 465.748835948 c 0,8,9
 367.879361003 456.270490021 367.879361003 456.270490021 375.513039949 446.659966129 c 1,10,-1
 375.513039949 450 l 2,11,12
 375.513039949 477.558241847 375.513039949 477.558241847 394.977399051 497.022600949 c 128,-1,13
 414.441758153 516.486960051 414.441758153 516.486960051 442 516.486960051 c 2,14,-1
 548 516.486960051 l 2,15,16
 575.558241847 516.486960051 575.558241847 516.486960051 595.022600949 497.022600949 c 128,-1,17
 614.486960051 477.558241847 614.486960051 477.558241847 614.486960051 450 c 2,18,-1
 614.486960051 371 l 2,19,20
 614.486960051 281.416020837 614.486960051 281.416020837 555.020123491 224.964530393 c 128,-1,21
 495.553286932 168.513039949 495.553286932 168.513039949 403 168.513039949 c 0,22,23
 345.731030117 168.513039949 345.731030117 168.513039949 304.376077306 189.956348814 c 0,24,25
 266.248558538 209.72617336 266.248558538 209.72617336 240.414191683 239.251164052 c 0,26,27
 232.120638997 248.729509979 232.120638997 248.729509979 224.486960051 258.340033871 c 1,28,-1
 224.486960051 255 l 2,29,30
 224.486960051 227.441758153 224.486960051 227.441758153 205.022600949 207.977399051 c 128,-1,31
 185.558241847 188.513039949 185.558241847 188.513039949 158 188.513039949 c 2,32,-1
 52 188.513039949 l 2,33,34
 24.4417581531 188.513039949 24.4417581531 188.513039949 4.97739905109 207.977399051 c 128,-1,35
 -14.4869600509 227.441758153 -14.4869600509 227.441758153 -14.4869600509 255 c 2,0,-1
EndSplineSet
EndChar

StartChar: exclamdown
Encoding: 161 161 130
Width: 600
GlyphClass: 1
Flags: W
LayerCount: 2
Fore
SplineSet
165.513039949 -180 m 2,0,-1
 165.513039949 -35 l 2,1,2
 165.513039949 -32.9144886836 165.513039949 -32.9144886836 187.642740775 322.166620016 c 0,3,4
 189.206091525 347.251293423 189.206091525 347.251293423 206.977399051 365.022600949 c 0,5,6
 211.980866471 370.026068369 211.980866471 370.026068369 217.519167689 373.743354924 c 1,7,8
 200.558628409 382.826938924 200.558628409 382.826938924 186.718937513 396.66662982 c 0,9,10
 149.513039949 433.872527384 149.513039949 433.872527384 149.513039949 491 c 0,11,12
 149.513039949 549.686908947 149.513039949 549.686908947 191.120705218 587.027121368 c 0,13,14
 229.518811179 621.486960051 229.518811179 621.486960051 288 621.486960051 c 2,15,-1
 313 621.486960051 l 2,16,17
 374.683241847 621.486960051 374.683241847 621.486960051 413.883929074 582.286272824 c 0,18,19
 450.486960051 545.683241847 450.486960051 545.683241847 450.486960051 490 c 0,20,21
 450.486960051 430.870968642 450.486960051 430.870968642 409.57601104 393.107015709 c 0,22,23
 397.054242823 381.548460432 397.054242823 381.548460432 382.480832311 373.743354924 c 1,24,25
 388.019133529 370.026068369 388.019133529 370.026068369 393.022600949 365.022600949 c 0,26,27
 410.793908475 347.251293423 410.793908475 347.251293423 412.357259225 322.166620016 c 0,28,29
 434.486960051 -32.9144886836 434.486960051 -32.9144886836 434.486960051 -35 c 2,30,-1
 434.486960051 -180 l 2,31,32
 434.486960051 -207.558241847 434.486960051 -207.558241847 415.022600949 -227.022600949 c 128,-1,33
 395.558241847 -246.486960051 395.558241847 -246.486960051 368 -246.486960051 c 2,34,-1
 232 -246.486960051 l 2,35,36
 204.441758153 -246.486960051 204.441758153 -246.486960051 184.977399051 -227.022600949 c 128,-1,37
 165.513039949 -207.558241847 165.513039949 -207.558241847 165.513039949 -180 c 2,0,-1
EndSplineSet
EndChar

StartChar: cent
Encoding: 162 162 131
Width: 600
GlyphClass: 2
Flags: W
LayerCount: 2
Fore
SplineSet
403.486960051 -140 m 2,0,1
 403.486960051 -167.558241847 403.486960051 -167.558241847 384.022600949 -187.022600949 c 128,-1,2
 364.558241847 -206.486960051 364.558241847 -206.486960051 337 -206.486960051 c 2,3,-1
 274 -206.486960051 l 2,4,5
 246.441758153 -206.486960051 246.441758153 -206.486960051 226.977399051 -187.022600949 c 128,-1,6
 207.513039949 -167.558241847 207.513039949 -167.558241847 207.513039949 -140 c 2,7,-1
 207.513039949 -64.8945380954 l 1,8,9
 130.628133256 -44.5697364413 130.628133256 -44.5697364413 77.6379802583 10.331796792 c 0,10,11
 3.51303994906 87.1279061213 3.51303994906 87.1279061213 3.51303994906 206 c 2,12,-1
 3.51303994906 344 l 2,13,14
 3.51303994906 465.60158715 3.51303994906 465.60158715 81.0489408664 543.140119776 c 0,15,16
 133.143505137 595.234684046 133.143505137 595.234684046 207.513039949 614.894538095 c 1,17,-1
 207.513039949 690 l 2,18,19
 207.513039949 717.558241847 207.513039949 717.558241847 226.977399051 737.022600949 c 128,-1,20
 246.441758153 756.486960051 246.441758153 756.486960051 274 756.486960051 c 2,21,-1
 337 756.486960051 l 2,22,23
 364.558241847 756.486960051 364.558241847 756.486960051 384.022600949 737.022600949 c 128,-1,24
 403.486960051 717.558241847 403.486960051 717.558241847 403.486960051 690 c 2,25,-1
 403.486960051 613.749092813 l 1,26,27
 476.159629962 594.388434121 476.159629962 594.388434121 526.157146403 544.391085797 c 0,28,29
 596.540153549 474.008078652 596.540153549 474.008078652 600.445274442 363.362986688 c 0,30,31
 600.493881826 361.98577749 600.493881826 361.98577749 600.493881826 360.627809881 c 0,32,33
 600.493881826 333.448679928 600.493881826 333.448679928 581.022600949 313.977399051 c 128,-1,34
 561.558241847 294.513039949 561.558241847 294.513039949 534 294.513039949 c 2,35,-1
 412 294.513039949 l 2,36,37
 407.642289305 294.513039949 407.642289305 294.513039949 403.486960051 294.999731585 c 1,38,-1
 403.486960051 255.000268415 l 1,39,40
 407.642289305 255.486960051 407.642289305 255.486960051 412 255.486960051 c 2,41,-1
 534 255.486960051 l 2,42,43
 561.558241847 255.486960051 561.558241847 255.486960051 581.022600949 236.022600949 c 128,-1,44
 600.493881826 216.551320072 600.493881826 216.551320072 600.493881826 189.372190119 c 0,45,46
 600.493881826 188.01422251 600.493881826 188.01422251 600.445274442 186.637013312 c 0,47,48
 596.51547962 75.2928266826 596.51547962 75.2928266826 525.292753703 4.74864872979 c 0,49,50
 475.507903608 -44.5620599357 475.507903608 -44.5620599357 403.486960051 -63.7490928128 c 1,51,-1
 403.486960051 -140 l 2,0,1
EndSplineSet
EndChar

StartChar: sterling
Encoding: 163 163 132
Width: 600
GlyphClass: 1
Flags: W
LayerCount: 2
Fore
SplineSet
2.51303994906 397 m 2,0,1
 2.51303994906 425.167962638 2.51303994906 425.167962638 22.831793667 444.863840517 c 1,2,3
 1.0815101437 489.965486923 1.0815101437 489.965486923 0.513039949058 546 c 0,4,5
 0.513039949058 621.69605096 0.513039949058 621.69605096 39.6521265147 682.121307412 c 0,6,7
 78.4109165527 741.9594394 78.4109165527 741.9594394 146.164813236 774.223199726 c 128,-1,8
 213.918709919 806.486960051 213.918709919 806.486960051 300 806.486960051 c 0,9,10
 438.074031321 806.486960051 438.074031321 806.486960051 520.844540007 723.716451364 c 0,11,12
 592.595217777 651.965773594 592.595217777 651.965773594 597.42373384 540.909904151 c 0,13,14
 597.497477789 539.213793335 597.497477789 539.213793335 597.497477789 537.546534217 c 0,15,16
 597.497477789 510.452275891 597.497477789 510.452275891 578.022600949 490.977399051 c 128,-1,17
 558.558241847 471.513039949 558.558241847 471.513039949 531 471.513039949 c 2,18,-1
 404 471.513039949 l 2,19,20
 376.441758153 471.513039949 376.441758153 471.513039949 357.658569133 490.296228969 c 128,-1,21
 338.875380113 509.079417989 338.875380113 509.079417989 337.596615023 534.654719794 c 0,22,23
 336.945191689 547.683186465 336.945191689 547.683186465 327.895176136 556.098113207 c 128,-1,24
 318.845160584 564.513039949 318.845160584 564.513039949 296.302274298 564.513039949 c 0,25,26
 265.077425963 564.513039949 265.077425963 564.513039949 259.857705556 549.156808931 c 0,27,28
 258.486960051 545.124124611 258.486960051 545.124124611 258.486960051 536.355551739 c 128,-1,29
 258.486960051 527.586978867 258.486960051 527.586978867 261.93164994 521.889991743 c 0,30,31
 272.139213197 505.00825251 272.139213197 505.00825251 284.122453669 490.970742243 c 128,-1,32
 296.10569414 476.933231977 296.10569414 476.933231977 305.561107425 463.486960051 c 1,33,-1
 435 463.486960051 l 2,34,35
 462.558241847 463.486960051 462.558241847 463.486960051 482.022600949 444.022600949 c 128,-1,36
 501.486960051 424.558241847 501.486960051 424.558241847 501.486960051 397 c 2,37,-1
 501.486960051 293 l 2,38,39
 501.486960051 265.441758153 501.486960051 265.441758153 482.022600949 245.977399051 c 128,-1,40
 462.558241847 226.513039949 462.558241847 226.513039949 435 226.513039949 c 2,41,-1
 359.448029162 226.513039949 l 1,42,43
 354.257526798 202.751934159 354.257526798 202.751934159 343.720391313 181.486960051 c 1,44,-1
 535 181.486960051 l 2,45,46
 562.558241847 181.486960051 562.558241847 181.486960051 582.022600949 162.022600949 c 128,-1,47
 601.486960051 142.558241847 601.486960051 142.558241847 601.486960051 115 c 2,48,-1
 601.486960051 -3.5527136788e-15 l 2,49,50
 601.486960051 -27.5582418469 601.486960051 -27.5582418469 582.243480025 -46.7791209234 c 128,-1,51
 563 -66 563 -66 535 -66.4869600509 c 2,52,-1
 75 -66.4869600509 l 2,53,54
 47.4417581531 -66.4869600509 47.4417581531 -66.4869600509 27.9773990511 -47.0226009489 c 128,-1,55
 8.51303994906 -27.5582418469 8.51303994906 -27.5582418469 8.51303994906 3.5527136788e-15 c 2,56,-1
 8.51303994906 135 l 2,57,58
 8.51303994906 162.558241847 8.51303994906 162.558241847 27.9773990511 182.022600949 c 0,59,60
 34.0962220718 188.14142397 34.0962220718 188.14142397 41.503787845 192.462504004 c 0,61,62
 66.0699042129 206.792738552 66.0699042129 206.792738552 87.6046647639 226.513039949 c 1,63,-1
 69 226.513039949 l 2,64,65
 41.4417581531 226.513039949 41.4417581531 226.513039949 21.9773990511 245.977399051 c 128,-1,66
 2.51303994906 265.441758153 2.51303994906 265.441758153 2.51303994906 293 c 2,67,-1
 2.51303994906 397 l 2,0,1
EndSplineSet
EndChar

StartChar: currency
Encoding: 164 164 133
Width: 600
GlyphClass: 1
Flags: W
LayerCount: 2
Fore
SplineSet
555.838829344 465.793627446 m 1,0,1
 571.486960051 421.779791924 571.486960051 421.779791924 571.486960051 373.144514136 c 128,-1,2
 571.486960051 324.509236348 571.486960051 324.509236348 555.026930532 279.018271366 c 1,3,-1
 609.022600949 225.022600949 l 2,4,5
 628.486960051 205.558241847 628.486960051 205.558241847 628.486960051 178 c 128,-1,6
 628.486960051 150.441758153 628.486960051 150.441758153 609.022600949 130.977399051 c 2,7,-1
 540.666405443 63.6238315529 l 2,8,9
 521.273554496 44.5130365213 521.273554496 44.5130365213 493.946746731 44.5130611136 c 128,-1,10
 466.641937932 44.5347647115 466.641937932 44.5347647115 447.252000367 63.7043620766 c 2,11,-1
 391.605053336 118.718957437 l 1,12,13
 349.369450094 104.513039949 349.369450094 104.513039949 300.736172319 104.513039949 c 128,-1,14
 252.102894544 104.513039949 252.102894544 104.513039949 209.706504251 118.661302354 c 1,15,-1
 156.022600949 64.9773990511 l 2,16,17
 137 46 137 46 109.220879077 45.7565199745 c 128,-1,18
 81.4417581531 45.5130399491 81.4417581531 45.5130399491 61.9773990511 64.9773990511 c 2,19,-1
 -5.02260094891 131.977399051 l 2,20,21
 -24.4869600509 151.441758153 -24.4869600509 151.441758153 -24.4869600509 179 c 128,-1,22
 -24.4869600509 206.558241847 -24.4869600509 206.558241847 -5.02260094891 226.022600949 c 2,23,-1
 45.3926141325 276.43781603 l 1,24,25
 29 322 29 322 28.7565199745 373.02267182 c 128,-1,26
 28.5130399491 424.04534364 28.5130399491 424.04534364 45.1706511527 468.175637952 c 1,27,-1
 -7.29878318255 521.255181989 l 2,28,29
 -26.4660847506 540.645359157 -26.4660847506 540.645359157 -26.4869632163 568.008278418 c 128,-1,30
 -26.4869632163 595.273430558 -26.4869632163 595.273430558 -7.37616844706 614.666405443 c 2,31,-1
 59.6238315529 682.666405443 l 2,32,33
 79.4417581531 702.486960051 79.4417581531 702.486960051 107 702.486960051 c 128,-1,34
 134.558241847 702.486960051 134.558241847 702.486960051 154.022600949 683.022600949 c 2,35,-1
 209.940160334 627.105041563 l 1,36,37
 252.971190001 641.486960051 252.971190001 641.486960051 302.293414744 641.486960051 c 128,-1,38
 351.615639487 641.486960051 351.615639487 641.486960051 395.847259974 625.892461872 c 1,39,-1
 446.977399051 677.022600949 l 2,40,41
 466.441758153 696.486960051 466.441758153 696.486960051 494 696.486960051 c 128,-1,42
 521.558241847 696.486960051 521.558241847 696.486960051 541.022600949 677.022600949 c 2,43,-1
 607.022600949 611.022600949 l 2,44,45
 626.486960051 591.558241847 626.486960051 591.558241847 626.486960051 564 c 128,-1,46
 626.486960051 536.441758153 626.486960051 536.441758153 607.022600949 516.977399051 c 2,47,-1
 555.838829344 465.793627446 l 1,0,1
EndSplineSet
EndChar

StartChar: yen
Encoding: 165 165 134
Width: 600
GlyphClass: 2
Flags: W
LayerCount: 2
Fore
SplineSet
-6.48696005094 108 m 2,0,-1
 -6.48696005094 201 l 2,1,2
 -6.48696005094 218.354991375 -6.48696005094 218.354991375 1.23248177172 232.5 c 1,3,4
 -6.48696005094 246.645008625 -6.48696005094 246.645008625 -6.48696005094 264 c 2,5,-1
 -6.48696005094 357 l 2,6,7
 -6.48696005094 384.558241847 -6.48696005094 384.558241847 12.9773990511 404.022600949 c 128,-1,8
 32.4417581531 423.486960051 32.4417581531 423.486960051 60 423.486960051 c 2,9,-1
 91.0982053492 423.486960051 l 1,10,-1
 -37.3859569538 702.118312022 l 2,11,12
 -43.5670429088 715.080693212 -43.5670429088 715.080693212 -43.5670429088 729.36046176 c 0,13,14
 -43.5670429088 757.478158989 -43.5670429088 757.478158989 -24.0226009489 777.022600949 c 128,-1,15
 -4.55824184687 796.486960051 -4.55824184687 796.486960051 23 796.486960051 c 2,16,-1
 154 796.486960051 l 2,17,18
 181.558241847 796.486960051 181.558241847 796.486960051 201.022600949 777.022600949 c 0,19,20
 209.652539718 768.39266218 209.652539718 768.39266218 214.624723845 757.35790267 c 2,21,-1
 301.643371306 564.237571025 l 1,22,23
 386.109700443 756.757665699 386.109700443 756.757665699 386.109700443 756.760634491 c 0,24,25
 391.108036579 768.153238477 391.108036579 768.153238477 399.977399051 777.022600949 c 0,26,27
 419.441758153 796.486960051 419.441758153 796.486960051 447 796.486960051 c 2,28,-1
 577 796.486960051 l 2,29,30
 604.558241847 796.486960051 604.558241847 796.486960051 624.022600949 777.022600949 c 128,-1,31
 643.567042909 757.478158989 643.567042909 757.478158989 643.567042909 729.36046176 c 0,32,33
 643.567042909 715.080693212 643.567042909 715.080693212 637.385956954 702.118312022 c 2,34,-1
 508.901794651 423.486960051 l 1,35,-1
 540 423.486960051 l 2,36,37
 567.558241847 423.486960051 567.558241847 423.486960051 587.022600949 404.022600949 c 128,-1,38
 606.486960051 384.558241847 606.486960051 384.558241847 606.486960051 357 c 2,39,-1
 606.486960051 264 l 2,40,41
 606.486960051 246.645008625 606.486960051 246.645008625 598.767518228 232.5 c 1,42,43
 606.486960051 218.354991375 606.486960051 218.354991375 606.486960051 201 c 2,44,-1
 606.486960051 108 l 2,45,46
 606.486960051 80.4417581531 606.486960051 80.4417581531 587.022600949 60.9773990511 c 128,-1,47
 567.558241847 41.5130399491 567.558241847 41.5130399491 540 41.5130399491 c 2,48,-1
 429.486960051 41.5130399491 l 1,49,-1
 429.486960051 -3.5527136788e-15 l 2,50,51
 429.486960051 -27.5582418469 429.486960051 -27.5582418469 410.243480025 -46.7791209234 c 128,-1,52
 391 -66 391 -66 363 -66.4869600509 c 2,53,-1
 237 -66.4869600509 l 2,54,55
 209.441758153 -66.4869600509 209.441758153 -66.4869600509 189.977399051 -47.0226009489 c 128,-1,56
 170.513039949 -27.5582418469 170.513039949 -27.5582418469 170.513039949 3.5527136788e-15 c 2,57,-1
 170.513039949 41.5130399491 l 1,58,-1
 60 41.5130399491 l 2,59,60
 32.4417581531 41.5130399491 32.4417581531 41.5130399491 12.9773990511 60.9773990511 c 128,-1,61
 -6.48696005094 80.4417581531 -6.48696005094 80.4417581531 -6.48696005094 108 c 2,0,-1
EndSplineSet
EndChar

StartChar: brokenbar
Encoding: 166 166 135
Width: 600
GlyphClass: 1
Flags: W
LayerCount: 2
Fore
SplineSet
170.513039949 -110 m 2,0,-1
 170.513039949 270 l 2,1,2
 170.513039949 297.558241847 170.513039949 297.558241847 189.977399051 317.022600949 c 128,-1,3
 209.441758153 336.486960051 209.441758153 336.486960051 237 336.486960051 c 2,4,-1
 363 336.486960051 l 2,5,6
 390.558241847 336.486960051 390.558241847 336.486960051 410.022600949 317.022600949 c 128,-1,7
 429.486960051 297.558241847 429.486960051 297.558241847 429.486960051 270 c 2,8,-1
 429.486960051 -110 l 2,9,10
 429.486960051 -137.558241847 429.486960051 -137.558241847 410.022600949 -157.022600949 c 128,-1,11
 390.558241847 -176.486960051 390.558241847 -176.486960051 363 -176.486960051 c 2,12,-1
 237 -176.486960051 l 2,13,14
 209.441758153 -176.486960051 209.441758153 -176.486960051 189.977399051 -157.022600949 c 128,-1,15
 170.513039949 -137.558241847 170.513039949 -137.558241847 170.513039949 -110 c 2,0,-1
170.513039949 450 m 2,16,-1
 170.513039949 830 l 2,17,18
 170.513039949 857.558241847 170.513039949 857.558241847 189.977399051 877.022600949 c 128,-1,19
 209.441758153 896.486960051 209.441758153 896.486960051 237 896.486960051 c 2,20,-1
 363 896.486960051 l 2,21,22
 390.558241847 896.486960051 390.558241847 896.486960051 410.022600949 877.022600949 c 128,-1,23
 429.486960051 857.558241847 429.486960051 857.558241847 429.486960051 830 c 2,24,-1
 429.486960051 450 l 2,25,26
 429.486960051 422.441758153 429.486960051 422.441758153 410.022600949 402.977399051 c 128,-1,27
 390.558241847 383.513039949 390.558241847 383.513039949 363 383.513039949 c 2,28,-1
 237 383.513039949 l 2,29,30
 209.441758153 383.513039949 209.441758153 383.513039949 189.977399051 402.977399051 c 128,-1,31
 170.513039949 422.441758153 170.513039949 422.441758153 170.513039949 450 c 2,16,-1
EndSplineSet
EndChar

StartChar: section
Encoding: 167 167 136
Width: 600
GlyphClass: 1
Flags: W
LayerCount: 2
Fore
SplineSet
549.418263793 168.390963396 m 1,0,1
 562.981249016 154.291803819 562.981249016 154.291803819 574.483004319 137.422562708 c 0,2,3
 608.486960051 87.5500943012 608.486960051 87.5500943012 608.486960051 17 c 0,4,5
 608.486960051 -94.6133660798 608.486960051 -94.6133660798 522.685557988 -161.109452678 c 0,6,7
 444.779096862 -221.486960051 444.779096862 -221.486960051 314 -221.486960051 c 2,8,-1
 284 -221.486960051 l 2,9,10
 168.002924745 -221.486960051 168.002924745 -221.486960051 90.9076022951 -167.520234336 c 0,11,12
 7.56967951075 -109.183688387 7.56967951075 -109.183688387 -7.7196589994 -9.10801813852 c 0,13,14
 -8.61789216368 -3.22867379049 -8.61789216368 -3.22867379049 -8.61789216368 2.35370984189 c 0,15,16
 -8.61789216368 28.4273097341 -8.61789216368 28.4273097341 10.6910539182 47.7136548671 c 128,-1,17
 30 67 30 67 58 67.4869600509 c 2,18,-1
 162.764706804 67.4869600509 l 1,19,20
 103.300398613 90.0640904095 103.300398613 90.0640904095 62.9101990511 130.444599051 c 0,21,22
 1.51303994906 191.841758153 1.51303994906 191.841758153 1.51303994906 278.601706064 c 128,-1,23
 1.51303994906 365.361653975 1.51303994906 365.361653975 61.1173606018 422.07325334 c 1,24,25
 46.9804846293 436.852374822 46.9804846293 436.852374822 35.3678894802 454.547757906 c 0,26,27
 4 503 4 503 3.51303994906 571 c 0,28,29
 3.51303994906 681.03056822 3.51303994906 681.03056822 85.5638060983 746.51903233 c 0,30,31
 160.688462804 806.486960051 160.688462804 806.486960051 286 806.486960051 c 2,32,-1
 316 806.486960051 l 2,33,34
 428.530695166 806.486960051 428.530695166 806.486960051 503.393316744 755.502933287 c 0,35,36
 522.231793487 742.673281022 522.231793487 742.673281022 537.694271199 727.21080331 c 0,37,38
 589.043803126 675.861271383 589.043803126 675.861271383 599.814503188 600.466370955 c 0,39,40
 600.601435091 594.957847633 600.601435091 594.957847633 600.601435091 589.713740878 c 0,41,42
 600.601435091 563.556233193 600.601435091 563.556233193 581.022600949 543.977399051 c 128,-1,43
 561.558241847 524.513039949 561.558241847 524.513039949 534 524.513039949 c 2,44,-1
 449.2998166 524.513039949 l 1,45,46
 504.822258409 502.222943488 504.822258409 502.222943488 543.022600949 464.022600949 c 0,47,48
 607.486960051 399.558241847 607.486960051 399.558241847 607.486960051 312.363914665 c 128,-1,49
 607.486960051 225.169587483 607.486960051 225.169587483 549.418263793 168.390963396 c 1,0,1
EndSplineSet
EndChar

